<svg width="140" height="43" viewBox="0 0 140 43" fill="none" xmlns="http://www.w3.org/2000/svg">
<rect width="140" height="43" fill="#EEEEEE"/>
<g id="Desktop - 7" clip-path="url(#clip0_1904_13175)">
<rect width="1440" height="4269" transform="translate(-414 -1962)" fill="white"/>
<g id="Frame 2608434">
<g id="Frame 2608458">
<g id="Logo container">
<g id="Amazon_logo 1" clip-path="url(#clip1_1904_13175)">
<path id="path8" d="M86.7142 33.4738C78.6464 39.4271 66.9525 42.6033 56.8843 42.6033C42.767 42.6033 30.0578 37.3761 20.4428 28.6822C19.6874 27.9985 20.3643 27.0668 21.2708 27.5992C31.6472 33.6432 44.4772 37.2793 57.7303 37.2793C66.6684 37.2793 76.501 35.428 85.5418 31.5862C86.9076 31.0054 88.0498 32.4816 86.7142 33.4738Z" fill="#FF9900"/>
<path id="path10" d="M90.0674 29.632C89.04 28.3131 83.2505 29.0089 80.6518 29.3174C79.8601 29.4142 79.7393 28.7245 80.4524 28.2284C85.0635 24.9795 92.6297 25.9173 93.5121 27.0063C94.3944 28.1014 93.2824 35.6942 88.9493 39.3181C88.2846 39.8747 87.65 39.5783 87.9462 38.8402C88.9191 36.4081 91.1008 30.957 90.0674 29.632Z" fill="#FF9900"/>
<path id="path12" d="M80.834 5.29272V2.1346C80.834 1.65665 81.1966 1.336 81.6318 1.336H95.7551C96.2083 1.336 96.5709 1.6627 96.5709 2.1346V4.83897C96.5649 5.29272 96.1842 5.88563 95.5073 6.82338L88.1888 17.2839C90.9083 17.2174 93.7789 17.6227 96.2446 19.0142C96.8006 19.3288 96.9517 19.7886 96.994 20.2424V23.6123C96.994 24.0721 96.4863 24.6105 95.9545 24.3322C91.6093 22.0513 85.8379 21.8033 81.0335 24.3564C80.544 24.6226 80.0303 24.0902 80.0303 23.6304V20.4299C80.0303 19.9157 80.0363 19.0384 80.55 18.258L89.0288 6.08528H81.6499C81.1966 6.08528 80.834 5.76463 80.834 5.29272Z" fill="#221F1F"/>
<path id="path14" d="M29.3143 24.9977H25.0175C24.6066 24.9675 24.2802 24.6589 24.25 24.2657V2.18908C24.25 1.74742 24.6186 1.39652 25.0779 1.39652H29.0847C29.5017 1.41466 29.8341 1.73532 29.8643 2.13462V5.02049H29.9428C30.9883 2.23142 32.9524 0.930664 35.5994 0.930664C38.2887 0.930664 39.9688 2.23142 41.1774 5.02049C42.2169 2.23142 44.5798 0.930664 47.112 0.930664C48.9129 0.930664 50.8831 1.67482 52.0857 3.34463C53.4454 5.20199 53.1674 7.90031 53.1674 10.2659L53.1614 24.1991C53.1614 24.6408 52.7928 24.9977 52.3335 24.9977H48.0427C47.6136 24.9675 47.2691 24.6226 47.2691 24.1991V12.4983C47.2691 11.5666 47.3537 9.24342 47.1483 8.36011C46.828 6.87786 45.8671 6.4604 44.6221 6.4604C43.5827 6.4604 42.4949 7.15616 42.0537 8.26937C41.6126 9.38257 41.6549 11.246 41.6549 12.4983V24.1991C41.6549 24.6408 41.2862 24.9977 40.8269 24.9977H36.5361C36.101 24.9675 35.7626 24.6226 35.7626 24.1991L35.7565 12.4983C35.7565 10.036 36.1614 6.412 33.1096 6.412C30.0214 6.412 30.1423 9.94522 30.1423 12.4983V24.1991C30.1423 24.6408 29.7736 24.9977 29.3143 24.9977Z" fill="#221F1F"/>
<path id="path16" d="M108.73 0.930664C115.106 0.930664 118.556 6.412 118.556 13.3816C118.556 20.1153 114.743 25.4575 108.73 25.4575C102.469 25.4575 99.0605 19.9762 99.0605 13.1457C99.0605 6.27285 102.511 0.930664 108.73 0.930664ZM108.766 5.43795C105.599 5.43795 105.4 9.75767 105.4 12.4499C105.4 15.1483 105.358 20.9079 108.73 20.9079C112.06 20.9079 112.217 16.2615 112.217 13.43C112.217 11.5666 112.138 9.34022 111.576 7.57361C111.093 6.0369 110.132 5.43795 108.766 5.43795Z" fill="#221F1F"/>
<path id="path18" d="M126.824 24.9977H122.545C122.116 24.9675 121.772 24.6226 121.772 24.1991L121.766 2.11647C121.802 1.71112 122.158 1.39652 122.594 1.39652H126.576C126.951 1.41466 127.259 1.66877 127.344 2.01362V5.38954H127.422C128.625 2.37057 130.311 0.930664 133.278 0.930664C135.206 0.930664 137.086 1.62642 138.294 3.53218C139.418 5.29879 139.418 8.26937 139.418 10.405V24.302C139.37 24.6892 139.013 24.9977 138.59 24.9977H134.281C133.889 24.9675 133.562 24.6771 133.52 24.302V12.3108C133.52 9.89683 133.798 6.3636 130.831 6.3636C129.785 6.3636 128.824 7.06541 128.347 8.13021C127.742 9.47937 127.664 10.8225 127.664 12.3108V24.1991C127.658 24.6408 127.283 24.9977 126.824 24.9977Z" fill="#221F1F"/>
<path id="use28" d="M69.5749 14.4525V13.5208C66.4686 13.5208 63.1871 14.1863 63.1871 17.8526C63.1871 19.7099 64.148 20.9684 65.7978 20.9684C67.0065 20.9684 68.0882 20.2242 68.7711 19.0142C69.6172 17.5259 69.5749 16.1283 69.5749 14.4525ZM73.908 24.9372C73.6239 25.1913 73.213 25.2094 72.8927 25.04C71.4665 23.8542 71.2126 23.3037 70.427 22.1723C68.0701 24.5802 66.4021 25.3002 63.3442 25.3002C59.7303 25.3002 56.9141 23.0677 56.9141 18.5967C56.9141 15.1059 58.8056 12.7282 61.4949 11.5666C63.8277 10.5381 67.085 10.3566 69.5749 10.0722V9.51563C69.5749 8.49317 69.6534 7.28316 69.0552 6.39986C68.5294 5.60731 67.5262 5.2806 66.6439 5.2806C65.0061 5.2806 63.5436 6.12156 63.1871 7.86397C63.1145 8.25117 62.8305 8.63233 62.4437 8.65048L58.2738 8.20277C57.9233 8.12413 57.5365 7.83977 57.6332 7.30132C58.5941 2.24349 63.1568 0.718872 67.2422 0.718872C69.3331 0.718872 72.0647 1.27548 73.7146 2.86059C75.8056 4.81475 75.6061 7.42232 75.6061 10.2598V16.9632C75.6061 18.9779 76.4401 19.8612 77.2258 20.9502C77.5038 21.3374 77.5642 21.8033 77.2137 22.0937C76.3374 22.8257 74.7782 24.187 73.9201 24.9493L73.908 24.9372Z" fill="#221F1F"/>
<path id="path30" d="M13.2448 14.4525V13.5208C10.1385 13.5208 6.85698 14.1863 6.85698 17.8526C6.85698 19.7099 7.81787 20.9684 9.46771 20.9684C10.6764 20.9684 11.7581 20.2242 12.441 19.0142C13.2871 17.5259 13.2448 16.1283 13.2448 14.4525ZM17.5779 24.9372C17.2939 25.1913 16.8829 25.2094 16.5626 25.04C15.1364 23.8542 14.8826 23.3037 14.0969 22.1723C11.74 24.5802 10.072 25.3002 7.01411 25.3002C3.40018 25.3002 0.583984 23.0677 0.583984 18.5967C0.583984 15.1059 2.47555 12.7282 5.16484 11.5666C7.49758 10.5381 10.7549 10.3566 13.2448 10.0722V9.51563C13.2448 8.49317 13.3234 7.28316 12.7251 6.39986C12.1993 5.60731 11.1961 5.2806 10.3138 5.2806C8.67603 5.2806 7.21354 6.12156 6.85698 7.86397C6.78446 8.25117 6.50042 8.63233 6.11365 8.65048L1.94374 8.20277C1.59322 8.12413 1.20645 7.83977 1.30314 7.30132C2.26404 2.24349 6.82676 0.718872 10.9121 0.718872C13.0031 0.718872 15.7347 1.27548 17.3845 2.86059C19.4755 4.81475 19.2761 7.42232 19.2761 10.2598V16.9632C19.2761 18.9779 20.1101 19.8612 20.8957 20.9502C21.1737 21.3374 21.2341 21.8033 20.8836 22.0937C20.0073 22.8257 18.4481 24.187 17.59 24.9493L17.5779 24.9372Z" fill="#221F1F"/>
</g>
</g>
</g>
</g>
</g>
<defs>
<clipPath id="clip0_1904_13175">
<rect width="1440" height="4269" fill="white" transform="translate(-414 -1962)"/>
</clipPath>
<clipPath id="clip1_1904_13175">
<rect width="139" height="42" fill="white" transform="translate(0.5 0.662109)"/>
</clipPath>
</defs>
</svg>
