<svg width="78" height="78" viewBox="0 0 78 78" fill="none" xmlns="http://www.w3.org/2000/svg">
<g clip-path="url(#clip0_3474_68071)">
<path fill-rule="evenodd" clip-rule="evenodd" d="M0 0H78.0001V78H0V0Z" fill="#15734E"/>
<path fill-rule="evenodd" clip-rule="evenodd" d="M28.1889 32.6157C31.5936 27.8421 38.8086 26.7033 43.625 29.9521C42.8178 31.1415 42.065 32.3701 41.2851 33.5791C38.9293 31.8826 35.5247 31.8358 33.1887 33.5908C30.3924 35.4901 29.4523 39.5968 31.3011 42.467C33.2549 45.8524 38.2469 46.9093 41.3007 44.3782C43.9098 42.467 43.8941 38.9767 44.7638 36.157C45.8091 32.6041 48.6873 29.5621 52.2908 28.5676C55.5357 27.6588 59.2094 28.0918 62.0135 30.0223C61.2219 31.2196 60.473 32.4403 59.7048 33.6493C58.0356 32.452 55.8242 31.9762 53.8313 32.5417C50.8596 33.2905 48.6911 36.3091 48.9017 39.3628C48.9719 42.7558 51.9398 45.8173 55.3719 45.8133C58.1837 45.9693 60.6446 43.871 61.4714 41.2699C59.2952 41.2426 57.123 41.2816 54.9506 41.2503C55.6877 39.8463 56.6237 38.5633 57.4622 37.2217C60.3093 37.2333 63.1602 37.1866 66.0071 37.2529C66.5454 41.1841 65.0594 45.4001 61.8419 47.8063C57.1424 51.5621 49.557 50.2865 46.2147 45.3298C44.4284 47.779 41.6711 49.5418 38.6409 49.885C35.0451 50.431 31.2816 49.0661 28.8167 46.4061C27.6351 48.2081 25.6109 49.4676 23.4269 49.495C19.6206 49.5845 15.8024 49.6276 11.9961 49.4793C12.0311 42.5101 12.0194 35.5447 12.0038 28.5754C15.4281 28.5637 18.8521 28.5481 22.2763 28.5793C24.7958 28.6301 27.3542 30.1666 28.1889 32.6157ZM16.5551 32.5144C16.6059 34.012 16.5864 35.5096 16.5824 37.0111C18.3451 37.0033 20.1081 37.0423 21.8709 37.0033C23.0836 37.0423 24.1952 35.9151 24.0938 34.6984C24.1366 33.5089 23.0447 32.4364 21.8631 32.4753C20.0924 32.4442 18.3218 32.4403 16.5551 32.5144ZM16.5981 40.8526C16.5747 42.4555 16.5787 44.0546 16.5981 45.6573C18.6104 45.6418 20.6229 45.6808 22.6313 45.6534C23.8286 45.7196 25.0494 44.8694 25.2286 43.6564C25.5291 42.3032 24.3746 40.9499 23.0214 40.8954C20.8842 40.8173 18.7392 40.9111 16.5981 40.8526Z" fill="#FEFEFE"/>
</g>
<defs>
<clipPath id="clip0_3474_68071">
<rect width="78" height="78" fill="white"/>
</clipPath>
</defs>
</svg>
