<svg width="150" height="27" viewBox="0 0 150 27" fill="none" xmlns="http://www.w3.org/2000/svg">
<g clip-path="url(#clip0_2481_53224)">
<path d="M0 1.68494L4.58125 3.01463V21.4258L0 22.7555V1.68494Z" fill="#3259B4"/>
<path d="M7.22852 11.0951L11.708 12.2202V22.1418L7.22852 23.0623V11.0951Z" fill="#3C8CFF"/>
<path d="M14.8633 9.15171L19.0373 8.02658V20.1984L14.8633 18.971V9.15171Z" fill="#00C8D2"/>
<path d="M21.7861 0.662109L26.3674 1.9918V22.6532L21.7861 23.7783V0.662109Z" fill="#78E6DD"/>
<path d="M139.532 14.5895H147.615C147.479 13.5618 147.042 12.7292 146.304 12.0917C145.565 11.4541 144.668 11.1353 143.613 11.1353C142.543 11.1353 141.623 11.4616 140.854 12.1142C140.093 12.7593 139.652 13.5843 139.532 14.5895ZM139.532 16.2997C139.607 17.4098 140.044 18.3099 140.843 19C141.65 19.69 142.663 20.0351 143.884 20.0351C144.668 20.0351 145.399 19.8701 146.077 19.54C146.756 19.21 147.378 18.7224 147.943 18.0774L149.492 19.315C148.715 20.2151 147.864 20.8789 146.937 21.3065C146.017 21.734 144.977 21.9478 143.816 21.9478C142.859 21.9478 141.966 21.7753 141.137 21.4302C140.308 21.0852 139.596 20.5939 139 19.9563C138.48 19.3938 138.081 18.7449 137.802 18.0098C137.523 17.2673 137.384 16.4909 137.384 15.6808C137.384 13.7606 137.96 12.2079 139.113 11.0228C140.267 9.83767 141.774 9.24511 143.636 9.24511C145.535 9.24511 147.069 9.87893 148.237 11.1466C149.413 12.4067 150 14.0719 150 16.1421V16.2997H139.532ZM134.791 12.3617C134.417 11.9417 133.989 11.6341 133.507 11.4391C133.033 11.2366 132.491 11.1353 131.879 11.1353C130.695 11.1353 129.72 11.5554 128.956 12.3955C128.199 13.2281 127.821 14.2969 127.821 15.6021C127.821 16.9072 128.195 17.9723 128.944 18.7974C129.701 19.6225 130.679 20.0351 131.879 20.0351C132.529 20.0351 133.102 19.9226 133.599 19.6975C134.104 19.4725 134.532 19.1387 134.883 18.6962L136.293 20.2826C135.651 20.8602 134.975 21.284 134.264 21.554C133.561 21.8165 132.766 21.9478 131.879 21.9478C130.97 21.9478 130.129 21.7978 129.357 21.4977C128.585 21.1977 127.916 20.7627 127.351 20.1926C126.747 19.5925 126.288 18.9062 125.975 18.1336C125.669 17.3535 125.516 16.5097 125.516 15.6021C125.516 14.6945 125.669 13.8506 125.975 13.0705C126.288 12.2905 126.747 11.6004 127.351 11.0003C127.924 10.4227 128.593 9.98769 129.357 9.69516C130.121 9.39512 130.962 9.24511 131.879 9.24511C132.751 9.24511 133.538 9.37262 134.241 9.62765C134.952 9.88268 135.598 10.269 136.179 10.7865L134.791 12.3617ZM113.918 21.644V9.54889H116.064V10.9328C116.604 10.3852 117.171 9.98019 117.765 9.71766C118.366 9.44763 119.009 9.31261 119.694 9.31261C121.102 9.31261 122.213 9.78517 123.027 10.7303C123.841 11.6754 124.248 12.9768 124.248 14.6345V21.644H122.079V14.8482C122.079 13.5806 121.855 12.6542 121.406 12.0692C120.965 11.4766 120.268 11.1803 119.317 11.1803C118.236 11.1803 117.422 11.4954 116.874 12.1254C116.334 12.748 116.064 13.6856 116.064 14.9383V21.644H113.918ZM105.662 19.9563C106.871 19.9563 107.866 19.5475 108.646 18.7299C109.425 17.9123 109.815 16.8622 109.815 15.5796C109.815 14.3044 109.425 13.2581 108.646 12.4405C107.866 11.6154 106.871 11.2028 105.662 11.2028C104.452 11.2028 103.457 11.6116 102.677 12.4292C101.898 13.2468 101.508 14.2969 101.508 15.5796C101.508 16.8697 101.898 17.9236 102.677 18.7412C103.457 19.5513 104.452 19.9563 105.662 19.9563ZM111.819 21.644H109.703V19.6638C109.199 20.3764 108.582 20.9127 107.855 21.2727C107.135 21.6253 106.307 21.8015 105.372 21.8015C104.541 21.8015 103.746 21.644 102.989 21.329C102.239 21.0064 101.571 20.5414 100.985 19.9338C100.428 19.3488 100.009 18.6887 99.7268 17.9536C99.4447 17.2185 99.3037 16.4197 99.3037 15.5571C99.3037 13.6894 99.8567 12.1817 100.963 11.0341C102.076 9.88643 103.546 9.31261 105.372 9.31261C106.292 9.31261 107.135 9.50389 107.9 9.88643C108.664 10.2615 109.317 10.809 109.859 11.5291V9.54889H111.819V21.644ZM86.7567 6.11725V19.5738H88.4217C90.8489 19.5738 92.6768 19.0075 93.9052 17.8748C95.141 16.7422 95.7589 15.0658 95.7589 12.8455C95.7589 10.6178 95.141 8.94132 93.9052 7.81619C92.6768 6.68357 90.8489 6.11725 88.4217 6.11725H86.7567ZM88.0776 4.03577C91.3336 4.03577 93.8089 4.78585 95.5036 6.28602C97.2056 7.77869 98.0566 9.96519 98.0566 12.8455C98.0566 15.7183 97.2056 17.9048 95.5036 19.405C93.8089 20.8977 91.3336 21.644 88.0776 21.644H84.4812V4.03577H88.0776ZM70.9609 14.5895H78.9138C78.7803 13.5618 78.3502 12.7292 77.6235 12.0917C76.8968 11.4541 76.0144 11.1353 74.9763 11.1353C73.9233 11.1353 73.0187 11.4616 72.2623 12.1142C71.5134 12.7593 71.0796 13.5843 70.9609 14.5895ZM70.9609 16.2997C71.0351 17.4098 71.4652 18.3099 72.2512 19C73.0446 19.69 74.042 20.0351 75.2432 20.0351C76.0144 20.0351 76.7337 19.8701 77.4011 19.54C78.0685 19.21 78.6802 18.7224 79.2364 18.0774L80.7602 19.315C79.9964 20.2151 79.1585 20.8789 78.2464 21.3065C77.3418 21.734 76.3184 21.9478 75.1765 21.9478C74.2348 21.9478 73.356 21.7753 72.5404 21.4302C71.7247 21.0852 71.024 20.5939 70.4381 19.9563C69.9265 19.3938 69.5335 18.7449 69.2591 18.0098C68.9848 17.2673 68.8476 16.4909 68.8476 15.6808C68.8476 13.7606 69.4148 12.2079 70.5494 11.0228C71.6839 9.83767 73.167 9.24511 74.9985 9.24511C76.8672 9.24511 78.3762 9.87893 79.5256 11.1466C80.6823 12.4067 81.2607 14.0719 81.2607 16.1421V16.2997H70.9609ZM62.9265 6.60111V9.54892H61.1266H58.7204L55.4853 17.1998C55.4316 17.3273 55.3279 17.6122 55.1744 18.0548C55.0286 18.4898 54.8483 19.0262 54.6334 19.6638C54.4416 18.9887 54.2765 18.4373 54.1383 18.0098C54.0078 17.5822 53.9157 17.3123 53.862 17.1998L50.6729 9.54892H48.2208L53.39 21.6439L51.2141 26.6621H53.436L60.3521 11.2723L62.9265 11.349V19.135C62.9265 20.1476 63.1861 20.8713 63.7052 21.3064C64.2243 21.7339 65.0966 21.9477 66.322 21.9477H67.6879V19.9113H66.4114C66.0455 19.9113 65.7774 19.8288 65.6072 19.6638C65.4455 19.4988 65.3646 19.2362 65.3646 18.8762V11.349H67.6879V9.54892H65.3646V6.60111H62.9265ZM35.0273 21.644V4.03577H38.4228C39.7333 4.03577 40.7673 4.09577 41.5247 4.21579C42.2906 4.3283 42.9246 4.51582 43.4267 4.77835C44.2862 5.2284 44.9372 5.79847 45.3797 6.48854C45.8307 7.17112 46.0562 7.94371 46.0562 8.80631C46.0562 9.51889 45.8478 10.1715 45.4308 10.764C45.0223 11.3566 44.4394 11.8404 43.682 12.2154C44.9244 12.5755 45.8648 13.138 46.503 13.9031C47.1498 14.6607 47.4732 15.5983 47.4732 16.716C47.4732 18.1036 46.8519 19.2737 45.6095 20.2264C44.3755 21.1715 42.8352 21.644 40.9886 21.644H35.0273ZM37.6186 11.6191H39.7631C40.9545 11.6191 41.8736 11.3753 42.5204 10.8878C43.1756 10.4002 43.5033 9.71391 43.5033 8.82881C43.5033 7.8987 43.1756 7.19737 42.5204 6.72482C41.8651 6.25227 40.8864 6.01599 39.5844 6.01599H37.6186V11.6191ZM37.6186 19.5738H40.261C41.7502 19.5738 42.8778 19.3225 43.6437 18.8199C44.4181 18.3174 44.8053 17.5748 44.8053 16.5922C44.8053 15.6246 44.4308 14.8932 43.682 14.3982C42.9331 13.8956 41.8268 13.6444 40.3631 13.6444H37.6186V19.5738Z" fill="#3259B4"/>
</g>
<defs>
<clipPath id="clip0_2481_53224">
<rect width="150" height="26" fill="white" transform="translate(0 0.662109)"/>
</clipPath>
</defs>
</svg>
