<svg width="25" height="26" viewBox="0 0 25 26" fill="none" xmlns="http://www.w3.org/2000/svg">
<path d="M22.7042 8.69136L10.2042 21.1914C10.0953 21.3006 9.96594 21.3873 9.8235 21.4464C9.68106 21.5056 9.52834 21.536 9.3741 21.536C9.21987 21.536 9.06715 21.5056 8.92471 21.4464C8.78226 21.3873 8.6529 21.3006 8.54402 21.1914L3.07527 15.7226C2.96627 15.6136 2.8798 15.4842 2.8208 15.3418C2.76181 15.1993 2.73145 15.0467 2.73145 14.8925C2.73145 14.7384 2.76181 14.5857 2.8208 14.4433C2.8798 14.3009 2.96627 14.1715 3.07527 14.0625C3.18428 13.9535 3.31369 13.867 3.45612 13.808C3.59854 13.749 3.75119 13.7186 3.90535 13.7186C4.05951 13.7186 4.21216 13.749 4.35459 13.808C4.49701 13.867 4.62642 13.9535 4.73543 14.0625L9.37508 18.7021L21.046 7.03316C21.2661 6.81301 21.5647 6.68933 21.8761 6.68933C22.1874 6.68933 22.486 6.81301 22.7061 7.03316C22.9263 7.25331 23.05 7.5519 23.05 7.86324C23.05 8.17458 22.9263 8.47317 22.7061 8.69332L22.7042 8.69136Z" fill="#62104B"/>
</svg>
