<svg width="20" height="21" viewBox="0 0 20 21" fill="none" xmlns="http://www.w3.org/2000/svg">
<path d="M16.2882 15.7117C16.4644 15.8879 16.5633 16.1267 16.5633 16.3758C16.5633 16.6249 16.4644 16.8637 16.2882 17.0399C16.1121 17.216 15.8733 17.3149 15.6242 17.3149C15.3751 17.3149 15.1362 17.216 14.9601 17.0399L9.99997 12.0781L5.03825 17.0383C4.86213 17.2144 4.62326 17.3134 4.37418 17.3134C4.12511 17.3134 3.88624 17.2144 3.71012 17.0383C3.534 16.8622 3.43506 16.6233 3.43506 16.3742C3.43506 16.1252 3.534 15.8863 3.71012 15.7102L8.67184 10.75L3.71168 5.7883C3.53556 5.61218 3.43662 5.37331 3.43662 5.12423C3.43662 4.87516 3.53556 4.63629 3.71168 4.46017C3.8878 4.28405 4.12668 4.18511 4.37575 4.18511C4.62482 4.18511 4.86369 4.28405 5.03981 4.46017L9.99997 9.42189L14.9617 4.45939C15.1378 4.28327 15.3767 4.18433 15.6257 4.18433C15.8748 4.18433 16.1137 4.28327 16.2898 4.45939C16.4659 4.63551 16.5649 4.87438 16.5649 5.12345C16.5649 5.37252 16.4659 5.61139 16.2898 5.78752L11.3281 10.75L16.2882 15.7117Z" fill="#7C144C"/>
</svg>
