<svg width="88" height="89" viewBox="0 0 88 89" fill="none" xmlns="http://www.w3.org/2000/svg">
<path d="M4.46647 4.6311V2.96444C4.46647 2.87603 4.43135 2.79125 4.36884 2.72873C4.30633 2.66622 4.22154 2.6311 4.13314 2.6311C4.04473 2.6311 3.95995 2.66622 3.89744 2.72873C3.83492 2.79125 3.7998 2.87603 3.7998 2.96444V4.6311H2.13314C2.04473 4.6311 1.95995 4.66622 1.89744 4.72873C1.83492 4.79125 1.7998 4.87603 1.7998 4.96444C1.7998 5.05284 1.83492 5.13763 1.89744 5.20014C1.95995 5.26265 2.04473 5.29777 2.13314 5.29777H3.7998V6.96444C3.7998 7.05284 3.83492 7.13763 3.89744 7.20014C3.95995 7.26265 4.04473 7.29777 4.13314 7.29777C4.22154 7.29777 4.30633 7.26265 4.36884 7.20014C4.43135 7.13763 4.46647 7.05284 4.46647 6.96444V5.29777H6.13314C6.22154 5.29777 6.30633 5.26265 6.36884 5.20014C6.43135 5.13763 6.46647 5.05284 6.46647 4.96444C6.46647 4.87603 6.43135 4.79125 6.36884 4.72873C6.30633 4.66622 6.22154 4.6311 6.13314 4.6311H4.46647Z" fill="#D8B8C9"/>
<path d="M20.4665 4.6311V2.96444C20.4665 2.87603 20.4314 2.79125 20.3688 2.72873C20.3063 2.66622 20.2215 2.6311 20.1331 2.6311C20.0447 2.6311 19.9599 2.66622 19.8974 2.72873C19.8349 2.79125 19.7998 2.87603 19.7998 2.96444V4.6311H18.1331C18.0447 4.6311 17.9599 4.66622 17.8974 4.72873C17.8349 4.79125 17.7998 4.87603 17.7998 4.96444C17.7998 5.05284 17.8349 5.13763 17.8974 5.20014C17.9599 5.26265 18.0447 5.29777 18.1331 5.29777H19.7998V6.96444C19.7998 7.05284 19.8349 7.13763 19.8974 7.20014C19.9599 7.26265 20.0447 7.29777 20.1331 7.29777C20.2215 7.29777 20.3063 7.26265 20.3688 7.20014C20.4314 7.13763 20.4665 7.05284 20.4665 6.96444V5.29777H22.1331C22.2215 5.29777 22.3063 5.26265 22.3688 5.20014C22.4314 5.13763 22.4665 5.05284 22.4665 4.96444C22.4665 4.87603 22.4314 4.79125 22.3688 4.72873C22.3063 4.66622 22.2215 4.6311 22.1331 4.6311H20.4665Z" fill="#D8B8C9"/>
<path d="M36.4665 4.6311V2.96444C36.4665 2.87603 36.4314 2.79125 36.3688 2.72873C36.3063 2.66622 36.2215 2.6311 36.1331 2.6311C36.0447 2.6311 35.9599 2.66622 35.8974 2.72873C35.8349 2.79125 35.7998 2.87603 35.7998 2.96444V4.6311H34.1331C34.0447 4.6311 33.9599 4.66622 33.8974 4.72873C33.8349 4.79125 33.7998 4.87603 33.7998 4.96444C33.7998 5.05284 33.8349 5.13763 33.8974 5.20014C33.9599 5.26265 34.0447 5.29777 34.1331 5.29777H35.7998V6.96444C35.7998 7.05284 35.8349 7.13763 35.8974 7.20014C35.9599 7.26265 36.0447 7.29777 36.1331 7.29777C36.2215 7.29777 36.3063 7.26265 36.3688 7.20014C36.4314 7.13763 36.4665 7.05284 36.4665 6.96444V5.29777H38.1331C38.2215 5.29777 38.3063 5.26265 38.3688 5.20014C38.4314 5.13763 38.4665 5.05284 38.4665 4.96444C38.4665 4.87603 38.4314 4.79125 38.3688 4.72873C38.3063 4.66622 38.2215 4.6311 38.1331 4.6311H36.4665Z" fill="#D8B8C9"/>
<path d="M52.4665 4.6311V2.96444C52.4665 2.87603 52.4314 2.79125 52.3688 2.72873C52.3063 2.66622 52.2215 2.6311 52.1331 2.6311C52.0447 2.6311 51.9599 2.66622 51.8974 2.72873C51.8349 2.79125 51.7998 2.87603 51.7998 2.96444V4.6311H50.1331C50.0447 4.6311 49.9599 4.66622 49.8974 4.72873C49.8349 4.79125 49.7998 4.87603 49.7998 4.96444C49.7998 5.05284 49.8349 5.13763 49.8974 5.20014C49.9599 5.26265 50.0447 5.29777 50.1331 5.29777H51.7998V6.96444C51.7998 7.05284 51.8349 7.13763 51.8974 7.20014C51.9599 7.26265 52.0447 7.29777 52.1331 7.29777C52.2215 7.29777 52.3063 7.26265 52.3688 7.20014C52.4314 7.13763 52.4665 7.05284 52.4665 6.96444V5.29777H54.1331C54.2215 5.29777 54.3063 5.26265 54.3688 5.20014C54.4314 5.13763 54.4665 5.05284 54.4665 4.96444C54.4665 4.87603 54.4314 4.79125 54.3688 4.72873C54.3063 4.66622 54.2215 4.6311 54.1331 4.6311H52.4665Z" fill="#D8B8C9"/>
<path d="M68.4665 4.6311V2.96444C68.4665 2.87603 68.4314 2.79125 68.3688 2.72873C68.3063 2.66622 68.2215 2.6311 68.1331 2.6311C68.0447 2.6311 67.9599 2.66622 67.8974 2.72873C67.8349 2.79125 67.7998 2.87603 67.7998 2.96444V4.6311H66.1331C66.0447 4.6311 65.9599 4.66622 65.8974 4.72873C65.8349 4.79125 65.7998 4.87603 65.7998 4.96444C65.7998 5.05284 65.8349 5.13763 65.8974 5.20014C65.9599 5.26265 66.0447 5.29777 66.1331 5.29777H67.7998V6.96444C67.7998 7.05284 67.8349 7.13763 67.8974 7.20014C67.9599 7.26265 68.0447 7.29777 68.1331 7.29777C68.2215 7.29777 68.3063 7.26265 68.3688 7.20014C68.4314 7.13763 68.4665 7.05284 68.4665 6.96444V5.29777H70.1331C70.2215 5.29777 70.3063 5.26265 70.3688 5.20014C70.4314 5.13763 70.4665 5.05284 70.4665 4.96444C70.4665 4.87603 70.4314 4.79125 70.3688 4.72873C70.3063 4.66622 70.2215 4.6311 70.1331 4.6311H68.4665Z" fill="#D8B8C9"/>
<path d="M84.4665 4.6311V2.96444C84.4665 2.87603 84.4314 2.79125 84.3688 2.72873C84.3063 2.66622 84.2215 2.6311 84.1331 2.6311C84.0447 2.6311 83.9599 2.66622 83.8974 2.72873C83.8349 2.79125 83.7998 2.87603 83.7998 2.96444V4.6311H82.1331C82.0447 4.6311 81.9599 4.66622 81.8974 4.72873C81.8349 4.79125 81.7998 4.87603 81.7998 4.96444C81.7998 5.05284 81.8349 5.13763 81.8974 5.20014C81.9599 5.26265 82.0447 5.29777 82.1331 5.29777H83.7998V6.96444C83.7998 7.05284 83.8349 7.13763 83.8974 7.20014C83.9599 7.26265 84.0447 7.29777 84.1331 7.29777C84.2215 7.29777 84.3063 7.26265 84.3688 7.20014C84.4314 7.13763 84.4665 7.05284 84.4665 6.96444V5.29777H86.1331C86.2215 5.29777 86.3063 5.26265 86.3688 5.20014C86.4314 5.13763 86.4665 5.05284 86.4665 4.96444C86.4665 4.87603 86.4314 4.79125 86.3688 4.72873C86.3063 4.66622 86.2215 4.6311 86.1331 4.6311H84.4665Z" fill="#D8B8C9"/>
<path d="M4.46647 20.631V18.9644C4.46647 18.876 4.43135 18.7912 4.36884 18.7287C4.30633 18.6662 4.22154 18.631 4.13314 18.631C4.04473 18.631 3.95995 18.6662 3.89744 18.7287C3.83492 18.7912 3.7998 18.876 3.7998 18.9644V20.631H2.13314C2.04473 20.631 1.95995 20.6662 1.89744 20.7287C1.83492 20.7912 1.7998 20.876 1.7998 20.9644C1.7998 21.0528 1.83492 21.1376 1.89744 21.2001C1.95995 21.2626 2.04473 21.2977 2.13314 21.2977H3.7998V22.9644C3.7998 23.0528 3.83492 23.1376 3.89744 23.2001C3.95995 23.2626 4.04473 23.2977 4.13314 23.2977C4.22154 23.2977 4.30633 23.2626 4.36884 23.2001C4.43135 23.1376 4.46647 23.0528 4.46647 22.9644V21.2977H6.13314C6.22154 21.2977 6.30633 21.2626 6.36884 21.2001C6.43135 21.1376 6.46647 21.0528 6.46647 20.9644C6.46647 20.876 6.43135 20.7912 6.36884 20.7287C6.30633 20.6662 6.22154 20.631 6.13314 20.631H4.46647Z" fill="#D8B8C9"/>
<path d="M20.4665 20.631V18.9644C20.4665 18.876 20.4314 18.7912 20.3688 18.7287C20.3063 18.6662 20.2215 18.631 20.1331 18.631C20.0447 18.631 19.9599 18.6662 19.8974 18.7287C19.8349 18.7912 19.7998 18.876 19.7998 18.9644V20.631H18.1331C18.0447 20.631 17.9599 20.6662 17.8974 20.7287C17.8349 20.7912 17.7998 20.876 17.7998 20.9644C17.7998 21.0528 17.8349 21.1376 17.8974 21.2001C17.9599 21.2626 18.0447 21.2977 18.1331 21.2977H19.7998V22.9644C19.7998 23.0528 19.8349 23.1376 19.8974 23.2001C19.9599 23.2626 20.0447 23.2977 20.1331 23.2977C20.2215 23.2977 20.3063 23.2626 20.3688 23.2001C20.4314 23.1376 20.4665 23.0528 20.4665 22.9644V21.2977H22.1331C22.2215 21.2977 22.3063 21.2626 22.3688 21.2001C22.4314 21.1376 22.4665 21.0528 22.4665 20.9644C22.4665 20.876 22.4314 20.7912 22.3688 20.7287C22.3063 20.6662 22.2215 20.631 22.1331 20.631H20.4665Z" fill="#D8B8C9"/>
<path d="M36.4665 20.631V18.9644C36.4665 18.876 36.4314 18.7912 36.3688 18.7287C36.3063 18.6662 36.2215 18.631 36.1331 18.631C36.0447 18.631 35.9599 18.6662 35.8974 18.7287C35.8349 18.7912 35.7998 18.876 35.7998 18.9644V20.631H34.1331C34.0447 20.631 33.9599 20.6662 33.8974 20.7287C33.8349 20.7912 33.7998 20.876 33.7998 20.9644C33.7998 21.0528 33.8349 21.1376 33.8974 21.2001C33.9599 21.2626 34.0447 21.2977 34.1331 21.2977H35.7998V22.9644C35.7998 23.0528 35.8349 23.1376 35.8974 23.2001C35.9599 23.2626 36.0447 23.2977 36.1331 23.2977C36.2215 23.2977 36.3063 23.2626 36.3688 23.2001C36.4314 23.1376 36.4665 23.0528 36.4665 22.9644V21.2977H38.1331C38.2215 21.2977 38.3063 21.2626 38.3688 21.2001C38.4314 21.1376 38.4665 21.0528 38.4665 20.9644C38.4665 20.876 38.4314 20.7912 38.3688 20.7287C38.3063 20.6662 38.2215 20.631 38.1331 20.631H36.4665Z" fill="#D8B8C9"/>
<path d="M52.4665 20.631V18.9644C52.4665 18.876 52.4314 18.7912 52.3688 18.7287C52.3063 18.6662 52.2215 18.631 52.1331 18.631C52.0447 18.631 51.9599 18.6662 51.8974 18.7287C51.8349 18.7912 51.7998 18.876 51.7998 18.9644V20.631H50.1331C50.0447 20.631 49.9599 20.6662 49.8974 20.7287C49.8349 20.7912 49.7998 20.876 49.7998 20.9644C49.7998 21.0528 49.8349 21.1376 49.8974 21.2001C49.9599 21.2626 50.0447 21.2977 50.1331 21.2977H51.7998V22.9644C51.7998 23.0528 51.8349 23.1376 51.8974 23.2001C51.9599 23.2626 52.0447 23.2977 52.1331 23.2977C52.2215 23.2977 52.3063 23.2626 52.3688 23.2001C52.4314 23.1376 52.4665 23.0528 52.4665 22.9644V21.2977H54.1331C54.2215 21.2977 54.3063 21.2626 54.3688 21.2001C54.4314 21.1376 54.4665 21.0528 54.4665 20.9644C54.4665 20.876 54.4314 20.7912 54.3688 20.7287C54.3063 20.6662 54.2215 20.631 54.1331 20.631H52.4665Z" fill="#D8B8C9"/>
<path d="M68.4665 20.631V18.9644C68.4665 18.876 68.4314 18.7912 68.3688 18.7287C68.3063 18.6662 68.2215 18.631 68.1331 18.631C68.0447 18.631 67.9599 18.6662 67.8974 18.7287C67.8349 18.7912 67.7998 18.876 67.7998 18.9644V20.631H66.1331C66.0447 20.631 65.9599 20.6662 65.8974 20.7287C65.8349 20.7912 65.7998 20.876 65.7998 20.9644C65.7998 21.0528 65.8349 21.1376 65.8974 21.2001C65.9599 21.2626 66.0447 21.2977 66.1331 21.2977H67.7998V22.9644C67.7998 23.0528 67.8349 23.1376 67.8974 23.2001C67.9599 23.2626 68.0447 23.2977 68.1331 23.2977C68.2215 23.2977 68.3063 23.2626 68.3688 23.2001C68.4314 23.1376 68.4665 23.0528 68.4665 22.9644V21.2977H70.1331C70.2215 21.2977 70.3063 21.2626 70.3688 21.2001C70.4314 21.1376 70.4665 21.0528 70.4665 20.9644C70.4665 20.876 70.4314 20.7912 70.3688 20.7287C70.3063 20.6662 70.2215 20.631 70.1331 20.631H68.4665Z" fill="#FFA1D1"/>
<path d="M84.4665 20.631V18.9644C84.4665 18.876 84.4314 18.7912 84.3688 18.7287C84.3063 18.6662 84.2215 18.631 84.1331 18.631C84.0447 18.631 83.9599 18.6662 83.8974 18.7287C83.8349 18.7912 83.7998 18.876 83.7998 18.9644V20.631H82.1331C82.0447 20.631 81.9599 20.6662 81.8974 20.7287C81.8349 20.7912 81.7998 20.876 81.7998 20.9644C81.7998 21.0528 81.8349 21.1376 81.8974 21.2001C81.9599 21.2626 82.0447 21.2977 82.1331 21.2977H83.7998V22.9644C83.7998 23.0528 83.8349 23.1376 83.8974 23.2001C83.9599 23.2626 84.0447 23.2977 84.1331 23.2977C84.2215 23.2977 84.3063 23.2626 84.3688 23.2001C84.4314 23.1376 84.4665 23.0528 84.4665 22.9644V21.2977H86.1331C86.2215 21.2977 86.3063 21.2626 86.3688 21.2001C86.4314 21.1376 86.4665 21.0528 86.4665 20.9644C86.4665 20.876 86.4314 20.7912 86.3688 20.7287C86.3063 20.6662 86.2215 20.631 86.1331 20.631H84.4665Z" fill="#D8B8C9"/>
<path d="M4.46647 36.631V34.9644C4.46647 34.876 4.43135 34.7912 4.36884 34.7287C4.30633 34.6662 4.22154 34.631 4.13314 34.631C4.04473 34.631 3.95995 34.6662 3.89744 34.7287C3.83492 34.7912 3.7998 34.876 3.7998 34.9644V36.631H2.13314C2.04473 36.631 1.95995 36.6662 1.89744 36.7287C1.83492 36.7912 1.7998 36.876 1.7998 36.9644C1.7998 37.0528 1.83492 37.1376 1.89744 37.2001C1.95995 37.2626 2.04473 37.2977 2.13314 37.2977H3.7998V38.9644C3.7998 39.0528 3.83492 39.1376 3.89744 39.2001C3.95995 39.2626 4.04473 39.2977 4.13314 39.2977C4.22154 39.2977 4.30633 39.2626 4.36884 39.2001C4.43135 39.1376 4.46647 39.0528 4.46647 38.9644V37.2977H6.13314C6.22154 37.2977 6.30633 37.2626 6.36884 37.2001C6.43135 37.1376 6.46647 37.0528 6.46647 36.9644C6.46647 36.876 6.43135 36.7912 6.36884 36.7287C6.30633 36.6662 6.22154 36.631 6.13314 36.631H4.46647Z" fill="#D8B8C9"/>
<path d="M20.4665 36.631V34.9644C20.4665 34.876 20.4314 34.7912 20.3688 34.7287C20.3063 34.6662 20.2215 34.631 20.1331 34.631C20.0447 34.631 19.9599 34.6662 19.8974 34.7287C19.8349 34.7912 19.7998 34.876 19.7998 34.9644V36.631H18.1331C18.0447 36.631 17.9599 36.6662 17.8974 36.7287C17.8349 36.7912 17.7998 36.876 17.7998 36.9644C17.7998 37.0528 17.8349 37.1376 17.8974 37.2001C17.9599 37.2626 18.0447 37.2977 18.1331 37.2977H19.7998V38.9644C19.7998 39.0528 19.8349 39.1376 19.8974 39.2001C19.9599 39.2626 20.0447 39.2977 20.1331 39.2977C20.2215 39.2977 20.3063 39.2626 20.3688 39.2001C20.4314 39.1376 20.4665 39.0528 20.4665 38.9644V37.2977H22.1331C22.2215 37.2977 22.3063 37.2626 22.3688 37.2001C22.4314 37.1376 22.4665 37.0528 22.4665 36.9644C22.4665 36.876 22.4314 36.7912 22.3688 36.7287C22.3063 36.6662 22.2215 36.631 22.1331 36.631H20.4665Z" fill="#D8B8C9"/>
<path d="M36.4665 36.631V34.9644C36.4665 34.876 36.4314 34.7912 36.3688 34.7287C36.3063 34.6662 36.2215 34.631 36.1331 34.631C36.0447 34.631 35.9599 34.6662 35.8974 34.7287C35.8349 34.7912 35.7998 34.876 35.7998 34.9644V36.631H34.1331C34.0447 36.631 33.9599 36.6662 33.8974 36.7287C33.8349 36.7912 33.7998 36.876 33.7998 36.9644C33.7998 37.0528 33.8349 37.1376 33.8974 37.2001C33.9599 37.2626 34.0447 37.2977 34.1331 37.2977H35.7998V38.9644C35.7998 39.0528 35.8349 39.1376 35.8974 39.2001C35.9599 39.2626 36.0447 39.2977 36.1331 39.2977C36.2215 39.2977 36.3063 39.2626 36.3688 39.2001C36.4314 39.1376 36.4665 39.0528 36.4665 38.9644V37.2977H38.1331C38.2215 37.2977 38.3063 37.2626 38.3688 37.2001C38.4314 37.1376 38.4665 37.0528 38.4665 36.9644C38.4665 36.876 38.4314 36.7912 38.3688 36.7287C38.3063 36.6662 38.2215 36.631 38.1331 36.631H36.4665Z" fill="#D8B8C9"/>
<path d="M52.4665 36.631V34.9644C52.4665 34.876 52.4314 34.7912 52.3688 34.7287C52.3063 34.6662 52.2215 34.631 52.1331 34.631C52.0447 34.631 51.9599 34.6662 51.8974 34.7287C51.8349 34.7912 51.7998 34.876 51.7998 34.9644V36.631H50.1331C50.0447 36.631 49.9599 36.6662 49.8974 36.7287C49.8349 36.7912 49.7998 36.876 49.7998 36.9644C49.7998 37.0528 49.8349 37.1376 49.8974 37.2001C49.9599 37.2626 50.0447 37.2977 50.1331 37.2977H51.7998V38.9644C51.7998 39.0528 51.8349 39.1376 51.8974 39.2001C51.9599 39.2626 52.0447 39.2977 52.1331 39.2977C52.2215 39.2977 52.3063 39.2626 52.3688 39.2001C52.4314 39.1376 52.4665 39.0528 52.4665 38.9644V37.2977H54.1331C54.2215 37.2977 54.3063 37.2626 54.3688 37.2001C54.4314 37.1376 54.4665 37.0528 54.4665 36.9644C54.4665 36.876 54.4314 36.7912 54.3688 36.7287C54.3063 36.6662 54.2215 36.631 54.1331 36.631H52.4665Z" fill="#D8B8C9"/>
<path d="M68.4665 36.631V34.9644C68.4665 34.876 68.4314 34.7912 68.3688 34.7287C68.3063 34.6662 68.2215 34.631 68.1331 34.631C68.0447 34.631 67.9599 34.6662 67.8974 34.7287C67.8349 34.7912 67.7998 34.876 67.7998 34.9644V36.631H66.1331C66.0447 36.631 65.9599 36.6662 65.8974 36.7287C65.8349 36.7912 65.7998 36.876 65.7998 36.9644C65.7998 37.0528 65.8349 37.1376 65.8974 37.2001C65.9599 37.2626 66.0447 37.2977 66.1331 37.2977H67.7998V38.9644C67.7998 39.0528 67.8349 39.1376 67.8974 39.2001C67.9599 39.2626 68.0447 39.2977 68.1331 39.2977C68.2215 39.2977 68.3063 39.2626 68.3688 39.2001C68.4314 39.1376 68.4665 39.0528 68.4665 38.9644V37.2977H70.1331C70.2215 37.2977 70.3063 37.2626 70.3688 37.2001C70.4314 37.1376 70.4665 37.0528 70.4665 36.9644C70.4665 36.876 70.4314 36.7912 70.3688 36.7287C70.3063 36.6662 70.2215 36.631 70.1331 36.631H68.4665Z" fill="#D8B8C9"/>
<path d="M84.4665 36.631V34.9644C84.4665 34.876 84.4314 34.7912 84.3688 34.7287C84.3063 34.6662 84.2215 34.631 84.1331 34.631C84.0447 34.631 83.9599 34.6662 83.8974 34.7287C83.8349 34.7912 83.7998 34.876 83.7998 34.9644V36.631H82.1331C82.0447 36.631 81.9599 36.6662 81.8974 36.7287C81.8349 36.7912 81.7998 36.876 81.7998 36.9644C81.7998 37.0528 81.8349 37.1376 81.8974 37.2001C81.9599 37.2626 82.0447 37.2977 82.1331 37.2977H83.7998V38.9644C83.7998 39.0528 83.8349 39.1376 83.8974 39.2001C83.9599 39.2626 84.0447 39.2977 84.1331 39.2977C84.2215 39.2977 84.3063 39.2626 84.3688 39.2001C84.4314 39.1376 84.4665 39.0528 84.4665 38.9644V37.2977H86.1331C86.2215 37.2977 86.3063 37.2626 86.3688 37.2001C86.4314 37.1376 86.4665 37.0528 86.4665 36.9644C86.4665 36.876 86.4314 36.7912 86.3688 36.7287C86.3063 36.6662 86.2215 36.631 86.1331 36.631H84.4665Z" fill="#D8B8C9"/>
<path d="M4.46647 52.631V50.9644C4.46647 50.876 4.43135 50.7912 4.36884 50.7287C4.30633 50.6662 4.22154 50.631 4.13314 50.631C4.04473 50.631 3.95995 50.6662 3.89744 50.7287C3.83492 50.7912 3.7998 50.876 3.7998 50.9644V52.631H2.13314C2.04473 52.631 1.95995 52.6662 1.89744 52.7287C1.83492 52.7912 1.7998 52.876 1.7998 52.9644C1.7998 53.0528 1.83492 53.1376 1.89744 53.2001C1.95995 53.2626 2.04473 53.2977 2.13314 53.2977H3.7998V54.9644C3.7998 55.0528 3.83492 55.1376 3.89744 55.2001C3.95995 55.2626 4.04473 55.2977 4.13314 55.2977C4.22154 55.2977 4.30633 55.2626 4.36884 55.2001C4.43135 55.1376 4.46647 55.0528 4.46647 54.9644V53.2977H6.13314C6.22154 53.2977 6.30633 53.2626 6.36884 53.2001C6.43135 53.1376 6.46647 53.0528 6.46647 52.9644C6.46647 52.876 6.43135 52.7912 6.36884 52.7287C6.30633 52.6662 6.22154 52.631 6.13314 52.631H4.46647Z" fill="#D8B8C9"/>
<path d="M20.4665 52.631V50.9644C20.4665 50.876 20.4314 50.7912 20.3688 50.7287C20.3063 50.6662 20.2215 50.631 20.1331 50.631C20.0447 50.631 19.9599 50.6662 19.8974 50.7287C19.8349 50.7912 19.7998 50.876 19.7998 50.9644V52.631H18.1331C18.0447 52.631 17.9599 52.6662 17.8974 52.7287C17.8349 52.7912 17.7998 52.876 17.7998 52.9644C17.7998 53.0528 17.8349 53.1376 17.8974 53.2001C17.9599 53.2626 18.0447 53.2977 18.1331 53.2977H19.7998V54.9644C19.7998 55.0528 19.8349 55.1376 19.8974 55.2001C19.9599 55.2626 20.0447 55.2977 20.1331 55.2977C20.2215 55.2977 20.3063 55.2626 20.3688 55.2001C20.4314 55.1376 20.4665 55.0528 20.4665 54.9644V53.2977H22.1331C22.2215 53.2977 22.3063 53.2626 22.3688 53.2001C22.4314 53.1376 22.4665 53.0528 22.4665 52.9644C22.4665 52.876 22.4314 52.7912 22.3688 52.7287C22.3063 52.6662 22.2215 52.631 22.1331 52.631H20.4665Z" fill="#D8B8C9"/>
<path d="M36.4665 52.631V50.9644C36.4665 50.876 36.4314 50.7912 36.3688 50.7287C36.3063 50.6662 36.2215 50.631 36.1331 50.631C36.0447 50.631 35.9599 50.6662 35.8974 50.7287C35.8349 50.7912 35.7998 50.876 35.7998 50.9644V52.631H34.1331C34.0447 52.631 33.9599 52.6662 33.8974 52.7287C33.8349 52.7912 33.7998 52.876 33.7998 52.9644C33.7998 53.0528 33.8349 53.1376 33.8974 53.2001C33.9599 53.2626 34.0447 53.2977 34.1331 53.2977H35.7998V54.9644C35.7998 55.0528 35.8349 55.1376 35.8974 55.2001C35.9599 55.2626 36.0447 55.2977 36.1331 55.2977C36.2215 55.2977 36.3063 55.2626 36.3688 55.2001C36.4314 55.1376 36.4665 55.0528 36.4665 54.9644V53.2977H38.1331C38.2215 53.2977 38.3063 53.2626 38.3688 53.2001C38.4314 53.1376 38.4665 53.0528 38.4665 52.9644C38.4665 52.876 38.4314 52.7912 38.3688 52.7287C38.3063 52.6662 38.2215 52.631 38.1331 52.631H36.4665Z" fill="#D8B8C9"/>
<path d="M52.4665 52.631V50.9644C52.4665 50.876 52.4314 50.7912 52.3688 50.7287C52.3063 50.6662 52.2215 50.631 52.1331 50.631C52.0447 50.631 51.9599 50.6662 51.8974 50.7287C51.8349 50.7912 51.7998 50.876 51.7998 50.9644V52.631H50.1331C50.0447 52.631 49.9599 52.6662 49.8974 52.7287C49.8349 52.7912 49.7998 52.876 49.7998 52.9644C49.7998 53.0528 49.8349 53.1376 49.8974 53.2001C49.9599 53.2626 50.0447 53.2977 50.1331 53.2977H51.7998V54.9644C51.7998 55.0528 51.8349 55.1376 51.8974 55.2001C51.9599 55.2626 52.0447 55.2977 52.1331 55.2977C52.2215 55.2977 52.3063 55.2626 52.3688 55.2001C52.4314 55.1376 52.4665 55.0528 52.4665 54.9644V53.2977H54.1331C54.2215 53.2977 54.3063 53.2626 54.3688 53.2001C54.4314 53.1376 54.4665 53.0528 54.4665 52.9644C54.4665 52.876 54.4314 52.7912 54.3688 52.7287C54.3063 52.6662 54.2215 52.631 54.1331 52.631H52.4665Z" fill="#D8B8C9"/>
<path d="M68.4665 52.631V50.9644C68.4665 50.876 68.4314 50.7912 68.3688 50.7287C68.3063 50.6662 68.2215 50.631 68.1331 50.631C68.0447 50.631 67.9599 50.6662 67.8974 50.7287C67.8349 50.7912 67.7998 50.876 67.7998 50.9644V52.631H66.1331C66.0447 52.631 65.9599 52.6662 65.8974 52.7287C65.8349 52.7912 65.7998 52.876 65.7998 52.9644C65.7998 53.0528 65.8349 53.1376 65.8974 53.2001C65.9599 53.2626 66.0447 53.2977 66.1331 53.2977H67.7998V54.9644C67.7998 55.0528 67.8349 55.1376 67.8974 55.2001C67.9599 55.2626 68.0447 55.2977 68.1331 55.2977C68.2215 55.2977 68.3063 55.2626 68.3688 55.2001C68.4314 55.1376 68.4665 55.0528 68.4665 54.9644V53.2977H70.1331C70.2215 53.2977 70.3063 53.2626 70.3688 53.2001C70.4314 53.1376 70.4665 53.0528 70.4665 52.9644C70.4665 52.876 70.4314 52.7912 70.3688 52.7287C70.3063 52.6662 70.2215 52.631 70.1331 52.631H68.4665Z" fill="#D8B8C9"/>
<path d="M84.4665 52.631V50.9644C84.4665 50.876 84.4314 50.7912 84.3688 50.7287C84.3063 50.6662 84.2215 50.631 84.1331 50.631C84.0447 50.631 83.9599 50.6662 83.8974 50.7287C83.8349 50.7912 83.7998 50.876 83.7998 50.9644V52.631H82.1331C82.0447 52.631 81.9599 52.6662 81.8974 52.7287C81.8349 52.7912 81.7998 52.876 81.7998 52.9644C81.7998 53.0528 81.8349 53.1376 81.8974 53.2001C81.9599 53.2626 82.0447 53.2977 82.1331 53.2977H83.7998V54.9644C83.7998 55.0528 83.8349 55.1376 83.8974 55.2001C83.9599 55.2626 84.0447 55.2977 84.1331 55.2977C84.2215 55.2977 84.3063 55.2626 84.3688 55.2001C84.4314 55.1376 84.4665 55.0528 84.4665 54.9644V53.2977H86.1331C86.2215 53.2977 86.3063 53.2626 86.3688 53.2001C86.4314 53.1376 86.4665 53.0528 86.4665 52.9644C86.4665 52.876 86.4314 52.7912 86.3688 52.7287C86.3063 52.6662 86.2215 52.631 86.1331 52.631H84.4665Z" fill="#CBA1B7"/>
<path d="M4.46647 68.631V66.9644C4.46647 66.876 4.43135 66.7912 4.36884 66.7287C4.30633 66.6662 4.22154 66.631 4.13314 66.631C4.04473 66.631 3.95995 66.6662 3.89744 66.7287C3.83492 66.7912 3.7998 66.876 3.7998 66.9644V68.631H2.13314C2.04473 68.631 1.95995 68.6662 1.89744 68.7287C1.83492 68.7912 1.7998 68.876 1.7998 68.9644C1.7998 69.0528 1.83492 69.1376 1.89744 69.2001C1.95995 69.2626 2.04473 69.2977 2.13314 69.2977H3.7998V70.9644C3.7998 71.0528 3.83492 71.1376 3.89744 71.2001C3.95995 71.2626 4.04473 71.2977 4.13314 71.2977C4.22154 71.2977 4.30633 71.2626 4.36884 71.2001C4.43135 71.1376 4.46647 71.0528 4.46647 70.9644V69.2977H6.13314C6.22154 69.2977 6.30633 69.2626 6.36884 69.2001C6.43135 69.1376 6.46647 69.0528 6.46647 68.9644C6.46647 68.876 6.43135 68.7912 6.36884 68.7287C6.30633 68.6662 6.22154 68.631 6.13314 68.631H4.46647Z" fill="#D8B8C9"/>
<path d="M20.4665 68.631V66.9644C20.4665 66.876 20.4314 66.7912 20.3688 66.7287C20.3063 66.6662 20.2215 66.631 20.1331 66.631C20.0447 66.631 19.9599 66.6662 19.8974 66.7287C19.8349 66.7912 19.7998 66.876 19.7998 66.9644V68.631H18.1331C18.0447 68.631 17.9599 68.6662 17.8974 68.7287C17.8349 68.7912 17.7998 68.876 17.7998 68.9644C17.7998 69.0528 17.8349 69.1376 17.8974 69.2001C17.9599 69.2626 18.0447 69.2977 18.1331 69.2977H19.7998V70.9644C19.7998 71.0528 19.8349 71.1376 19.8974 71.2001C19.9599 71.2626 20.0447 71.2977 20.1331 71.2977C20.2215 71.2977 20.3063 71.2626 20.3688 71.2001C20.4314 71.1376 20.4665 71.0528 20.4665 70.9644V69.2977H22.1331C22.2215 69.2977 22.3063 69.2626 22.3688 69.2001C22.4314 69.1376 22.4665 69.0528 22.4665 68.9644C22.4665 68.876 22.4314 68.7912 22.3688 68.7287C22.3063 68.6662 22.2215 68.631 22.1331 68.631H20.4665Z" fill="#D8B8C9"/>
<path d="M36.4665 68.631V66.9644C36.4665 66.876 36.4314 66.7912 36.3688 66.7287C36.3063 66.6662 36.2215 66.631 36.1331 66.631C36.0447 66.631 35.9599 66.6662 35.8974 66.7287C35.8349 66.7912 35.7998 66.876 35.7998 66.9644V68.631H34.1331C34.0447 68.631 33.9599 68.6662 33.8974 68.7287C33.8349 68.7912 33.7998 68.876 33.7998 68.9644C33.7998 69.0528 33.8349 69.1376 33.8974 69.2001C33.9599 69.2626 34.0447 69.2977 34.1331 69.2977H35.7998V70.9644C35.7998 71.0528 35.8349 71.1376 35.8974 71.2001C35.9599 71.2626 36.0447 71.2977 36.1331 71.2977C36.2215 71.2977 36.3063 71.2626 36.3688 71.2001C36.4314 71.1376 36.4665 71.0528 36.4665 70.9644V69.2977H38.1331C38.2215 69.2977 38.3063 69.2626 38.3688 69.2001C38.4314 69.1376 38.4665 69.0528 38.4665 68.9644C38.4665 68.876 38.4314 68.7912 38.3688 68.7287C38.3063 68.6662 38.2215 68.631 38.1331 68.631H36.4665Z" fill="#D8B8C9"/>
<path d="M52.4665 68.631V66.9644C52.4665 66.876 52.4314 66.7912 52.3688 66.7287C52.3063 66.6662 52.2215 66.631 52.1331 66.631C52.0447 66.631 51.9599 66.6662 51.8974 66.7287C51.8349 66.7912 51.7998 66.876 51.7998 66.9644V68.631H50.1331C50.0447 68.631 49.9599 68.6662 49.8974 68.7287C49.8349 68.7912 49.7998 68.876 49.7998 68.9644C49.7998 69.0528 49.8349 69.1376 49.8974 69.2001C49.9599 69.2626 50.0447 69.2977 50.1331 69.2977H51.7998V70.9644C51.7998 71.0528 51.8349 71.1376 51.8974 71.2001C51.9599 71.2626 52.0447 71.2977 52.1331 71.2977C52.2215 71.2977 52.3063 71.2626 52.3688 71.2001C52.4314 71.1376 52.4665 71.0528 52.4665 70.9644V69.2977H54.1331C54.2215 69.2977 54.3063 69.2626 54.3688 69.2001C54.4314 69.1376 54.4665 69.0528 54.4665 68.9644C54.4665 68.876 54.4314 68.7912 54.3688 68.7287C54.3063 68.6662 54.2215 68.631 54.1331 68.631H52.4665Z" fill="#D8B8C9"/>
<path d="M68.4665 68.631V66.9644C68.4665 66.876 68.4314 66.7912 68.3688 66.7287C68.3063 66.6662 68.2215 66.631 68.1331 66.631C68.0447 66.631 67.9599 66.6662 67.8974 66.7287C67.8349 66.7912 67.7998 66.876 67.7998 66.9644V68.631H66.1331C66.0447 68.631 65.9599 68.6662 65.8974 68.7287C65.8349 68.7912 65.7998 68.876 65.7998 68.9644C65.7998 69.0528 65.8349 69.1376 65.8974 69.2001C65.9599 69.2626 66.0447 69.2977 66.1331 69.2977H67.7998V70.9644C67.7998 71.0528 67.8349 71.1376 67.8974 71.2001C67.9599 71.2626 68.0447 71.2977 68.1331 71.2977C68.2215 71.2977 68.3063 71.2626 68.3688 71.2001C68.4314 71.1376 68.4665 71.0528 68.4665 70.9644V69.2977H70.1331C70.2215 69.2977 70.3063 69.2626 70.3688 69.2001C70.4314 69.1376 70.4665 69.0528 70.4665 68.9644C70.4665 68.876 70.4314 68.7912 70.3688 68.7287C70.3063 68.6662 70.2215 68.631 70.1331 68.631H68.4665Z" fill="#D8B8C9"/>
<path d="M84.4665 68.631V66.9644C84.4665 66.876 84.4314 66.7912 84.3688 66.7287C84.3063 66.6662 84.2215 66.631 84.1331 66.631C84.0447 66.631 83.9599 66.6662 83.8974 66.7287C83.8349 66.7912 83.7998 66.876 83.7998 66.9644V68.631H82.1331C82.0447 68.631 81.9599 68.6662 81.8974 68.7287C81.8349 68.7912 81.7998 68.876 81.7998 68.9644C81.7998 69.0528 81.8349 69.1376 81.8974 69.2001C81.9599 69.2626 82.0447 69.2977 82.1331 69.2977H83.7998V70.9644C83.7998 71.0528 83.8349 71.1376 83.8974 71.2001C83.9599 71.2626 84.0447 71.2977 84.1331 71.2977C84.2215 71.2977 84.3063 71.2626 84.3688 71.2001C84.4314 71.1376 84.4665 71.0528 84.4665 70.9644V69.2977H86.1331C86.2215 69.2977 86.3063 69.2626 86.3688 69.2001C86.4314 69.1376 86.4665 69.0528 86.4665 68.9644C86.4665 68.876 86.4314 68.7912 86.3688 68.7287C86.3063 68.6662 86.2215 68.631 86.1331 68.631H84.4665Z" fill="#D8B8C9"/>
<path d="M4.46647 84.631V82.9644C4.46647 82.876 4.43135 82.7912 4.36884 82.7287C4.30633 82.6662 4.22154 82.631 4.13314 82.631C4.04473 82.631 3.95995 82.6662 3.89744 82.7287C3.83492 82.7912 3.7998 82.876 3.7998 82.9644V84.631H2.13314C2.04473 84.631 1.95995 84.6662 1.89744 84.7287C1.83492 84.7912 1.7998 84.876 1.7998 84.9644C1.7998 85.0528 1.83492 85.1376 1.89744 85.2001C1.95995 85.2626 2.04473 85.2977 2.13314 85.2977H3.7998V86.9644C3.7998 87.0528 3.83492 87.1376 3.89744 87.2001C3.95995 87.2626 4.04473 87.2977 4.13314 87.2977C4.22154 87.2977 4.30633 87.2626 4.36884 87.2001C4.43135 87.1376 4.46647 87.0528 4.46647 86.9644V85.2977H6.13314C6.22154 85.2977 6.30633 85.2626 6.36884 85.2001C6.43135 85.1376 6.46647 85.0528 6.46647 84.9644C6.46647 84.876 6.43135 84.7912 6.36884 84.7287C6.30633 84.6662 6.22154 84.631 6.13314 84.631H4.46647Z" fill="#D8B8C9"/>
<path d="M20.4665 84.631V82.9644C20.4665 82.876 20.4314 82.7912 20.3688 82.7287C20.3063 82.6662 20.2215 82.631 20.1331 82.631C20.0447 82.631 19.9599 82.6662 19.8974 82.7287C19.8349 82.7912 19.7998 82.876 19.7998 82.9644V84.631H18.1331C18.0447 84.631 17.9599 84.6662 17.8974 84.7287C17.8349 84.7912 17.7998 84.876 17.7998 84.9644C17.7998 85.0528 17.8349 85.1376 17.8974 85.2001C17.9599 85.2626 18.0447 85.2977 18.1331 85.2977H19.7998V86.9644C19.7998 87.0528 19.8349 87.1376 19.8974 87.2001C19.9599 87.2626 20.0447 87.2977 20.1331 87.2977C20.2215 87.2977 20.3063 87.2626 20.3688 87.2001C20.4314 87.1376 20.4665 87.0528 20.4665 86.9644V85.2977H22.1331C22.2215 85.2977 22.3063 85.2626 22.3688 85.2001C22.4314 85.1376 22.4665 85.0528 22.4665 84.9644C22.4665 84.876 22.4314 84.7912 22.3688 84.7287C22.3063 84.6662 22.2215 84.631 22.1331 84.631H20.4665Z" fill="#D8B8C9"/>
<path d="M36.4665 84.631V82.9644C36.4665 82.876 36.4314 82.7912 36.3688 82.7287C36.3063 82.6662 36.2215 82.631 36.1331 82.631C36.0447 82.631 35.9599 82.6662 35.8974 82.7287C35.8349 82.7912 35.7998 82.876 35.7998 82.9644V84.631H34.1331C34.0447 84.631 33.9599 84.6662 33.8974 84.7287C33.8349 84.7912 33.7998 84.876 33.7998 84.9644C33.7998 85.0528 33.8349 85.1376 33.8974 85.2001C33.9599 85.2626 34.0447 85.2977 34.1331 85.2977H35.7998V86.9644C35.7998 87.0528 35.8349 87.1376 35.8974 87.2001C35.9599 87.2626 36.0447 87.2977 36.1331 87.2977C36.2215 87.2977 36.3063 87.2626 36.3688 87.2001C36.4314 87.1376 36.4665 87.0528 36.4665 86.9644V85.2977H38.1331C38.2215 85.2977 38.3063 85.2626 38.3688 85.2001C38.4314 85.1376 38.4665 85.0528 38.4665 84.9644C38.4665 84.876 38.4314 84.7912 38.3688 84.7287C38.3063 84.6662 38.2215 84.631 38.1331 84.631H36.4665Z" fill="#D8645B"/>
<path d="M52.4665 84.631V82.9644C52.4665 82.876 52.4314 82.7912 52.3688 82.7287C52.3063 82.6662 52.2215 82.631 52.1331 82.631C52.0447 82.631 51.9599 82.6662 51.8974 82.7287C51.8349 82.7912 51.7998 82.876 51.7998 82.9644V84.631H50.1331C50.0447 84.631 49.9599 84.6662 49.8974 84.7287C49.8349 84.7912 49.7998 84.876 49.7998 84.9644C49.7998 85.0528 49.8349 85.1376 49.8974 85.2001C49.9599 85.2626 50.0447 85.2977 50.1331 85.2977H51.7998V86.9644C51.7998 87.0528 51.8349 87.1376 51.8974 87.2001C51.9599 87.2626 52.0447 87.2977 52.1331 87.2977C52.2215 87.2977 52.3063 87.2626 52.3688 87.2001C52.4314 87.1376 52.4665 87.0528 52.4665 86.9644V85.2977H54.1331C54.2215 85.2977 54.3063 85.2626 54.3688 85.2001C54.4314 85.1376 54.4665 85.0528 54.4665 84.9644C54.4665 84.876 54.4314 84.7912 54.3688 84.7287C54.3063 84.6662 54.2215 84.631 54.1331 84.631H52.4665Z" fill="#D8B8C9"/>
<path d="M68.4665 84.631V82.9644C68.4665 82.876 68.4314 82.7912 68.3688 82.7287C68.3063 82.6662 68.2215 82.631 68.1331 82.631C68.0447 82.631 67.9599 82.6662 67.8974 82.7287C67.8349 82.7912 67.7998 82.876 67.7998 82.9644V84.631H66.1331C66.0447 84.631 65.9599 84.6662 65.8974 84.7287C65.8349 84.7912 65.7998 84.876 65.7998 84.9644C65.7998 85.0528 65.8349 85.1376 65.8974 85.2001C65.9599 85.2626 66.0447 85.2977 66.1331 85.2977H67.7998V86.9644C67.7998 87.0528 67.8349 87.1376 67.8974 87.2001C67.9599 87.2626 68.0447 87.2977 68.1331 87.2977C68.2215 87.2977 68.3063 87.2626 68.3688 87.2001C68.4314 87.1376 68.4665 87.0528 68.4665 86.9644V85.2977H70.1331C70.2215 85.2977 70.3063 85.2626 70.3688 85.2001C70.4314 85.1376 70.4665 85.0528 70.4665 84.9644C70.4665 84.876 70.4314 84.7912 70.3688 84.7287C70.3063 84.6662 70.2215 84.631 70.1331 84.631H68.4665Z" fill="#D8B8C9"/>
<path d="M84.4665 84.631V82.9644C84.4665 82.876 84.4314 82.7912 84.3688 82.7287C84.3063 82.6662 84.2215 82.631 84.1331 82.631C84.0447 82.631 83.9599 82.6662 83.8974 82.7287C83.8349 82.7912 83.7998 82.876 83.7998 82.9644V84.631H82.1331C82.0447 84.631 81.9599 84.6662 81.8974 84.7287C81.8349 84.7912 81.7998 84.876 81.7998 84.9644C81.7998 85.0528 81.8349 85.1376 81.8974 85.2001C81.9599 85.2626 82.0447 85.2977 82.1331 85.2977H83.7998V86.9644C83.7998 87.0528 83.8349 87.1376 83.8974 87.2001C83.9599 87.2626 84.0447 87.2977 84.1331 87.2977C84.2215 87.2977 84.3063 87.2626 84.3688 87.2001C84.4314 87.1376 84.4665 87.0528 84.4665 86.9644V85.2977H86.1331C86.2215 85.2977 86.3063 85.2626 86.3688 85.2001C86.4314 85.1376 86.4665 85.0528 86.4665 84.9644C86.4665 84.876 86.4314 84.7912 86.3688 84.7287C86.3063 84.6662 86.2215 84.631 86.1331 84.631H84.4665Z" fill="#D8B8C9"/>
</svg>
