<svg width="176" height="176" viewBox="0 0 176 176" fill="none" xmlns="http://www.w3.org/2000/svg">
<g clip-path="url(#clip0_2000_13901)">
<path d="M8.93343 7.59998V4.26664C8.93343 4.08983 8.86319 3.92026 8.73817 3.79524C8.61314 3.67021 8.44357 3.59998 8.26676 3.59998C8.08995 3.59998 7.92038 3.67021 7.79536 3.79524C7.67034 3.92026 7.6001 4.08983 7.6001 4.26664V7.59998H4.26676C4.08995 7.59998 3.92038 7.67021 3.79536 7.79524C3.67034 7.92026 3.6001 8.08983 3.6001 8.26664C3.6001 8.44345 3.67034 8.61302 3.79536 8.73805C3.92038 8.86307 4.08995 8.93331 4.26676 8.93331H7.6001V12.2666C7.6001 12.4435 7.67034 12.613 7.79536 12.738C7.92038 12.8631 8.08995 12.9333 8.26676 12.9333C8.44357 12.9333 8.61314 12.8631 8.73817 12.738C8.86319 12.613 8.93343 12.4435 8.93343 12.2666V8.93331H12.2668C12.4436 8.93331 12.6131 8.86307 12.7382 8.73805C12.8632 8.61302 12.9334 8.44345 12.9334 8.26664C12.9334 8.08983 12.8632 7.92026 12.7382 7.79524C12.6131 7.67021 12.4436 7.59998 12.2668 7.59998H8.93343Z" fill="#D8B8C9"/>
<path d="M40.9329 7.59998V4.26664C40.9329 4.08983 40.8627 3.92026 40.7377 3.79524C40.6127 3.67021 40.4431 3.59998 40.2663 3.59998C40.0895 3.59998 39.9199 3.67021 39.7949 3.79524C39.6698 3.92026 39.5996 4.08983 39.5996 4.26664V7.59998H36.2663C36.0895 7.59998 35.9199 7.67021 35.7949 7.79524C35.6698 7.92026 35.5996 8.08983 35.5996 8.26664C35.5996 8.44345 35.6698 8.61302 35.7949 8.73805C35.9199 8.86307 36.0895 8.93331 36.2663 8.93331H39.5996V12.2666C39.5996 12.4435 39.6698 12.613 39.7949 12.738C39.9199 12.8631 40.0895 12.9333 40.2663 12.9333C40.4431 12.9333 40.6127 12.8631 40.7377 12.738C40.8627 12.613 40.9329 12.4435 40.9329 12.2666V8.93331H44.2663C44.4431 8.93331 44.6127 8.86307 44.7377 8.73805C44.8627 8.61302 44.9329 8.44345 44.9329 8.26664C44.9329 8.08983 44.8627 7.92026 44.7377 7.79524C44.6127 7.67021 44.4431 7.59998 44.2663 7.59998H40.9329Z" fill="#D8B8C9"/>
<path d="M72.9329 7.59998V4.26664C72.9329 4.08983 72.8627 3.92026 72.7377 3.79524C72.6127 3.67021 72.4431 3.59998 72.2663 3.59998C72.0895 3.59998 71.9199 3.67021 71.7949 3.79524C71.6698 3.92026 71.5996 4.08983 71.5996 4.26664V7.59998H68.2663C68.0895 7.59998 67.9199 7.67021 67.7949 7.79524C67.6698 7.92026 67.5996 8.08983 67.5996 8.26664C67.5996 8.44345 67.6698 8.61302 67.7949 8.73805C67.9199 8.86307 68.0895 8.93331 68.2663 8.93331H71.5996V12.2666C71.5996 12.4435 71.6698 12.613 71.7949 12.738C71.9199 12.8631 72.0895 12.9333 72.2663 12.9333C72.4431 12.9333 72.6127 12.8631 72.7377 12.738C72.8627 12.613 72.9329 12.4435 72.9329 12.2666V8.93331H76.2663C76.4431 8.93331 76.6127 8.86307 76.7377 8.73805C76.8627 8.61302 76.9329 8.44345 76.9329 8.26664C76.9329 8.08983 76.8627 7.92026 76.7377 7.79524C76.6127 7.67021 76.4431 7.59998 76.2663 7.59998H72.9329Z" fill="#D8B8C9"/>
<path d="M104.933 7.59998V4.26664C104.933 4.08983 104.863 3.92026 104.738 3.79524C104.613 3.67021 104.443 3.59998 104.266 3.59998C104.089 3.59998 103.92 3.67021 103.795 3.79524C103.67 3.92026 103.6 4.08983 103.6 4.26664V7.59998H100.266C100.089 7.59998 99.9199 7.67021 99.7949 7.79524C99.6698 7.92026 99.5996 8.08983 99.5996 8.26664C99.5996 8.44345 99.6698 8.61302 99.7949 8.73805C99.9199 8.86307 100.089 8.93331 100.266 8.93331H103.6V12.2666C103.6 12.4435 103.67 12.613 103.795 12.738C103.92 12.8631 104.089 12.9333 104.266 12.9333C104.443 12.9333 104.613 12.8631 104.738 12.738C104.863 12.613 104.933 12.4435 104.933 12.2666V8.93331H108.266C108.443 8.93331 108.613 8.86307 108.738 8.73805C108.863 8.61302 108.933 8.44345 108.933 8.26664C108.933 8.08983 108.863 7.92026 108.738 7.79524C108.613 7.67021 108.443 7.59998 108.266 7.59998H104.933Z" fill="#D8B8C9"/>
<path d="M136.933 7.59998V4.26664C136.933 4.08983 136.863 3.92026 136.738 3.79524C136.613 3.67021 136.443 3.59998 136.266 3.59998C136.089 3.59998 135.92 3.67021 135.795 3.79524C135.67 3.92026 135.6 4.08983 135.6 4.26664V7.59998H132.266C132.089 7.59998 131.92 7.67021 131.795 7.79524C131.67 7.92026 131.6 8.08983 131.6 8.26664C131.6 8.44345 131.67 8.61302 131.795 8.73805C131.92 8.86307 132.089 8.93331 132.266 8.93331H135.6V12.2666C135.6 12.4435 135.67 12.613 135.795 12.738C135.92 12.8631 136.089 12.9333 136.266 12.9333C136.443 12.9333 136.613 12.8631 136.738 12.738C136.863 12.613 136.933 12.4435 136.933 12.2666V8.93331H140.266C140.443 8.93331 140.613 8.86307 140.738 8.73805C140.863 8.61302 140.933 8.44345 140.933 8.26664C140.933 8.08983 140.863 7.92026 140.738 7.79524C140.613 7.67021 140.443 7.59998 140.266 7.59998H136.933Z" fill="#D8B8C9"/>
<path d="M168.933 7.59998V4.26664C168.933 4.08983 168.863 3.92026 168.738 3.79524C168.613 3.67021 168.443 3.59998 168.266 3.59998C168.089 3.59998 167.92 3.67021 167.795 3.79524C167.67 3.92026 167.6 4.08983 167.6 4.26664V7.59998H164.266C164.089 7.59998 163.92 7.67021 163.795 7.79524C163.67 7.92026 163.6 8.08983 163.6 8.26664C163.6 8.44345 163.67 8.61302 163.795 8.73805C163.92 8.86307 164.089 8.93331 164.266 8.93331H167.6V12.2666C167.6 12.4435 167.67 12.613 167.795 12.738C167.92 12.8631 168.089 12.9333 168.266 12.9333C168.443 12.9333 168.613 12.8631 168.738 12.738C168.863 12.613 168.933 12.4435 168.933 12.2666V8.93331H172.266C172.443 8.93331 172.613 8.86307 172.738 8.73805C172.863 8.61302 172.933 8.44345 172.933 8.26664C172.933 8.08983 172.863 7.92026 172.738 7.79524C172.613 7.67021 172.443 7.59998 172.266 7.59998H168.933Z" fill="#D8B8C9"/>
<path d="M8.93343 39.6V36.2666C8.93343 36.0898 8.86319 35.9203 8.73817 35.7952C8.61314 35.6702 8.44357 35.6 8.26676 35.6C8.08995 35.6 7.92038 35.6702 7.79536 35.7952C7.67034 35.9203 7.6001 36.0898 7.6001 36.2666V39.6H4.26676C4.08995 39.6 3.92038 39.6702 3.79536 39.7952C3.67034 39.9203 3.6001 40.0898 3.6001 40.2666C3.6001 40.4435 3.67034 40.613 3.79536 40.738C3.92038 40.8631 4.08995 40.9333 4.26676 40.9333H7.6001V44.2666C7.6001 44.4435 7.67034 44.613 7.79536 44.738C7.92038 44.8631 8.08995 44.9333 8.26676 44.9333C8.44357 44.9333 8.61314 44.8631 8.73817 44.738C8.86319 44.613 8.93343 44.4435 8.93343 44.2666V40.9333H12.2668C12.4436 40.9333 12.6131 40.8631 12.7382 40.738C12.8632 40.613 12.9334 40.4435 12.9334 40.2666C12.9334 40.0898 12.8632 39.9203 12.7382 39.7952C12.6131 39.6702 12.4436 39.6 12.2668 39.6H8.93343Z" fill="#D8B8C9"/>
<path d="M40.9329 39.6V36.2666C40.9329 36.0898 40.8627 35.9203 40.7377 35.7952C40.6127 35.6702 40.4431 35.6 40.2663 35.6C40.0895 35.6 39.9199 35.6702 39.7949 35.7952C39.6698 35.9203 39.5996 36.0898 39.5996 36.2666V39.6H36.2663C36.0895 39.6 35.9199 39.6702 35.7949 39.7952C35.6698 39.9203 35.5996 40.0898 35.5996 40.2666C35.5996 40.4435 35.6698 40.613 35.7949 40.738C35.9199 40.8631 36.0895 40.9333 36.2663 40.9333H39.5996V44.2666C39.5996 44.4435 39.6698 44.613 39.7949 44.738C39.9199 44.8631 40.0895 44.9333 40.2663 44.9333C40.4431 44.9333 40.6127 44.8631 40.7377 44.738C40.8627 44.613 40.9329 44.4435 40.9329 44.2666V40.9333H44.2663C44.4431 40.9333 44.6127 40.8631 44.7377 40.738C44.8627 40.613 44.9329 40.4435 44.9329 40.2666C44.9329 40.0898 44.8627 39.9203 44.7377 39.7952C44.6127 39.6702 44.4431 39.6 44.2663 39.6H40.9329Z" fill="#D8B8C9"/>
<path d="M72.9329 39.6V36.2666C72.9329 36.0898 72.8627 35.9203 72.7377 35.7952C72.6127 35.6702 72.4431 35.6 72.2663 35.6C72.0895 35.6 71.9199 35.6702 71.7949 35.7952C71.6698 35.9203 71.5996 36.0898 71.5996 36.2666V39.6H68.2663C68.0895 39.6 67.9199 39.6702 67.7949 39.7952C67.6698 39.9203 67.5996 40.0898 67.5996 40.2666C67.5996 40.4435 67.6698 40.613 67.7949 40.738C67.9199 40.8631 68.0895 40.9333 68.2663 40.9333H71.5996V44.2666C71.5996 44.4435 71.6698 44.613 71.7949 44.738C71.9199 44.8631 72.0895 44.9333 72.2663 44.9333C72.4431 44.9333 72.6127 44.8631 72.7377 44.738C72.8627 44.613 72.9329 44.4435 72.9329 44.2666V40.9333H76.2663C76.4431 40.9333 76.6127 40.8631 76.7377 40.738C76.8627 40.613 76.9329 40.4435 76.9329 40.2666C76.9329 40.0898 76.8627 39.9203 76.7377 39.7952C76.6127 39.6702 76.4431 39.6 76.2663 39.6H72.9329Z" fill="#D8B8C9"/>
<path d="M104.933 39.6V36.2666C104.933 36.0898 104.863 35.9203 104.738 35.7952C104.613 35.6702 104.443 35.6 104.266 35.6C104.089 35.6 103.92 35.6702 103.795 35.7952C103.67 35.9203 103.6 36.0898 103.6 36.2666V39.6H100.266C100.089 39.6 99.9199 39.6702 99.7949 39.7952C99.6698 39.9203 99.5996 40.0898 99.5996 40.2666C99.5996 40.4435 99.6698 40.613 99.7949 40.738C99.9199 40.8631 100.089 40.9333 100.266 40.9333H103.6V44.2666C103.6 44.4435 103.67 44.613 103.795 44.738C103.92 44.8631 104.089 44.9333 104.266 44.9333C104.443 44.9333 104.613 44.8631 104.738 44.738C104.863 44.613 104.933 44.4435 104.933 44.2666V40.9333H108.266C108.443 40.9333 108.613 40.8631 108.738 40.738C108.863 40.613 108.933 40.4435 108.933 40.2666C108.933 40.0898 108.863 39.9203 108.738 39.7952C108.613 39.6702 108.443 39.6 108.266 39.6H104.933Z" fill="#D8B8C9"/>
<path d="M136.933 39.6V36.2666C136.933 36.0898 136.863 35.9203 136.738 35.7952C136.613 35.6702 136.443 35.6 136.266 35.6C136.089 35.6 135.92 35.6702 135.795 35.7952C135.67 35.9203 135.6 36.0898 135.6 36.2666V39.6H132.266C132.089 39.6 131.92 39.6702 131.795 39.7952C131.67 39.9203 131.6 40.0898 131.6 40.2666C131.6 40.4435 131.67 40.613 131.795 40.738C131.92 40.8631 132.089 40.9333 132.266 40.9333H135.6V44.2666C135.6 44.4435 135.67 44.613 135.795 44.738C135.92 44.8631 136.089 44.9333 136.266 44.9333C136.443 44.9333 136.613 44.8631 136.738 44.738C136.863 44.613 136.933 44.4435 136.933 44.2666V40.9333H140.266C140.443 40.9333 140.613 40.8631 140.738 40.738C140.863 40.613 140.933 40.4435 140.933 40.2666C140.933 40.0898 140.863 39.9203 140.738 39.7952C140.613 39.6702 140.443 39.6 140.266 39.6H136.933Z" fill="#FFA1D1"/>
<path d="M168.933 39.6V36.2666C168.933 36.0898 168.863 35.9203 168.738 35.7952C168.613 35.6702 168.443 35.6 168.266 35.6C168.089 35.6 167.92 35.6702 167.795 35.7952C167.67 35.9203 167.6 36.0898 167.6 36.2666V39.6H164.266C164.089 39.6 163.92 39.6702 163.795 39.7952C163.67 39.9203 163.6 40.0898 163.6 40.2666C163.6 40.4435 163.67 40.613 163.795 40.738C163.92 40.8631 164.089 40.9333 164.266 40.9333H167.6V44.2666C167.6 44.4435 167.67 44.613 167.795 44.738C167.92 44.8631 168.089 44.9333 168.266 44.9333C168.443 44.9333 168.613 44.8631 168.738 44.738C168.863 44.613 168.933 44.4435 168.933 44.2666V40.9333H172.266C172.443 40.9333 172.613 40.8631 172.738 40.738C172.863 40.613 172.933 40.4435 172.933 40.2666C172.933 40.0898 172.863 39.9203 172.738 39.7952C172.613 39.6702 172.443 39.6 172.266 39.6H168.933Z" fill="#D8B8C9"/>
<path d="M8.93343 71.6V68.2666C8.93343 68.0898 8.86319 67.9203 8.73817 67.7952C8.61314 67.6702 8.44357 67.6 8.26676 67.6C8.08995 67.6 7.92038 67.6702 7.79536 67.7952C7.67034 67.9203 7.6001 68.0898 7.6001 68.2666V71.6H4.26676C4.08995 71.6 3.92038 71.6702 3.79536 71.7952C3.67034 71.9203 3.6001 72.0898 3.6001 72.2666C3.6001 72.4435 3.67034 72.613 3.79536 72.738C3.92038 72.8631 4.08995 72.9333 4.26676 72.9333H7.6001V76.2666C7.6001 76.4435 7.67034 76.613 7.79536 76.738C7.92038 76.8631 8.08995 76.9333 8.26676 76.9333C8.44357 76.9333 8.61314 76.8631 8.73817 76.738C8.86319 76.613 8.93343 76.4435 8.93343 76.2666V72.9333H12.2668C12.4436 72.9333 12.6131 72.8631 12.7382 72.738C12.8632 72.613 12.9334 72.4435 12.9334 72.2666C12.9334 72.0898 12.8632 71.9203 12.7382 71.7952C12.6131 71.6702 12.4436 71.6 12.2668 71.6H8.93343Z" fill="#D8B8C9"/>
<path d="M40.9329 71.6V68.2666C40.9329 68.0898 40.8627 67.9203 40.7377 67.7952C40.6127 67.6702 40.4431 67.6 40.2663 67.6C40.0895 67.6 39.9199 67.6702 39.7949 67.7952C39.6698 67.9203 39.5996 68.0898 39.5996 68.2666V71.6H36.2663C36.0895 71.6 35.9199 71.6702 35.7949 71.7952C35.6698 71.9203 35.5996 72.0898 35.5996 72.2666C35.5996 72.4435 35.6698 72.613 35.7949 72.738C35.9199 72.8631 36.0895 72.9333 36.2663 72.9333H39.5996V76.2666C39.5996 76.4435 39.6698 76.613 39.7949 76.738C39.9199 76.8631 40.0895 76.9333 40.2663 76.9333C40.4431 76.9333 40.6127 76.8631 40.7377 76.738C40.8627 76.613 40.9329 76.4435 40.9329 76.2666V72.9333H44.2663C44.4431 72.9333 44.6127 72.8631 44.7377 72.738C44.8627 72.613 44.9329 72.4435 44.9329 72.2666C44.9329 72.0898 44.8627 71.9203 44.7377 71.7952C44.6127 71.6702 44.4431 71.6 44.2663 71.6H40.9329Z" fill="#D8B8C9"/>
<path d="M72.9329 71.6V68.2666C72.9329 68.0898 72.8627 67.9203 72.7377 67.7952C72.6127 67.6702 72.4431 67.6 72.2663 67.6C72.0895 67.6 71.9199 67.6702 71.7949 67.7952C71.6698 67.9203 71.5996 68.0898 71.5996 68.2666V71.6H68.2663C68.0895 71.6 67.9199 71.6702 67.7949 71.7952C67.6698 71.9203 67.5996 72.0898 67.5996 72.2666C67.5996 72.4435 67.6698 72.613 67.7949 72.738C67.9199 72.8631 68.0895 72.9333 68.2663 72.9333H71.5996V76.2666C71.5996 76.4435 71.6698 76.613 71.7949 76.738C71.9199 76.8631 72.0895 76.9333 72.2663 76.9333C72.4431 76.9333 72.6127 76.8631 72.7377 76.738C72.8627 76.613 72.9329 76.4435 72.9329 76.2666V72.9333H76.2663C76.4431 72.9333 76.6127 72.8631 76.7377 72.738C76.8627 72.613 76.9329 72.4435 76.9329 72.2666C76.9329 72.0898 76.8627 71.9203 76.7377 71.7952C76.6127 71.6702 76.4431 71.6 76.2663 71.6H72.9329Z" fill="#D8B8C9"/>
<path d="M104.933 71.6V68.2666C104.933 68.0898 104.863 67.9203 104.738 67.7952C104.613 67.6702 104.443 67.6 104.266 67.6C104.089 67.6 103.92 67.6702 103.795 67.7952C103.67 67.9203 103.6 68.0898 103.6 68.2666V71.6H100.266C100.089 71.6 99.9199 71.6702 99.7949 71.7952C99.6698 71.9203 99.5996 72.0898 99.5996 72.2666C99.5996 72.4435 99.6698 72.613 99.7949 72.738C99.9199 72.8631 100.089 72.9333 100.266 72.9333H103.6V76.2666C103.6 76.4435 103.67 76.613 103.795 76.738C103.92 76.8631 104.089 76.9333 104.266 76.9333C104.443 76.9333 104.613 76.8631 104.738 76.738C104.863 76.613 104.933 76.4435 104.933 76.2666V72.9333H108.266C108.443 72.9333 108.613 72.8631 108.738 72.738C108.863 72.613 108.933 72.4435 108.933 72.2666C108.933 72.0898 108.863 71.9203 108.738 71.7952C108.613 71.6702 108.443 71.6 108.266 71.6H104.933Z" fill="#D8B8C9"/>
<path d="M136.933 71.6V68.2666C136.933 68.0898 136.863 67.9203 136.738 67.7952C136.613 67.6702 136.443 67.6 136.266 67.6C136.089 67.6 135.92 67.6702 135.795 67.7952C135.67 67.9203 135.6 68.0898 135.6 68.2666V71.6H132.266C132.089 71.6 131.92 71.6702 131.795 71.7952C131.67 71.9203 131.6 72.0898 131.6 72.2666C131.6 72.4435 131.67 72.613 131.795 72.738C131.92 72.8631 132.089 72.9333 132.266 72.9333H135.6V76.2666C135.6 76.4435 135.67 76.613 135.795 76.738C135.92 76.8631 136.089 76.9333 136.266 76.9333C136.443 76.9333 136.613 76.8631 136.738 76.738C136.863 76.613 136.933 76.4435 136.933 76.2666V72.9333H140.266C140.443 72.9333 140.613 72.8631 140.738 72.738C140.863 72.613 140.933 72.4435 140.933 72.2666C140.933 72.0898 140.863 71.9203 140.738 71.7952C140.613 71.6702 140.443 71.6 140.266 71.6H136.933Z" fill="#D8B8C9"/>
<path d="M168.933 71.6V68.2666C168.933 68.0898 168.863 67.9203 168.738 67.7952C168.613 67.6702 168.443 67.6 168.266 67.6C168.089 67.6 167.92 67.6702 167.795 67.7952C167.67 67.9203 167.6 68.0898 167.6 68.2666V71.6H164.266C164.089 71.6 163.92 71.6702 163.795 71.7952C163.67 71.9203 163.6 72.0898 163.6 72.2666C163.6 72.4435 163.67 72.613 163.795 72.738C163.92 72.8631 164.089 72.9333 164.266 72.9333H167.6V76.2666C167.6 76.4435 167.67 76.613 167.795 76.738C167.92 76.8631 168.089 76.9333 168.266 76.9333C168.443 76.9333 168.613 76.8631 168.738 76.738C168.863 76.613 168.933 76.4435 168.933 76.2666V72.9333H172.266C172.443 72.9333 172.613 72.8631 172.738 72.738C172.863 72.613 172.933 72.4435 172.933 72.2666C172.933 72.0898 172.863 71.9203 172.738 71.7952C172.613 71.6702 172.443 71.6 172.266 71.6H168.933Z" fill="#D8B8C9"/>
<path d="M8.93343 103.6V100.267C8.93343 100.09 8.86319 99.9203 8.73817 99.7952C8.61314 99.6702 8.44357 99.6 8.26676 99.6C8.08995 99.6 7.92038 99.6702 7.79536 99.7952C7.67034 99.9203 7.6001 100.09 7.6001 100.267V103.6H4.26676C4.08995 103.6 3.92038 103.67 3.79536 103.795C3.67034 103.92 3.6001 104.09 3.6001 104.267C3.6001 104.443 3.67034 104.613 3.79536 104.738C3.92038 104.863 4.08995 104.933 4.26676 104.933H7.6001V108.267C7.6001 108.443 7.67034 108.613 7.79536 108.738C7.92038 108.863 8.08995 108.933 8.26676 108.933C8.44357 108.933 8.61314 108.863 8.73817 108.738C8.86319 108.613 8.93343 108.443 8.93343 108.267V104.933H12.2668C12.4436 104.933 12.6131 104.863 12.7382 104.738C12.8632 104.613 12.9334 104.443 12.9334 104.267C12.9334 104.09 12.8632 103.92 12.7382 103.795C12.6131 103.67 12.4436 103.6 12.2668 103.6H8.93343Z" fill="#D8B8C9"/>
<path d="M40.9329 103.6V100.267C40.9329 100.09 40.8627 99.9203 40.7377 99.7952C40.6127 99.6702 40.4431 99.6 40.2663 99.6C40.0895 99.6 39.9199 99.6702 39.7949 99.7952C39.6698 99.9203 39.5996 100.09 39.5996 100.267V103.6H36.2663C36.0895 103.6 35.9199 103.67 35.7949 103.795C35.6698 103.92 35.5996 104.09 35.5996 104.267C35.5996 104.443 35.6698 104.613 35.7949 104.738C35.9199 104.863 36.0895 104.933 36.2663 104.933H39.5996V108.267C39.5996 108.443 39.6698 108.613 39.7949 108.738C39.9199 108.863 40.0895 108.933 40.2663 108.933C40.4431 108.933 40.6127 108.863 40.7377 108.738C40.8627 108.613 40.9329 108.443 40.9329 108.267V104.933H44.2663C44.4431 104.933 44.6127 104.863 44.7377 104.738C44.8627 104.613 44.9329 104.443 44.9329 104.267C44.9329 104.09 44.8627 103.92 44.7377 103.795C44.6127 103.67 44.4431 103.6 44.2663 103.6H40.9329Z" fill="#D8B8C9"/>
<path d="M72.9329 103.6V100.267C72.9329 100.09 72.8627 99.9203 72.7377 99.7952C72.6127 99.6702 72.4431 99.6 72.2663 99.6C72.0895 99.6 71.9199 99.6702 71.7949 99.7952C71.6698 99.9203 71.5996 100.09 71.5996 100.267V103.6H68.2663C68.0895 103.6 67.9199 103.67 67.7949 103.795C67.6698 103.92 67.5996 104.09 67.5996 104.267C67.5996 104.443 67.6698 104.613 67.7949 104.738C67.9199 104.863 68.0895 104.933 68.2663 104.933H71.5996V108.267C71.5996 108.443 71.6698 108.613 71.7949 108.738C71.9199 108.863 72.0895 108.933 72.2663 108.933C72.4431 108.933 72.6127 108.863 72.7377 108.738C72.8627 108.613 72.9329 108.443 72.9329 108.267V104.933H76.2663C76.4431 104.933 76.6127 104.863 76.7377 104.738C76.8627 104.613 76.9329 104.443 76.9329 104.267C76.9329 104.09 76.8627 103.92 76.7377 103.795C76.6127 103.67 76.4431 103.6 76.2663 103.6H72.9329Z" fill="#D8B8C9"/>
<path d="M104.933 103.6V100.267C104.933 100.09 104.863 99.9203 104.738 99.7952C104.613 99.6702 104.443 99.6 104.266 99.6C104.089 99.6 103.92 99.6702 103.795 99.7952C103.67 99.9203 103.6 100.09 103.6 100.267V103.6H100.266C100.089 103.6 99.9199 103.67 99.7949 103.795C99.6698 103.92 99.5996 104.09 99.5996 104.267C99.5996 104.443 99.6698 104.613 99.7949 104.738C99.9199 104.863 100.089 104.933 100.266 104.933H103.6V108.267C103.6 108.443 103.67 108.613 103.795 108.738C103.92 108.863 104.089 108.933 104.266 108.933C104.443 108.933 104.613 108.863 104.738 108.738C104.863 108.613 104.933 108.443 104.933 108.267V104.933H108.266C108.443 104.933 108.613 104.863 108.738 104.738C108.863 104.613 108.933 104.443 108.933 104.267C108.933 104.09 108.863 103.92 108.738 103.795C108.613 103.67 108.443 103.6 108.266 103.6H104.933Z" fill="#D8B8C9"/>
<path d="M136.933 103.6V100.267C136.933 100.09 136.863 99.9203 136.738 99.7952C136.613 99.6702 136.443 99.6 136.266 99.6C136.089 99.6 135.92 99.6702 135.795 99.7952C135.67 99.9203 135.6 100.09 135.6 100.267V103.6H132.266C132.089 103.6 131.92 103.67 131.795 103.795C131.67 103.92 131.6 104.09 131.6 104.267C131.6 104.443 131.67 104.613 131.795 104.738C131.92 104.863 132.089 104.933 132.266 104.933H135.6V108.267C135.6 108.443 135.67 108.613 135.795 108.738C135.92 108.863 136.089 108.933 136.266 108.933C136.443 108.933 136.613 108.863 136.738 108.738C136.863 108.613 136.933 108.443 136.933 108.267V104.933H140.266C140.443 104.933 140.613 104.863 140.738 104.738C140.863 104.613 140.933 104.443 140.933 104.267C140.933 104.09 140.863 103.92 140.738 103.795C140.613 103.67 140.443 103.6 140.266 103.6H136.933Z" fill="#D8B8C9"/>
<path d="M168.933 103.6V100.267C168.933 100.09 168.863 99.9203 168.738 99.7952C168.613 99.6702 168.443 99.6 168.266 99.6C168.089 99.6 167.92 99.6702 167.795 99.7952C167.67 99.9203 167.6 100.09 167.6 100.267V103.6H164.266C164.089 103.6 163.92 103.67 163.795 103.795C163.67 103.92 163.6 104.09 163.6 104.267C163.6 104.443 163.67 104.613 163.795 104.738C163.92 104.863 164.089 104.933 164.266 104.933H167.6V108.267C167.6 108.443 167.67 108.613 167.795 108.738C167.92 108.863 168.089 108.933 168.266 108.933C168.443 108.933 168.613 108.863 168.738 108.738C168.863 108.613 168.933 108.443 168.933 108.267V104.933H172.266C172.443 104.933 172.613 104.863 172.738 104.738C172.863 104.613 172.933 104.443 172.933 104.267C172.933 104.09 172.863 103.92 172.738 103.795C172.613 103.67 172.443 103.6 172.266 103.6H168.933Z" fill="#CBA1B7"/>
<path d="M8.93343 135.6V132.267C8.93343 132.09 8.86319 131.92 8.73817 131.795C8.61314 131.67 8.44357 131.6 8.26676 131.6C8.08995 131.6 7.92038 131.67 7.79536 131.795C7.67034 131.92 7.6001 132.09 7.6001 132.267V135.6H4.26676C4.08995 135.6 3.92038 135.67 3.79536 135.795C3.67034 135.92 3.6001 136.09 3.6001 136.267C3.6001 136.443 3.67034 136.613 3.79536 136.738C3.92038 136.863 4.08995 136.933 4.26676 136.933H7.6001V140.267C7.6001 140.443 7.67034 140.613 7.79536 140.738C7.92038 140.863 8.08995 140.933 8.26676 140.933C8.44357 140.933 8.61314 140.863 8.73817 140.738C8.86319 140.613 8.93343 140.443 8.93343 140.267V136.933H12.2668C12.4436 136.933 12.6131 136.863 12.7382 136.738C12.8632 136.613 12.9334 136.443 12.9334 136.267C12.9334 136.09 12.8632 135.92 12.7382 135.795C12.6131 135.67 12.4436 135.6 12.2668 135.6H8.93343Z" fill="#D8B8C9"/>
<path d="M40.9329 135.6V132.267C40.9329 132.09 40.8627 131.92 40.7377 131.795C40.6127 131.67 40.4431 131.6 40.2663 131.6C40.0895 131.6 39.9199 131.67 39.7949 131.795C39.6698 131.92 39.5996 132.09 39.5996 132.267V135.6H36.2663C36.0895 135.6 35.9199 135.67 35.7949 135.795C35.6698 135.92 35.5996 136.09 35.5996 136.267C35.5996 136.443 35.6698 136.613 35.7949 136.738C35.9199 136.863 36.0895 136.933 36.2663 136.933H39.5996V140.267C39.5996 140.443 39.6698 140.613 39.7949 140.738C39.9199 140.863 40.0895 140.933 40.2663 140.933C40.4431 140.933 40.6127 140.863 40.7377 140.738C40.8627 140.613 40.9329 140.443 40.9329 140.267V136.933H44.2663C44.4431 136.933 44.6127 136.863 44.7377 136.738C44.8627 136.613 44.9329 136.443 44.9329 136.267C44.9329 136.09 44.8627 135.92 44.7377 135.795C44.6127 135.67 44.4431 135.6 44.2663 135.6H40.9329Z" fill="#D8B8C9"/>
<path d="M72.9329 135.6V132.267C72.9329 132.09 72.8627 131.92 72.7377 131.795C72.6127 131.67 72.4431 131.6 72.2663 131.6C72.0895 131.6 71.9199 131.67 71.7949 131.795C71.6698 131.92 71.5996 132.09 71.5996 132.267V135.6H68.2663C68.0895 135.6 67.9199 135.67 67.7949 135.795C67.6698 135.92 67.5996 136.09 67.5996 136.267C67.5996 136.443 67.6698 136.613 67.7949 136.738C67.9199 136.863 68.0895 136.933 68.2663 136.933H71.5996V140.267C71.5996 140.443 71.6698 140.613 71.7949 140.738C71.9199 140.863 72.0895 140.933 72.2663 140.933C72.4431 140.933 72.6127 140.863 72.7377 140.738C72.8627 140.613 72.9329 140.443 72.9329 140.267V136.933H76.2663C76.4431 136.933 76.6127 136.863 76.7377 136.738C76.8627 136.613 76.9329 136.443 76.9329 136.267C76.9329 136.09 76.8627 135.92 76.7377 135.795C76.6127 135.67 76.4431 135.6 76.2663 135.6H72.9329Z" fill="#D8B8C9"/>
<path d="M104.933 135.6V132.267C104.933 132.09 104.863 131.92 104.738 131.795C104.613 131.67 104.443 131.6 104.266 131.6C104.089 131.6 103.92 131.67 103.795 131.795C103.67 131.92 103.6 132.09 103.6 132.267V135.6H100.266C100.089 135.6 99.9199 135.67 99.7949 135.795C99.6698 135.92 99.5996 136.09 99.5996 136.267C99.5996 136.443 99.6698 136.613 99.7949 136.738C99.9199 136.863 100.089 136.933 100.266 136.933H103.6V140.267C103.6 140.443 103.67 140.613 103.795 140.738C103.92 140.863 104.089 140.933 104.266 140.933C104.443 140.933 104.613 140.863 104.738 140.738C104.863 140.613 104.933 140.443 104.933 140.267V136.933H108.266C108.443 136.933 108.613 136.863 108.738 136.738C108.863 136.613 108.933 136.443 108.933 136.267C108.933 136.09 108.863 135.92 108.738 135.795C108.613 135.67 108.443 135.6 108.266 135.6H104.933Z" fill="#D8B8C9"/>
<path d="M136.933 135.6V132.267C136.933 132.09 136.863 131.92 136.738 131.795C136.613 131.67 136.443 131.6 136.266 131.6C136.089 131.6 135.92 131.67 135.795 131.795C135.67 131.92 135.6 132.09 135.6 132.267V135.6H132.266C132.089 135.6 131.92 135.67 131.795 135.795C131.67 135.92 131.6 136.09 131.6 136.267C131.6 136.443 131.67 136.613 131.795 136.738C131.92 136.863 132.089 136.933 132.266 136.933H135.6V140.267C135.6 140.443 135.67 140.613 135.795 140.738C135.92 140.863 136.089 140.933 136.266 140.933C136.443 140.933 136.613 140.863 136.738 140.738C136.863 140.613 136.933 140.443 136.933 140.267V136.933H140.266C140.443 136.933 140.613 136.863 140.738 136.738C140.863 136.613 140.933 136.443 140.933 136.267C140.933 136.09 140.863 135.92 140.738 135.795C140.613 135.67 140.443 135.6 140.266 135.6H136.933Z" fill="#D8B8C9"/>
<path d="M168.933 135.6V132.267C168.933 132.09 168.863 131.92 168.738 131.795C168.613 131.67 168.443 131.6 168.266 131.6C168.089 131.6 167.92 131.67 167.795 131.795C167.67 131.92 167.6 132.09 167.6 132.267V135.6H164.266C164.089 135.6 163.92 135.67 163.795 135.795C163.67 135.92 163.6 136.09 163.6 136.267C163.6 136.443 163.67 136.613 163.795 136.738C163.92 136.863 164.089 136.933 164.266 136.933H167.6V140.267C167.6 140.443 167.67 140.613 167.795 140.738C167.92 140.863 168.089 140.933 168.266 140.933C168.443 140.933 168.613 140.863 168.738 140.738C168.863 140.613 168.933 140.443 168.933 140.267V136.933H172.266C172.443 136.933 172.613 136.863 172.738 136.738C172.863 136.613 172.933 136.443 172.933 136.267C172.933 136.09 172.863 135.92 172.738 135.795C172.613 135.67 172.443 135.6 172.266 135.6H168.933Z" fill="#D8B8C9"/>
<path d="M8.93343 167.6V164.267C8.93343 164.09 8.86319 163.92 8.73817 163.795C8.61314 163.67 8.44357 163.6 8.26676 163.6C8.08995 163.6 7.92038 163.67 7.79536 163.795C7.67034 163.92 7.6001 164.09 7.6001 164.267V167.6H4.26676C4.08995 167.6 3.92038 167.67 3.79536 167.795C3.67034 167.92 3.6001 168.09 3.6001 168.267C3.6001 168.443 3.67034 168.613 3.79536 168.738C3.92038 168.863 4.08995 168.933 4.26676 168.933H7.6001V172.267C7.6001 172.443 7.67034 172.613 7.79536 172.738C7.92038 172.863 8.08995 172.933 8.26676 172.933C8.44357 172.933 8.61314 172.863 8.73817 172.738C8.86319 172.613 8.93343 172.443 8.93343 172.267V168.933H12.2668C12.4436 168.933 12.6131 168.863 12.7382 168.738C12.8632 168.613 12.9334 168.443 12.9334 168.267C12.9334 168.09 12.8632 167.92 12.7382 167.795C12.6131 167.67 12.4436 167.6 12.2668 167.6H8.93343Z" fill="#D8B8C9"/>
<path d="M40.9329 167.6V164.267C40.9329 164.09 40.8627 163.92 40.7377 163.795C40.6127 163.67 40.4431 163.6 40.2663 163.6C40.0895 163.6 39.9199 163.67 39.7949 163.795C39.6698 163.92 39.5996 164.09 39.5996 164.267V167.6H36.2663C36.0895 167.6 35.9199 167.67 35.7949 167.795C35.6698 167.92 35.5996 168.09 35.5996 168.267C35.5996 168.443 35.6698 168.613 35.7949 168.738C35.9199 168.863 36.0895 168.933 36.2663 168.933H39.5996V172.267C39.5996 172.443 39.6698 172.613 39.7949 172.738C39.9199 172.863 40.0895 172.933 40.2663 172.933C40.4431 172.933 40.6127 172.863 40.7377 172.738C40.8627 172.613 40.9329 172.443 40.9329 172.267V168.933H44.2663C44.4431 168.933 44.6127 168.863 44.7377 168.738C44.8627 168.613 44.9329 168.443 44.9329 168.267C44.9329 168.09 44.8627 167.92 44.7377 167.795C44.6127 167.67 44.4431 167.6 44.2663 167.6H40.9329Z" fill="#D8B8C9"/>
<path d="M72.9329 167.6V164.267C72.9329 164.09 72.8627 163.92 72.7377 163.795C72.6127 163.67 72.4431 163.6 72.2663 163.6C72.0895 163.6 71.9199 163.67 71.7949 163.795C71.6698 163.92 71.5996 164.09 71.5996 164.267V167.6H68.2663C68.0895 167.6 67.9199 167.67 67.7949 167.795C67.6698 167.92 67.5996 168.09 67.5996 168.267C67.5996 168.443 67.6698 168.613 67.7949 168.738C67.9199 168.863 68.0895 168.933 68.2663 168.933H71.5996V172.267C71.5996 172.443 71.6698 172.613 71.7949 172.738C71.9199 172.863 72.0895 172.933 72.2663 172.933C72.4431 172.933 72.6127 172.863 72.7377 172.738C72.8627 172.613 72.9329 172.443 72.9329 172.267V168.933H76.2663C76.4431 168.933 76.6127 168.863 76.7377 168.738C76.8627 168.613 76.9329 168.443 76.9329 168.267C76.9329 168.09 76.8627 167.92 76.7377 167.795C76.6127 167.67 76.4431 167.6 76.2663 167.6H72.9329Z" fill="#D8645B"/>
<path d="M104.933 167.6V164.267C104.933 164.09 104.863 163.92 104.738 163.795C104.613 163.67 104.443 163.6 104.266 163.6C104.089 163.6 103.92 163.67 103.795 163.795C103.67 163.92 103.6 164.09 103.6 164.267V167.6H100.266C100.089 167.6 99.9199 167.67 99.7949 167.795C99.6698 167.92 99.5996 168.09 99.5996 168.267C99.5996 168.443 99.6698 168.613 99.7949 168.738C99.9199 168.863 100.089 168.933 100.266 168.933H103.6V172.267C103.6 172.443 103.67 172.613 103.795 172.738C103.92 172.863 104.089 172.933 104.266 172.933C104.443 172.933 104.613 172.863 104.738 172.738C104.863 172.613 104.933 172.443 104.933 172.267V168.933H108.266C108.443 168.933 108.613 168.863 108.738 168.738C108.863 168.613 108.933 168.443 108.933 168.267C108.933 168.09 108.863 167.92 108.738 167.795C108.613 167.67 108.443 167.6 108.266 167.6H104.933Z" fill="#D8B8C9"/>
<path d="M136.933 167.6V164.267C136.933 164.09 136.863 163.92 136.738 163.795C136.613 163.67 136.443 163.6 136.266 163.6C136.089 163.6 135.92 163.67 135.795 163.795C135.67 163.92 135.6 164.09 135.6 164.267V167.6H132.266C132.089 167.6 131.92 167.67 131.795 167.795C131.67 167.92 131.6 168.09 131.6 168.267C131.6 168.443 131.67 168.613 131.795 168.738C131.92 168.863 132.089 168.933 132.266 168.933H135.6V172.267C135.6 172.443 135.67 172.613 135.795 172.738C135.92 172.863 136.089 172.933 136.266 172.933C136.443 172.933 136.613 172.863 136.738 172.738C136.863 172.613 136.933 172.443 136.933 172.267V168.933H140.266C140.443 168.933 140.613 168.863 140.738 168.738C140.863 168.613 140.933 168.443 140.933 168.267C140.933 168.09 140.863 167.92 140.738 167.795C140.613 167.67 140.443 167.6 140.266 167.6H136.933Z" fill="#D8B8C9"/>
<path d="M168.933 167.6V164.267C168.933 164.09 168.863 163.92 168.738 163.795C168.613 163.67 168.443 163.6 168.266 163.6C168.089 163.6 167.92 163.67 167.795 163.795C167.67 163.92 167.6 164.09 167.6 164.267V167.6H164.266C164.089 167.6 163.92 167.67 163.795 167.795C163.67 167.92 163.6 168.09 163.6 168.267C163.6 168.443 163.67 168.613 163.795 168.738C163.92 168.863 164.089 168.933 164.266 168.933H167.6V172.267C167.6 172.443 167.67 172.613 167.795 172.738C167.92 172.863 168.089 172.933 168.266 172.933C168.443 172.933 168.613 172.863 168.738 172.738C168.863 172.613 168.933 172.443 168.933 172.267V168.933H172.266C172.443 168.933 172.613 168.863 172.738 168.738C172.863 168.613 172.933 168.443 172.933 168.267C172.933 168.09 172.863 167.92 172.738 167.795C172.613 167.67 172.443 167.6 172.266 167.6H168.933Z" fill="#D8B8C9"/>
</g>
<defs>
<clipPath id="clip0_2000_13901">
<rect width="176" height="176" fill="white"/>
</clipPath>
</defs>
</svg>
