<svg width="142" height="22" viewBox="0 0 142 22" fill="none" xmlns="http://www.w3.org/2000/svg">
<g clip-path="url(#clip0_3474_68120)">
<path d="M22.0386 1.03253H18.0386C15.6309 0.896884 13.2609 1.67634 11.4036 3.21457C10.569 4.03 9.92009 5.01567 9.50093 6.10458C9.08176 7.19349 8.90224 8.35992 8.97462 9.52447V20.9544H13.6176V9.12562C13.5826 8.58183 13.6697 8.0369 13.8724 7.53113C14.0752 7.02536 14.3886 6.57135 14.7896 6.20239C15.705 5.46135 16.8624 5.08562 18.0386 5.14747H22.0386C23.2147 5.08618 24.3719 5.46185 25.2876 6.20239C25.686 6.57339 25.9976 7.02772 26.2001 7.53298C26.4027 8.03823 26.4913 8.58219 26.4596 9.12562V20.9556H31.1036V9.52447C31.176 8.35974 30.9963 7.19308 30.5767 6.10412C30.1572 5.01516 29.5078 4.02967 28.6726 3.21457C26.8159 1.67613 24.4461 0.896636 22.0386 1.03253Z" fill="#004291"/>
<path d="M65.3312 1.03255H61.3312C58.9238 0.897064 56.5541 1.67651 54.6972 3.21459C54.6583 3.25238 54.6262 3.28981 54.5884 3.32647C54.5502 3.28867 54.5173 3.25049 54.4784 3.21459C52.6217 1.67607 50.2518 0.896565 47.8444 1.03255H43.8444C41.4369 0.896764 39.0672 1.67625 37.2104 3.21459C36.3753 4.02969 35.7259 5.01516 35.3066 6.10414C34.8872 7.19311 34.7077 8.35982 34.7804 9.52449V20.9544H39.4184V9.12564C39.3834 8.58176 39.4705 8.03671 39.6735 7.53092C39.8765 7.02512 40.1901 6.57119 40.5914 6.20241C41.5069 5.46144 42.6642 5.08572 43.8404 5.14749H47.8404C49.0167 5.08653 50.1741 5.46215 51.0904 6.20241C51.4887 6.57341 51.8003 7.02774 52.0029 7.53299C52.2055 8.03825 52.2941 8.5822 52.2624 9.12564V20.9556H56.9064V9.12564C56.8714 8.58185 56.9584 8.03692 57.1612 7.53115C57.364 7.02538 57.6774 6.57137 58.0784 6.20241C58.994 5.46162 60.1512 5.08592 61.3273 5.14749H65.3274C66.5035 5.0863 67.6606 5.46196 68.5764 6.20241C68.9748 6.57341 69.2863 7.02774 69.4889 7.53299C69.6915 8.03825 69.7801 8.5822 69.7484 9.12564V20.9556H74.3904V9.52449C74.463 8.35982 74.2836 7.19311 73.8642 6.10414C73.4448 5.01516 72.7954 4.02969 71.9604 3.21459C70.1035 1.67633 67.7338 0.896855 65.3264 1.03255" fill="#004291"/>
<path d="M130.196 10.2425C130.551 9.83406 130.808 9.35013 130.947 8.82753C131.134 8.01433 131.215 7.18045 131.188 6.34652C131.257 5.49808 131.095 4.64671 130.72 3.88259C130.345 3.11846 129.771 2.46996 129.057 2.00551C127.594 1.27584 125.966 0.940442 124.333 1.03248H109.575V20.9555H125.558C127.33 21.0937 129.092 20.5896 130.523 19.5354C131.617 18.5744 132.171 16.9873 132.171 14.8193C132.171 12.6053 131.507 11.0695 130.196 10.2425ZM124.387 8.47435H114.218V5.17442H124.358C126.304 5.17442 126.573 5.99155 126.573 6.87456C126.573 7.70356 126.31 8.47435 124.387 8.47435ZM114.218 12.6405H125.018C127.256 12.6405 127.558 13.6355 127.558 14.6085C127.558 16.1565 126.858 16.7875 125.158 16.7875H114.218V12.6405Z" fill="#004291"/>
<path d="M140.499 1.05249H135.781V20.9554H140.499V1.05249Z" fill="#004291"/>
<path d="M77.4947 7.88756C77.5061 7.87245 77.5175 7.85735 77.525 7.83958L77.59 7.74546C77.649 7.66458 77.7068 7.58865 77.7691 7.51155C77.7956 7.47753 77.8081 7.46053 77.8213 7.44465L77.8515 7.41051C77.9806 7.26134 78.1181 7.11977 78.2635 6.98651L78.3134 6.94153C78.3936 6.86858 78.4816 6.79577 78.5723 6.72169C78.6192 6.68389 78.6634 6.6476 78.7122 6.60981L78.7348 6.59458C78.996 6.39856 79.2711 6.22182 79.5579 6.06562L79.658 6.01256C79.867 5.90069 80.081 5.79949 80.304 5.70575L80.3267 5.69445C80.4336 5.64947 80.5467 5.60519 80.6616 5.56135L80.8127 5.50737C81.0127 5.43631 81.2237 5.36821 81.4417 5.30736C81.5079 5.28847 81.5767 5.26746 81.6466 5.24969C81.6768 5.24213 81.7074 5.2345 81.7366 5.22316C81.7668 5.21182 81.8235 5.19667 81.8715 5.18533C82.2415 5.08517 82.5985 5.0104 82.9305 4.94842C83.0873 4.91818 83.2396 4.89367 83.3835 4.87137H83.3911L83.4318 4.86376L83.4927 4.85615H83.5116C83.6386 4.83725 83.7588 4.82215 83.8695 4.80816L83.9035 4.80447C84.0177 4.78935 84.1235 4.77798 84.2207 4.76664L84.2796 4.76272H84.3061H84.3363H84.3771L84.5631 4.74772H84.5857L84.6859 4.74011H84.7237C84.8359 4.72813 84.9487 4.7218 85.0616 4.7212H98.8276C99.3389 4.7192 99.844 4.83246 100.305 5.05269C100.767 5.27292 101.173 5.59443 101.493 5.99319L101.446 5.74105C101.424 5.64089 101.403 5.54733 101.378 5.44831L101.352 5.34012C101.326 5.23996 101.297 5.14016 101.265 5.04L101.187 4.80009C101.141 4.66352 101.088 4.52643 101.03 4.38901V4.37771C100.706 3.55033 100.175 2.82033 99.4868 2.25795C98.7988 1.69557 97.9776 1.31964 97.1024 1.16658L97.0022 1.14398C96.9093 1.12508 96.8133 1.11 96.7161 1.09715H96.6783C96.5842 1.08581 96.4874 1.07435 96.3914 1.06301C96.3154 1.05545 96.2387 1.04936 96.1616 1.04432C96.1106 1.04432 96.0615 1.03657 96.0075 1.03279H95.9772C95.8392 1.02523 95.699 1.02148 95.5542 1.02148H85.3242C81.0812 1.02148 77.6142 4.09246 77.4902 7.90948" fill="#004291"/>
<path d="M102.1 14.8164C102.088 14.8633 102.077 14.9165 102.062 14.9634V14.9784C102.047 15.0294 102.035 15.0785 102.018 15.1352L102.01 15.1541C101.995 15.207 101.976 15.2641 101.957 15.3212L101.954 15.3364C101.935 15.3965 101.912 15.4585 101.889 15.5205V15.5281C101.708 16.0022 101.473 16.4536 101.189 16.8739L101.181 16.8854C101.13 16.9615 101.076 17.0379 101.021 17.1145L101.01 17.1295C100.951 17.2085 100.891 17.2876 100.827 17.3685C100.615 17.634 100.386 17.885 100.141 18.1203L100.133 18.1279C100.052 18.205 99.9693 18.2828 99.8824 18.3588L99.8344 18.4008C99.7595 18.4669 99.6832 18.532 99.6042 18.6008C99.5815 18.6197 99.5592 18.6385 99.5351 18.6548C99.4591 18.7168 99.3801 18.7776 99.3 18.8389L99.2221 18.8958C99.1382 18.9567 99.0513 19.0187 98.9621 19.0799L98.891 19.13C98.7852 19.201 98.6771 19.271 98.5649 19.3401L98.5384 19.3551C98.2925 19.5066 98.0295 19.6541 97.7494 19.798L97.6425 19.8522C97.5423 19.9033 97.4346 19.9519 97.3276 20.0052L97.1795 20.0721C97.0793 20.1163 96.9795 20.1613 96.8794 20.204L96.7104 20.2739C96.6092 20.3153 96.5052 20.3563 96.3986 20.3969L96.2194 20.4649C96.1076 20.5058 95.9934 20.5457 95.8785 20.5847C95.8196 20.6036 95.7625 20.6254 95.7024 20.6446C95.5691 20.6887 95.4291 20.7326 95.2825 20.7759L95.1604 20.814C94.9812 20.8661 94.7983 20.9142 94.6094 20.966H97.7313C102.52 20.966 106.416 17.78 106.416 13.866V8.0959C106.416 4.40693 102.959 1.36711 98.5544 1.02612L98.5657 1.02981L98.6046 1.04873C98.7048 1.09484 98.7895 1.13556 98.8715 1.17676L98.9486 1.2169C99.0393 1.26477 99.127 1.31429 99.2116 1.36569L99.2668 1.39983C99.3568 1.45577 99.4267 1.49993 99.4939 1.54793L99.5541 1.58922C99.6312 1.64327 99.7053 1.70024 99.7782 1.75693L99.8561 1.82083C99.9211 1.87374 99.9872 1.92886 100.05 1.98669C100.065 2.00181 100.088 2.02085 100.107 2.03975C100.164 2.09191 100.218 2.13994 100.271 2.19777C100.29 2.21666 100.311 2.23882 100.332 2.26074C100.399 2.32991 100.458 2.39385 100.513 2.46075C100.536 2.48342 100.555 2.50872 100.576 2.5348C100.615 2.58166 100.657 2.63508 100.697 2.68497L100.752 2.75487C100.801 2.81799 100.852 2.88472 100.895 2.95464L100.952 3.03792C100.99 3.09272 101.025 3.14904 101.057 3.20309L101.112 3.28913C101.15 3.35225 101.182 3.409 101.212 3.46607L101.265 3.56618C101.299 3.63006 101.334 3.69634 101.365 3.76134L101.476 3.9971C101.491 4.03603 101.506 4.0621 101.516 4.09007C101.542 4.14601 101.571 4.21508 101.598 4.285L101.632 4.36712C101.655 4.4223 101.673 4.47818 101.691 4.53298C101.701 4.55672 101.71 4.58104 101.717 4.60588C101.733 4.65085 101.751 4.70619 101.767 4.75305L101.807 4.88293C101.83 4.95285 101.849 5.02095 101.868 5.08293L101.928 5.31385C101.932 5.33274 101.94 5.35899 101.947 5.38582C101.962 5.44478 101.978 5.51454 101.992 5.58559L102.004 5.63542L102.081 6.05665C102.084 6.07182 102.087 6.08703 102.088 6.10256C102.111 6.23144 102.127 6.36749 102.14 6.49656V6.52309C102.152 6.63005 102.163 6.75514 102.174 6.87004C102.182 6.9702 102.19 7.09302 102.197 7.21699L102.216 8.017V13.9979C102.216 14.2717 102.18 14.5444 102.11 14.809V14.8203" fill="#004291"/>
<path d="M78.6479 7.3744C78.5184 7.49259 78.3959 7.6181 78.2809 7.75042C78.2733 7.76175 78.2582 7.77694 78.2427 7.79471L78.2027 7.84753C78.1479 7.91556 78.0957 7.98437 78.0447 8.05353L77.9838 8.13981C77.9388 8.2086 77.892 8.28189 77.8497 8.35181L77.8232 8.39795C77.782 8.46976 77.7442 8.54189 77.7113 8.60879C77.6713 8.69194 77.6414 8.76061 77.6165 8.82448C77.59 8.88835 77.5685 8.95044 77.5556 8.99542L77.5481 9.01802C77.5367 9.05998 77.5254 9.09411 77.5178 9.12322L77.5102 9.15344C77.5102 9.17611 77.4989 9.1923 77.4989 9.20742L77.4951 9.23394V13.864C77.4951 17.781 80.9952 20.964 85.2951 20.964H91.7512C96.9122 20.29 99.3892 18.4278 100.576 16.7978C100.049 17.1057 99.4495 17.2676 98.8392 17.2668H85.0699C84.1884 17.2781 83.3385 16.9394 82.7064 16.3249C82.0743 15.7105 81.7116 14.8703 81.6979 13.9888V7.97879C81.6987 7.50724 81.8026 7.04171 82.0023 6.61453C82.202 6.18735 82.4926 5.8089 82.8539 5.50586L82.0099 5.69986C81.9698 5.7112 81.9339 5.72253 81.8988 5.73008L81.7907 5.7603L81.5998 5.81313C81.3919 5.87323 81.1909 5.93726 80.9998 6.00529L80.8588 6.05512C80.7489 6.09707 80.6389 6.13893 80.535 6.18315L80.5122 6.19445C80.3123 6.28138 80.1123 6.37449 79.9183 6.47842L79.8431 6.51833C79.581 6.66019 79.3293 6.82065 79.0901 6.99839L79.0451 7.03253C78.9211 7.13268 78.8002 7.23229 78.694 7.32526L78.6479 7.3744Z" fill="#004291"/>
<path d="M5.23202 1.03442H0.5V20.9985H5.23202V1.03442Z" fill="#004291"/>
<path d="M0.5 20.9994V1.03558H5.23202V20.9994H0.5ZM94.6001 20.9692C94.7879 20.9201 94.9712 20.8692 95.151 20.8174L95.2738 20.7796C95.4178 20.7365 95.5558 20.6914 95.6929 20.6483C95.753 20.6294 95.8097 20.6082 95.869 20.5874C95.9829 20.5486 96.0963 20.5088 96.2092 20.4677L96.3883 20.4008C96.4945 20.3596 96.5984 20.32 96.7012 20.2781L96.8702 20.208C96.9704 20.1649 97.0701 20.1201 97.1703 20.0751L97.3184 20.0082C97.4254 19.9583 97.5294 19.9079 97.6333 19.855L97.7402 19.801C98.0184 19.6589 98.2813 19.509 98.5283 19.3581L98.5547 19.3429C98.6666 19.273 98.7747 19.2019 98.8809 19.1327L98.9531 19.0818C99.043 19.0209 99.128 18.9589 99.212 18.8977L99.291 18.8407C99.37 18.7798 99.449 18.7186 99.5249 18.6566C99.5476 18.6377 99.571 18.6225 99.5929 18.6017C99.673 18.5378 99.7479 18.4729 99.8239 18.4079L99.8719 18.3648C99.9599 18.2877 100.042 18.211 100.122 18.1327L100.133 18.1251C100.378 17.8905 100.607 17.6397 100.818 17.3742C100.881 17.2941 100.942 17.2149 101 17.1359L101.012 17.117C101.066 17.0399 101.12 16.9642 101.171 16.8882C101.175 16.8849 101.179 16.8809 101.182 16.8767C101.467 16.4568 101.702 16.0052 101.882 15.5308C101.882 15.5283 101.882 15.5257 101.882 15.5232C101.905 15.4612 101.927 15.3992 101.948 15.3391C101.949 15.3341 101.949 15.3289 101.948 15.3239C101.967 15.2668 101.986 15.2098 102 15.1569C102 15.1493 102 15.1455 102.011 15.138C102.026 15.0839 102.042 15.0378 102.054 14.9811C102.054 14.9811 102.054 14.9699 102.054 14.9661C102.066 14.9151 102.081 14.866 102.093 14.8192C102.093 14.8154 102.093 14.8114 102.093 14.8076C102.163 14.543 102.198 14.2706 102.199 13.9968V8.01585L102.18 7.21584C102.18 7.09187 102.168 6.96581 102.157 6.86981C102.146 6.75491 102.134 6.62984 102.123 6.52401V6.49379C102.112 6.36491 102.093 6.22882 102.071 6.09979C102.068 6.08455 102.064 6.06952 102.06 6.0548L101.983 5.63196L101.971 5.58282C101.956 5.51366 101.941 5.44367 101.926 5.38282C101.921 5.35816 101.915 5.33386 101.907 5.30992L101.847 5.07901C101.828 5.01211 101.808 4.94477 101.786 4.87901L101.746 4.7489L101.696 4.60195C101.685 4.5755 101.678 4.54722 101.67 4.53021C101.651 4.47427 101.631 4.41913 101.61 4.3632L101.576 4.28223C101.549 4.21231 101.52 4.143 101.494 4.08707C101.483 4.06061 101.471 4.03249 101.454 3.99318L101.342 3.75719C101.312 3.69105 101.276 3.62615 101.242 3.56341L101.188 3.46307C101.154 3.406 101.124 3.3491 101.088 3.28636L101.033 3.20124C100.999 3.1453 100.964 3.09016 100.927 3.03423L100.869 2.95326C100.825 2.88522 100.775 2.81962 100.727 2.75348C100.705 2.72703 100.685 2.70225 100.671 2.68336C100.631 2.62931 100.588 2.5833 100.549 2.53341C100.53 2.50771 100.509 2.48339 100.486 2.46051C100.431 2.39437 100.373 2.33157 100.306 2.26051C100.284 2.23783 100.264 2.21545 100.245 2.1973C100.193 2.1425 100.139 2.09052 100.081 2.03836C100.063 2.01946 100.039 1.99946 100.024 1.98623C99.9612 1.9284 99.8955 1.87303 99.8312 1.81898L99.7523 1.75601C99.6793 1.69893 99.6064 1.64302 99.5304 1.58784C99.5077 1.57272 99.4873 1.5575 99.4696 1.54654C99.4027 1.50043 99.3335 1.45554 99.2436 1.3996L99.1884 1.36546C99.1033 1.31443 99.0152 1.26536 98.9253 1.21736L98.8474 1.17722C98.7643 1.1364 98.6804 1.09643 98.5795 1.04919L98.5406 1.03027H98.5292C102.929 1.37005 106.389 4.41133 106.389 8.09935V13.8653C106.389 17.7823 102.489 20.9653 97.7052 20.9653L94.6001 20.9692ZM85.294 20.9692C80.994 20.9692 77.494 17.7822 77.494 13.8692V9.24032V9.21379C77.494 9.19867 77.5053 9.17982 77.5053 9.15866L77.5167 9.12844C77.528 9.0982 77.5356 9.06649 77.5469 9.02832L77.5583 9.00548C77.5734 8.96051 77.5923 8.90545 77.6203 8.83478C77.6505 8.76372 77.6751 8.70087 77.7151 8.61886C77.7492 8.55196 77.785 8.47907 77.827 8.40801L77.8534 8.36187C77.8943 8.29309 77.9404 8.21904 77.9853 8.14987L78.0473 8.06406C78.0972 7.99489 78.1475 7.92494 78.2042 7.85691L78.2461 7.80408L78.2843 7.7591C78.3994 7.62783 78.5215 7.50293 78.6502 7.38493L78.6963 7.3441C78.8021 7.24394 78.9242 7.1441 79.0474 7.05113L79.0912 7.01722C79.3313 6.84019 79.5832 6.67976 79.8452 6.53716L79.9204 6.49818C80.1143 6.3984 80.3094 6.29834 80.5134 6.21444L80.5361 6.20313C80.6362 6.15816 80.75 6.115 80.8611 6.07418C80.9072 6.05906 80.9522 6.04016 81.0033 6.02504C81.1922 5.95701 81.3932 5.89206 81.6032 5.83196L81.7941 5.7789L81.9029 5.74868C81.9369 5.73735 81.9729 5.72602 82.0118 5.71846L82.8558 5.52354C82.4946 5.82678 82.204 6.2053 82.0045 6.63267C81.805 7.06003 81.7013 7.52575 81.7008 7.99739V14.0065C81.714 14.888 82.0763 15.7284 82.7082 16.3431C83.3402 16.9578 84.1902 17.2966 85.0718 17.2854H98.8368C99.4473 17.2869 100.047 17.125 100.574 16.8164C99.3868 18.4455 96.9108 20.3076 91.7498 20.9826L85.294 20.9692ZM109.571 20.9579V1.03396H124.329C125.961 0.942471 127.59 1.27784 129.053 2.00699C129.767 2.47132 130.341 3.1197 130.717 3.88383C131.092 4.64797 131.254 5.49946 131.185 6.348C131.211 7.18162 131.13 8.01502 130.943 8.82786C130.803 9.35069 130.547 9.83507 130.192 10.244C131.503 11.071 132.168 12.607 132.168 14.8219C132.168 16.99 131.613 18.576 130.52 19.536C129.09 20.5905 127.327 21.0949 125.555 20.957L109.571 20.9579ZM114.216 16.789H125.148C126.856 16.789 127.548 16.157 127.548 14.609C127.548 13.636 127.248 12.642 125.008 12.642H114.208L114.216 16.789ZM114.216 8.47399H124.384C126.306 8.47399 126.571 7.70693 126.571 6.87396C126.571 5.98895 126.301 5.17382 124.356 5.17382H114.216V8.47399ZM135.778 20.957V1.05542H140.5V20.9556L135.778 20.957ZM69.749 20.957V9.12682C69.7806 8.58355 69.6919 8.04017 69.4893 7.5351C69.2867 7.03003 68.9752 6.57587 68.577 6.20498C67.661 5.4643 66.5035 5.0884 65.3271 5.14983H61.327C60.1508 5.08797 58.9934 5.46394 58.078 6.20498C57.677 6.57373 57.3635 7.02744 57.1606 7.53303C56.9576 8.03861 56.8703 8.58313 56.905 9.12682V20.957H52.261V9.12682C52.2925 8.58356 52.2039 8.04017 52.0013 7.5351C51.7987 7.03003 51.4872 6.57587 51.089 6.20498C50.1726 5.46423 49.0148 5.08833 47.838 5.14983H43.838C42.6619 5.08797 41.5045 5.46394 40.589 6.20498C40.1877 6.57351 39.8741 7.02715 39.6711 7.53279C39.4681 8.03844 39.381 8.58309 39.4161 9.12682V20.957H34.774V9.52683C34.7011 8.36208 34.8805 7.19538 35.2997 6.10625C35.7189 5.0171 36.3681 4.03135 37.203 3.216C39.0598 1.67767 41.4296 0.898181 43.837 1.03396H47.8371C50.2449 0.89752 52.6152 1.67707 54.472 3.216C54.511 3.25002 54.5438 3.29085 54.5809 3.32789C54.619 3.29009 54.6519 3.25078 54.692 3.216C56.5485 1.67781 58.9179 0.898323 61.325 1.03396H65.325C67.7325 0.897681 70.1024 1.67722 71.959 3.216C72.7941 4.03123 73.4435 5.01707 73.8627 6.10625C74.2819 7.19542 74.4611 8.36206 74.388 9.52683V20.957H69.749ZM26.457 20.957V9.12682C26.4886 8.58356 26.3999 8.04017 26.1973 7.5351C25.9947 7.03003 25.6832 6.57587 25.285 6.20498C24.3691 5.46421 23.2115 5.0883 22.035 5.14983H18.035C16.8592 5.08794 15.7021 5.46392 14.7871 6.20498C14.3862 6.57378 14.0728 7.02743 13.87 7.53303C13.6672 8.03862 13.5801 8.5832 13.615 9.12682V20.957H8.97101V9.52683C8.89868 8.36204 9.07831 7.19556 9.49766 6.10648C9.917 5.01739 10.5662 4.0315 11.401 3.216C13.2578 1.67767 15.6276 0.898181 18.035 1.03396H22.035C24.4429 0.89772 26.8131 1.67724 28.67 3.216C29.5051 4.03137 30.1545 5.01715 30.574 6.10625C30.9936 7.19534 31.1733 8.36196 31.101 9.52683V20.957H26.457ZM85.33 1.00098H95.552C95.6979 1.00098 95.8382 1.00094 95.976 1.01228H96.0062L96.1605 1.02358C96.2383 1.02358 96.3135 1.03494 96.3902 1.0425C96.4904 1.05006 96.5841 1.06138 96.6782 1.07272H96.7123C96.8124 1.08784 96.9054 1.10292 96.9991 1.11955L97.0989 1.14239C97.9743 1.29561 98.7955 1.67143 99.4834 2.23398C100.171 2.79653 100.703 3.52669 101.027 4.3542C101.027 4.3542 101.027 4.36172 101.027 4.3655C101.084 4.50283 101.137 4.64018 101.184 4.7775L101.262 5.01765C101.296 5.1178 101.322 5.21761 101.349 5.31777L101.375 5.42573C101.401 5.52588 101.422 5.62572 101.443 5.7187L101.489 5.97083C101.169 5.57217 100.763 5.25071 100.302 5.03033C99.8405 4.80996 99.3355 4.69617 98.8242 4.69769H85.0682C84.9503 4.69769 84.8312 4.70535 84.7303 4.71291H84.6925L84.5924 4.72053H84.5697L84.3837 4.73552H84.3418H84.3116H84.2888H84.2287C84.1286 4.74686 84.0288 4.75823 83.9128 4.77335H83.8788C83.7669 4.78847 83.6467 4.80359 83.5197 4.82249H83.5008L83.4388 4.8301L83.3969 4.83771H83.3855C83.2404 4.86039 83.0854 4.88673 82.9315 4.91545C82.5997 4.97744 82.2426 5.05448 81.8726 5.15237C81.8235 5.1637 81.7807 5.17886 81.7365 5.1902C81.6926 5.20154 81.6786 5.20917 81.6465 5.21673C81.5766 5.23562 81.5075 5.25556 81.4406 5.27371C81.2236 5.33682 81.0105 5.40492 80.8125 5.47371L80.6606 5.52584C80.5465 5.57082 80.4327 5.61397 80.3265 5.65895L80.3038 5.67025C80.0797 5.76436 79.8669 5.87012 79.6578 5.97822L79.5577 6.03035C79.2705 6.18636 78.9951 6.36337 78.7337 6.55954L78.711 6.57453C78.6619 6.61233 78.6169 6.64938 78.5701 6.68642C78.4801 6.76049 78.3909 6.83354 78.3119 6.90649L78.262 6.95147C78.1166 7.0843 77.979 7.22538 77.85 7.37431L77.8198 7.40846C77.8084 7.42735 77.7933 7.44249 77.7676 7.47651C77.7045 7.55361 77.6474 7.62952 77.5877 7.70927L77.5238 7.80339C77.5125 7.81851 77.5012 7.83737 77.4936 7.85022C77.6157 4.0722 81.086 1.00098 85.33 1.00098Z" fill="#0B4DCC"/>
</g>
<defs>
<clipPath id="clip0_3474_68120">
<rect width="141" height="20.9986" fill="white" transform="translate(0.5 0.500732)"/>
</clipPath>
</defs>
</svg>
