<svg width="34" height="34" viewBox="0 0 34 34" fill="none" xmlns="http://www.w3.org/2000/svg">
<g id="icon / jam-icons / outline &#38; logos / linkedin">
<path id="Vector" d="M31.1083 19.4352V29.8888H25.0478V20.1351C25.0478 17.6842 24.1708 16.0126 21.9778 16.0126C20.3033 16.0126 19.306 17.1402 18.8683 18.2297C18.7082 18.6192 18.6671 19.1618 18.6671 19.7072V29.8888H12.6038C12.6038 29.8888 12.6859 13.3705 12.6038 11.6577H18.6671V14.2417L18.6274 14.3012H18.6671V14.2417C19.4718 13.0022 20.9097 11.2299 24.1298 11.2299C28.1177 11.2299 31.1083 13.8366 31.1083 19.4352ZM6.26276 2.87016C4.19017 2.87016 2.83301 4.23016 2.83301 6.01941C2.83301 7.769 4.15051 9.17008 6.18342 9.17008H6.22309C8.33817 9.17008 9.65142 7.769 9.65142 6.01941C9.61459 4.23016 8.33959 2.87016 6.26417 2.87016H6.26276ZM3.19284 29.8888H9.25334V11.6577H3.19284V29.8888Z" fill="url(#paint0_linear_2007_14368)"/>
</g>
<defs>
<linearGradient id="paint0_linear_2007_14368" x1="16.9706" y1="2.87016" x2="16.9706" y2="29.8888" gradientUnits="userSpaceOnUse">
<stop stop-color="#62104B"/>
<stop offset="1" stop-color="#7C144C"/>
</linearGradient>
</defs>
</svg>
