<svg width="29" height="29" viewBox="0 0 29 29" fill="none" xmlns="http://www.w3.org/2000/svg">
<path d="M24.125 2.78711H4.875C4.41087 2.78711 3.96575 2.97148 3.63756 3.29967C3.30937 3.62786 3.125 4.07298 3.125 4.53711V23.7871C3.125 24.2512 3.30937 24.6964 3.63756 25.0245C3.96575 25.3527 4.41087 25.5371 4.875 25.5371H24.125C24.5891 25.5371 25.0342 25.3527 25.3624 25.0245C25.6906 24.6964 25.875 24.2512 25.875 23.7871V4.53711C25.875 4.07298 25.6906 3.62786 25.3624 3.29967C25.0342 2.97148 24.5891 2.78711 24.125 2.78711ZM11 19.4121C11 19.6442 10.9078 19.8667 10.7437 20.0308C10.5796 20.1949 10.3571 20.2871 10.125 20.2871C9.89294 20.2871 9.67038 20.1949 9.50628 20.0308C9.34219 19.8667 9.25 19.6442 9.25 19.4121V12.4121C9.25 12.18 9.34219 11.9575 9.50628 11.7934C9.67038 11.6293 9.89294 11.5371 10.125 11.5371C10.3571 11.5371 10.5796 11.6293 10.7437 11.7934C10.9078 11.9575 11 12.18 11 12.4121V19.4121ZM10.125 10.6621C9.86541 10.6621 9.61165 10.5851 9.39581 10.4409C9.17998 10.2967 9.01175 10.0917 8.91241 9.85188C8.81307 9.61205 8.78708 9.34815 8.83772 9.09355C8.88836 8.83895 9.01337 8.60509 9.19692 8.42153C9.38048 8.23798 9.61434 8.11297 9.86894 8.06233C10.1235 8.01169 10.3874 8.03768 10.6273 8.13702C10.8671 8.23636 11.0721 8.40458 11.2163 8.62042C11.3605 8.83626 11.4375 9.09002 11.4375 9.34961C11.4375 9.69771 11.2992 10.0315 11.0531 10.2777C10.8069 10.5238 10.4731 10.6621 10.125 10.6621ZM20.625 19.4121C20.625 19.6442 20.5328 19.8667 20.3687 20.0308C20.2046 20.1949 19.9821 20.2871 19.75 20.2871C19.5179 20.2871 19.2954 20.1949 19.1313 20.0308C18.9672 19.8667 18.875 19.6442 18.875 19.4121V15.4746C18.875 14.8944 18.6445 14.338 18.2343 13.9278C17.8241 13.5176 17.2677 13.2871 16.6875 13.2871C16.1073 13.2871 15.5509 13.5176 15.1407 13.9278C14.7305 14.338 14.5 14.8944 14.5 15.4746V19.4121C14.5 19.6442 14.4078 19.8667 14.2437 20.0308C14.0796 20.1949 13.8571 20.2871 13.625 20.2871C13.3929 20.2871 13.1704 20.1949 13.0063 20.0308C12.8422 19.8667 12.75 19.6442 12.75 19.4121V12.4121C12.7511 12.1978 12.8308 11.9913 12.974 11.8319C13.1172 11.6724 13.314 11.5711 13.527 11.547C13.74 11.523 13.9543 11.578 14.1295 11.7016C14.3046 11.8252 14.4283 12.0087 14.477 12.2174C15.069 11.8159 15.7591 11.5832 16.4733 11.5442C17.1875 11.5053 17.8988 11.6617 18.5309 11.9966C19.1629 12.3314 19.6918 12.8321 20.0607 13.4449C20.4297 14.0576 20.6248 14.7593 20.625 15.4746V19.4121Z" fill="#62104B"/>
</svg>
