<svg width="151" height="96" viewBox="0 0 151 96" fill="none" xmlns="http://www.w3.org/2000/svg">
<path fill-rule="evenodd" clip-rule="evenodd" d="M41.1645 65.1841C41.2776 63.6629 43.517 57.6081 44.6508 54.9957L45.7419 53.8148C46.2948 54.1344 47.4269 54.8957 47.5317 55.3839C47.6626 55.9941 46.1256 61.5776 45.3882 62.9609C44.6508 64.3443 43.2605 68.939 43.3595 70.8164C43.4584 72.6938 57.492 61.8246 58.417 59.9966C58.8984 59.9018 60.2429 60.1603 61.77 61.9532C61.4993 63.244 60.951 66.1434 61.4571 67.1899C62.455 69.2532 75.1652 63.0869 76.7641 56.8331C80.2103 32.6438 94.3529 0 100.378 0C112.936 2.04596 88.8725 53.0091 80.5341 60.6854C77.9056 69.6624 80.0861 73.547 81.5049 74.3671C87.8895 72.8386 103.406 58.203 104.297 56.8331C105.189 55.4632 108.789 51.1999 111.387 50.9698C113.466 50.7857 114.615 51.4486 114.93 51.803C114.968 52.8312 115.977 53.7107 116.477 54.0219C116.477 55.58 115.532 56.98 115.059 57.4852C109.447 64.303 106.274 63.6011 104.841 63.2843C104.425 63.1923 104.156 63.1327 104.016 63.2997C102.822 64.7308 102.651 67.0554 102.715 68.0388C105.689 71.29 122.837 62.8845 123.061 62.1504C123.285 61.4164 124.397 60.0643 124.926 59.48V58.6746C125.013 56.101 128.137 52.2197 132.336 54.0219C138.053 56.4764 137.096 60.2443 135.903 61.8214C138.266 61.6326 142.808 59.8428 146.107 58.5429C148.449 57.6204 150.164 56.9446 150.03 57.2627C149.771 57.8759 150.137 58.4594 150.353 58.6746C147.956 60.4091 142.289 63.9024 138.798 63.9992C135.308 64.096 134.073 65.3218 133.892 65.9226C126.434 79.3557 121.093 70.6015 122.325 64.4977C112.866 71.777 106.59 72.9693 104.635 72.6556C99.9637 72.1209 100.293 66.5915 100.401 64.7811C100.426 64.3681 100.439 64.1487 100.378 64.2262C97.12 68.4036 88.082 77.922 83.4627 76.9336C76.2535 75.3912 75.4879 67.8193 76.0063 64.2262C62.5294 75.4566 60.7238 70.5475 59.4407 67.0591C59.1236 66.1971 58.8385 65.4218 58.417 64.9982C58.158 64.7379 56.7272 66.0786 54.8485 67.8391C51.7449 70.7474 47.4187 74.8013 45.1324 74.6758C40.1854 74.4043 40.4376 68.1013 41.1645 65.1841ZM81.1171 53.7287C83.422 39.8896 90.5863 10.2744 100.804 2.52684C101.947 6.31727 99.6088 21.8642 81.1171 53.7287ZM106.617 59.0063C107.948 57.177 111.22 53.4668 113.659 53.2612C112.399 54.9191 109.227 58.3892 106.617 59.0063ZM127.704 61.6819C130.05 62.7808 131.626 62.5253 132.121 62.2602C134.343 58.175 133.193 56.1256 132.34 55.6116C132.045 55.7789 131.742 55.9322 131.445 56.0832C129.897 56.8683 128.468 57.5936 128.718 59.9105C127.936 60.431 127.716 61.3083 127.704 61.6819ZM126.19 62.9226C126.878 63.5552 128.727 64.8613 130.617 65.024C129.702 66.8847 127.284 70.5429 124.932 70.29C123.653 68.7882 125.238 64.7526 126.19 62.9226Z" fill="white"/>
<path d="M15.6358 32.4175C12.856 32.0188 14.7973 29.1981 15.6359 28.9788C19.1021 26.5505 28.7532 24.2363 38.3553 23.0794C38.3965 21.503 38.3894 19.9387 38.3302 18.3795C39.1486 18.4373 40.974 18.8302 41.728 19.9396C41.8795 20.1625 41.8875 21.1622 41.784 22.716C50.1204 21.9566 57.8456 22.1839 60.7493 24.1025C65.9793 27.5582 65.1017 28.8381 64.272 30.0482L64.245 30.0877C59.1171 24.5228 50.2966 24.0545 41.5548 25.3791C40.5839 35.0494 37.4689 54.6721 35.5907 60.673C35.4264 61.1978 35.2353 61.8313 35.017 62.555C31.9515 72.718 23.5175 100.679 8.66582 95.3255C-4.76208 90.4855 -3.13948 63.0796 17.4349 51.7941C17.823 51.7311 18.4605 51.7754 17.9061 52.4567C17.87 52.5011 17.7766 52.6046 17.6334 52.7632C15.0235 55.6548 -4.10262 76.8451 6.45081 91.5117C10.6099 97.2918 24.6581 87.3581 30.1559 66.1956C34.3235 50.1536 37.5075 37.6285 38.2277 25.9654C31.5599 27.2954 25.2233 29.4389 20.939 30.8881C18.1167 31.8428 16.185 32.4963 15.6358 32.4175Z" fill="white"/>
</svg>
