<svg width="99" height="64" viewBox="0 0 99 64" fill="none" xmlns="http://www.w3.org/2000/svg">
<g id="logo">
<g id="Group 1">
<g id="SvgjsG1183">
<path id="Vector" d="M20.9212 48.2682C20.9212 48.385 20.9212 48.4431 21.0951 48.385C20.8631 49.1437 20.805 49.7274 20.2249 50.1358C20.4569 50.661 20.1669 51.2447 19.7029 51.5366C19.7029 51.6534 19.761 51.77 19.9349 51.7115C19.7029 52.4118 19.007 52.8789 19.1228 53.4623C18.8908 53.6957 18.7746 53.8707 18.7746 54.221C18.5427 54.221 18.6585 53.9875 18.6585 53.7541C18.3104 53.9875 18.6585 54.4544 18.4846 54.8631C18.4265 54.9799 18.3107 54.8631 18.1945 54.8046C18.1945 55.5049 17.7306 55.6802 17.7306 56.3804C17.4986 56.4973 17.6725 56.147 17.5567 56.2054C17.4405 56.3223 17.5567 56.4388 17.4986 56.6138H17.2085C17.4986 56.9057 17.1505 57.0222 16.9185 57.1975C16.9185 57.3725 17.1505 57.3144 17.0346 57.5478C16.9766 57.6647 16.8027 57.6647 16.6865 57.6062C16.7446 57.8981 16.4545 58.5983 15.9325 58.5983C16.0486 58.9486 15.8744 58.9486 15.9325 59.2985C15.6424 59.2401 15.5843 59.357 15.5266 59.4154C15.5266 59.5323 15.6428 59.5904 15.5266 59.7073C15.2946 59.8822 15.1207 59.8241 14.8884 59.8822C14.8884 60.0572 15.2365 59.8822 15.1785 60.1741C14.8303 59.9991 14.7726 60.291 14.5984 60.0572C14.4822 60.1156 14.5984 60.4075 14.4822 60.4656C14.5984 60.699 14.6561 60.2906 14.8303 60.2906C14.5403 60.9909 13.9024 61.5745 13.38 61.7499C13.1481 62.3335 12.5099 62.8004 11.9878 62.8004C11.7559 63.2087 11.2338 63.559 10.7699 63.4425C9.66771 64.2596 7.17368 64.1427 6.12961 63.3256C5.95571 63.3256 5.95571 63.4425 5.83955 63.3841C2.82316 61.6333 0.735012 58.9486 0.0390727 54.9215C-0.0770821 54.7465 0.0971503 54.7465 0.155228 54.6297C0.0390729 53.9875 0.0390729 53.5207 0.155228 52.8789C0.213305 52.762 0.0971503 52.7621 0.155228 52.5871C0.445285 50.7779 0.851167 49.1437 1.31546 47.3345C1.72134 46.459 2.06947 45.4085 2.47568 44.3579C3.46168 42.4319 4.50575 40.5058 5.83988 38.8135H5.95604V38.5217C7.6383 36.829 9.32024 35.1367 12.0466 34.4362C12.0466 34.553 12.0466 34.6696 12.1627 34.6696C11.1767 35.4283 10.1904 36.2454 9.26249 37.1209C9.49447 37.1793 9.37864 36.8875 9.61063 36.9459C9.49447 37.1209 9.32057 37.2378 9.26249 37.4127C9.37864 37.3543 9.8426 37.1793 9.90068 36.829C10.3066 36.8875 9.72678 37.7046 9.61063 37.4127C9.49447 37.4712 9.55255 37.6462 9.49447 37.763C7.6383 39.5138 6.47808 41.8485 5.20202 43.9496C4.73806 45.2335 4.2741 46.5758 3.69399 47.7432C3.28811 49.6108 2.30178 52.1787 2.64992 54.6884C2.47601 55.1553 2.64992 55.9139 2.64992 56.4976C2.64992 56.6145 2.59184 56.6145 2.59184 56.7895C2.93997 58.4821 3.51976 59.941 4.50608 61.1084C5.14428 61.3418 5.95637 61.5168 6.59423 61.5752C8.10226 61.7502 9.72645 61.2834 10.7705 60.5247C11.6984 59.8826 12.6267 58.9489 13.3226 58.1318C13.4965 57.84 13.6127 57.5481 13.8447 57.2563C13.9608 56.9644 14.3086 56.906 14.4248 56.6142C15.1788 55.3887 15.7589 53.9879 16.571 52.8205C17.4989 50.2526 18.9492 47.3345 19.6451 44.4745C20.051 43.4824 20.1672 42.5484 20.5731 41.4395C20.6311 40.5639 21.1532 39.6887 21.2113 38.8132C21.3274 38.6963 21.3274 38.5214 21.4432 38.4629C22.3712 34.0856 23.5895 29.767 24.0534 25.2731C24.3435 24.2226 24.5755 22.7052 24.5755 21.7713C24.8655 20.312 24.9236 18.9116 25.0975 17.5108C20.051 18.1529 15.0626 19.6702 10.7702 21.7713C10.5963 21.7128 10.4801 21.3629 10.0162 21.421C9.43606 20.8957 9.37799 19.3784 10.4221 19.4365C10.5382 19.378 10.5382 19.2615 10.5382 19.1446C10.9441 19.0278 11.4084 18.9112 11.7562 18.7363C12.104 18.5613 11.9882 18.6194 12.1621 18.5613C12.6841 18.5613 13.4381 17.9776 14.1921 17.8026C15.7583 17.2774 17.3824 16.7521 19.0066 16.3434C19.2386 16.2849 19.4125 16.4018 19.6448 16.3434C20.4569 16.2265 21.1528 15.8181 22.023 15.7013C23.241 15.5263 24.1112 15.351 25.2133 15.176C25.5034 14.2424 25.0972 13.0165 25.3872 12.1994C26.1993 12.141 27.0695 12.6078 27.5915 13.1915C27.5334 13.7752 27.8235 14.242 27.5915 14.8257C30.4918 14.7088 33.1019 14.4173 35.9441 15.0007C37.5102 15.0007 38.7863 15.6428 40.0623 16.0512C41.1064 16.9267 42.5567 17.452 42.7887 19.0862C42.7306 19.6115 42.7306 19.6699 42.5567 20.0198C42.3828 19.8449 42.2085 19.6696 42.1508 19.3196C38.3223 16.1681 32.7541 16.4015 27.5915 17.0436C27.2434 18.8528 27.0695 20.7788 26.9533 22.5296C26.7794 22.588 26.8372 22.8214 26.7214 22.8799C26.7794 23.7554 26.6633 24.3391 26.4313 25.0978C26.5474 25.5062 26.5474 25.798 26.3151 25.9733C26.3732 26.6735 26.2571 27.4325 25.967 27.9578C26.0832 28.2496 26.1409 28.8914 25.735 29.1252C25.6769 29.3002 25.8512 29.242 25.9089 29.3001C25.6189 29.592 25.8509 30.3507 25.503 30.5256C25.503 30.8175 25.503 30.5841 25.6769 30.6425C25.5608 30.7009 25.5608 30.9928 25.5608 31.1093C25.3869 31.0509 25.3288 31.0509 25.0968 31.1093C25.0968 31.2843 25.213 31.4012 25.2707 31.4596C25.5608 31.4596 25.1546 31.2846 25.3869 31.1678C25.5608 31.2262 25.503 31.4596 25.503 31.6346C25.3291 31.693 25.0972 31.693 24.981 31.7515C25.0972 31.9264 25.0972 32.2183 25.3869 32.1017C25.2707 32.3352 25.2707 32.627 25.0968 32.627C25.0968 32.7049 25.1356 32.7244 25.213 32.6854C25.0968 32.9773 24.9229 32.7439 24.8071 32.8604C24.8652 33.0354 25.0972 33.0354 25.1552 33.1523C24.6913 33.7944 24.9813 34.7865 24.517 35.3702C24.517 35.487 24.6332 35.5451 24.6332 35.662C24.2851 36.0123 24.0531 36.4207 23.8792 36.8294C24.1112 36.8878 23.9373 36.6544 24.1692 36.7125C24.2854 36.8294 24.1112 37.0628 24.0531 37.2378C23.8792 37.2378 23.9369 37.1209 23.8792 37.1209C23.8211 37.3543 23.763 37.4712 23.9373 37.5877C24.2273 37.4708 23.9373 37.5293 23.9373 37.2959C24.4012 37.3543 24.0534 37.7043 24.0534 38.0545C23.9373 38.0545 23.8795 37.9377 23.9373 37.8211C23.7634 38.2295 24.0534 38.6967 23.6472 38.9301C23.8211 39.2804 23.8211 39.9221 23.3572 40.039C23.4733 40.3309 23.3572 40.6227 23.2991 40.9146C23.1252 40.9146 23.241 40.6812 23.241 40.6227C23.009 40.5643 23.0671 40.6812 23.009 40.6812C23.1252 40.973 23.1252 41.0314 23.0671 41.4398H22.719C22.719 41.6148 22.9509 41.5567 23.009 41.6148C22.777 41.8482 22.8351 42.0232 22.777 42.315C22.6609 42.4319 22.6031 42.2566 22.487 42.3735C22.5451 42.6653 22.777 42.315 22.9509 42.4903C22.9509 42.7822 22.6609 42.6072 22.6028 42.7237C22.6028 42.7822 22.719 42.8406 22.7767 42.9572C22.8348 43.1906 22.4286 43.0156 22.4867 43.3074C22.4867 43.5408 22.6606 43.1325 22.6606 43.3659C22.6606 43.6577 22.4866 43.8327 22.3705 43.9496C22.0804 43.9496 22.1966 43.8327 22.1966 43.5993C22.0804 43.6577 22.1385 43.9496 22.0804 44.0077C22.0804 44.1826 22.1966 43.9492 22.3124 44.0661C22.1963 44.9997 21.9643 45.8753 21.3264 46.3421C21.4426 46.4005 21.5003 46.459 21.6165 46.5171C21.3264 46.9839 21.3845 47.2757 21.3264 47.7426C21.0944 47.976 20.7463 48.0928 20.6305 48.3847C20.8044 48.4431 20.8044 48.2678 20.9205 48.2678L20.9212 48.2682ZM31.188 15.0598C31.188 15.1767 31.3042 15.2348 31.0719 15.2932C31.13 15.1182 31.0138 15.1182 31.0138 15.0598C30.9557 15.0598 30.6657 14.9429 30.6657 15.0598C30.7818 15.1767 30.9557 15.2348 30.9557 15.4101C31.1296 15.3516 31.3039 15.3516 31.4778 15.4685C31.4197 15.2935 31.4778 15.1767 31.6517 15.1767C31.7097 15.4685 32.1737 15.0598 32.1737 15.4101C32.2899 15.2932 32.4638 15.1767 32.5218 15.0017C32.0579 15.0601 31.7097 15.1186 31.1877 15.0601L31.188 15.0598ZM32.6961 15.1182C32.6961 15.1182 32.6961 15.0598 32.7541 15.0598C32.7541 15.0598 32.6961 14.9429 32.5802 15.0014C32.5802 15.0598 32.5802 15.1182 32.6964 15.1182H32.6961ZM33.392 15.4101C33.4501 15.1767 33.2181 15.2351 33.2181 15.0598H32.87C32.9861 15.1767 33.16 15.2932 33.392 15.4101ZM33.914 15.4101C34.2622 15.3516 34.4942 15.4101 34.9 15.4685C34.842 15.2351 35.0739 15.4685 35.132 15.4685C35.2482 15.4101 35.132 15.2935 35.132 15.1182C34.7839 15.2351 34.4361 15.1182 34.0299 15.0598C33.9718 15.1182 33.9137 15.2348 33.9137 15.4101H33.914ZM29.5058 15.2932C29.6797 15.2348 29.6797 15.4101 29.7958 15.4101C29.8539 15.2351 30.2017 15.1767 30.144 15.4685C30.434 15.4685 30.4921 15.3516 30.7241 15.4101C30.7241 15.1767 30.4921 15.1767 30.434 15.0598C30.2601 15.1767 30.4921 15.2932 30.3759 15.3516C30.202 15.1182 29.68 15.0014 29.5058 15.2932ZM28.9257 15.4101C28.9257 15.3516 28.8676 15.3516 28.8676 15.3516C28.8095 15.4685 28.9257 15.4685 29.0415 15.4685C29.0415 15.1767 29.3896 15.4685 29.4474 15.1767C29.3312 15.1182 29.2154 15.2351 29.0415 15.1182C28.9834 15.2351 29.0415 15.4101 28.9253 15.4101H28.9257ZM33.7982 15.1767C33.7401 15.1182 33.5662 15.1182 33.4501 15.1182C33.4501 15.4685 33.6821 15.4101 33.7982 15.1767ZM28.5198 15.4101V15.2932C28.4036 15.0598 28.2297 15.4682 28.5198 15.4101ZM32.5222 15.3516C32.5802 15.4685 32.8703 15.4685 32.8122 15.1767C32.6383 15.1767 32.5222 15.1767 32.5222 15.3516ZM35.4805 15.2932C35.4805 15.76 35.8286 15.4682 36.1187 15.6435C36.1767 15.4685 36.0025 15.4685 36.0606 15.2932C35.7705 15.2932 35.6547 15.1182 35.4805 15.2932ZM36.1764 15.585C36.4084 15.6435 36.3503 15.1767 36.1764 15.1767C36.0603 15.3516 36.2345 15.4101 36.1764 15.585ZM36.4084 15.4682C36.7565 15.6431 36.9304 15.5266 37.1624 15.76C37.2205 15.6431 37.5105 15.8185 37.4525 15.585C36.9304 15.5266 36.6985 15.1767 36.4084 15.4682ZM24.4593 15.935C24.6913 15.935 24.9813 15.7016 25.1552 15.935C25.0972 15.8766 25.3291 15.7016 25.1552 15.6431C24.9813 15.8181 24.4593 15.5847 24.4593 15.935ZM38.2065 15.8185C38.2065 15.7016 38.1484 15.6435 38.0326 15.6435C38.0326 15.7604 38.0326 15.8769 38.2065 15.8185ZM37.7425 15.8769C37.9164 15.8769 37.9745 15.8769 37.9745 15.76C37.9164 15.76 37.9164 15.7016 37.7425 15.7016V15.8766V15.8769ZM23.0674 16.2272C23.2994 16.1103 23.2994 16.2272 23.4156 16.2856C23.5895 16.2856 23.4736 16.0522 23.6475 16.0522C23.8214 16.4025 23.9957 15.8772 24.2857 16.0522V15.8188C23.8798 16.0522 23.2417 15.7604 23.0678 16.2272H23.0674ZM38.2649 15.8769C38.323 16.1103 38.4388 15.6435 38.2649 15.8769V15.8769ZM38.555 15.9938C38.555 15.9938 38.7869 16.1687 38.845 15.9938C38.6711 15.9353 38.613 15.8188 38.555 15.9938ZM30.7244 15.9353C30.6663 15.9353 30.5505 15.9353 30.5505 15.9938C30.6086 15.9938 30.7244 15.9938 30.7244 15.9353ZM31.5365 15.9938C31.5946 15.8188 31.7104 16.2856 31.5365 15.9938V15.9938ZM32.8125 16.0522C32.9287 15.8772 32.5806 15.8772 32.5806 15.9938C32.6386 15.9938 32.6386 16.1106 32.8125 16.0522ZM33.6827 15.9353H32.9287C32.9868 16.2272 33.6246 16.1687 33.6827 15.9353ZM33.7989 16.0522C33.8569 16.0522 33.9728 16.0522 33.9728 15.9353H33.8566C33.8566 15.9938 33.7985 15.9938 33.7985 16.0522H33.7989ZM34.379 16.1106C34.9591 15.8772 35.133 16.519 35.4811 16.0522C35.0753 16.1691 34.5532 15.7604 34.379 16.1106ZM20.8638 16.519C20.9799 16.694 21.6178 16.6359 21.7917 16.4021C21.9079 16.7524 22.1976 16.4606 22.4299 16.2853C22.6038 16.2853 22.8939 16.5187 23.0681 16.2853C22.9519 16.2853 23.01 15.9934 22.8361 15.9934C22.3141 16.2853 21.3858 16.4018 20.8638 16.5187V16.519ZM31.0148 15.9938C30.9761 15.9938 30.9567 16.0132 30.9567 16.0522C30.9567 16.0522 31.0148 16.0522 31.0148 15.9938ZM35.5392 16.1106C35.4811 16.1106 35.5973 16.1691 35.5392 16.1106V16.1106ZM36.5833 16.2275C36.5252 16.2275 36.4094 16.1691 36.4094 16.2859C36.5833 16.2859 36.9314 16.6362 36.9895 16.2859C36.7575 16.4028 36.6994 16.2275 36.5836 16.0525V16.2275H36.5833ZM39.1354 16.2275C39.1935 15.9941 38.8453 15.9941 38.8453 16.1106C38.9615 16.1106 38.9615 16.2275 39.1354 16.2275ZM36.0613 16.2859C36.1193 16.111 35.7712 16.111 35.8293 16.2275C35.9454 16.1691 35.9454 16.2859 36.0613 16.2859ZM39.7736 16.4028C39.6574 16.3444 39.6574 16.2859 39.5416 16.2859C39.4835 16.4028 39.6578 16.6362 39.7736 16.4028ZM37.1634 16.4028H37.2796C37.3376 16.2859 37.0476 16.2859 37.1057 16.3444C37.1444 16.3444 37.1637 16.3639 37.1637 16.4028H37.1634ZM37.5115 16.5197C37.5696 16.5197 37.5696 16.5781 37.6277 16.5781C37.6277 16.4612 37.6277 16.3447 37.5115 16.3447V16.5197ZM20.2259 16.8115C20.516 16.7531 20.516 16.8115 20.6899 16.7531V16.5197C20.516 16.5781 20.284 16.6366 20.2259 16.8115ZM38.3814 16.6366C38.2075 16.5197 37.9755 16.4616 37.7432 16.5197C37.8593 16.7531 38.1491 16.6947 38.3814 16.6366ZM39.4254 17.0449C39.3674 16.7531 38.7873 16.9281 38.4975 16.6947C38.6137 16.9281 39.1935 17.103 39.4254 17.0449ZM19.2977 16.9865C19.3557 16.9865 19.4716 16.9865 19.5877 16.8696C19.4716 16.7528 19.2396 16.7528 19.2977 16.9865ZM19.1238 16.9281C19.0657 16.9281 19.0076 16.9281 19.0076 16.9865C19.0657 16.9865 19.1238 16.9865 19.1238 16.9281ZM18.8337 17.0449C18.8918 17.2199 18.9499 16.8115 18.8337 17.0449V17.0449ZM39.7155 17.1618C39.6574 17.2787 40.0056 17.2787 39.9475 17.1618C39.8313 17.1618 39.8313 16.9868 39.7155 17.1618ZM17.7319 17.5121C17.9058 17.5705 18.1959 17.3952 18.0219 17.2202C18.0219 17.5121 17.6738 17.1618 17.7319 17.5121ZM24.2864 26.7917C24.2283 26.7917 24.2864 26.8502 24.2864 26.7917V26.7917ZM25.5044 26.7917C25.4463 27.2001 25.5044 26.5583 25.5044 26.7917V26.7917ZM23.8802 28.8928C23.9963 28.9512 24.2283 28.6009 23.9383 28.6009C23.9383 28.7759 23.8802 28.8343 23.8802 28.8928ZM25.5624 28.8343C25.7363 28.8343 25.8525 28.7759 25.8525 28.6009C25.7363 28.6593 25.5624 28.6594 25.5624 28.8343ZM24.5764 29.1846C24.5184 29.1846 24.4603 29.1846 24.4603 29.243C24.4603 29.243 24.5764 29.243 24.5764 29.1846ZM23.6485 29.9433C23.3585 32.453 22.6045 34.4372 22.3144 36.83C21.7343 38.0555 21.7924 39.7482 21.0964 40.9156C20.6325 43.5418 19.4722 46.0516 18.8344 48.561C18.3704 48.9694 18.4285 49.7865 18.0223 50.2536V50.7205C17.6741 51.0707 17.5583 51.4791 17.5002 52.0044C17.3263 52.0628 17.2683 52.1794 17.2102 52.2378C17.1521 53.1714 16.34 53.7551 16.34 54.5138C15.7018 54.9222 15.6441 55.7977 15.1798 56.323C15.3537 56.3814 15.3537 56.4398 15.2959 56.4979C15.064 56.4395 14.7739 57.3735 14.8901 57.4316C15.586 56.4979 15.9922 55.2721 16.7462 54.5135C16.6301 54.3966 16.7462 54.2216 16.7462 53.9882C16.8624 53.9298 16.9782 54.1632 16.9782 53.9298C17.2102 52.9377 17.6164 52.0621 18.0804 51.3035C18.0223 51.3035 17.9642 51.1866 17.9642 51.0701C18.1381 51.0701 18.0223 50.8367 18.1962 50.8367C18.8344 49.0859 19.4142 47.5683 20.0523 45.8759C20.1104 45.1173 20.3424 44.3586 20.6905 43.7165C20.9225 42.1407 21.5607 40.5649 22.0247 38.8139C21.8508 38.4636 22.0827 37.9968 22.1986 37.7049C22.6045 35.3705 23.0687 34.0281 23.5327 31.6937C23.4746 30.76 24.0547 30.001 23.8808 29.2424C23.8228 29.6508 23.7647 29.7092 23.6489 29.9426L23.6485 29.9433ZM25.0988 30.3517C25.0988 30.1767 25.0988 30.1182 24.9249 30.1182C24.8088 30.1767 24.8668 30.4101 25.0988 30.3517ZM24.9249 30.6435C24.751 30.8769 25.0988 30.5266 24.9249 30.6435V30.6435ZM25.215 30.6435C25.215 30.5851 25.273 30.6435 25.215 30.6435V30.6435ZM25.4469 30.9938H25.505V30.8188H25.4469V30.9938ZM24.8668 31.4022H24.983V31.3437H24.8668V31.4022ZM23.9389 32.0443C23.997 31.8693 24.1709 31.6359 23.8808 31.6359C23.8808 31.7528 23.8228 32.0443 23.9389 32.0443ZM24.9249 32.3946C25.0988 32.453 25.1569 32.3946 25.1569 32.2196C25.0988 32.2196 25.0988 32.1612 24.983 32.2196C24.983 32.2196 24.9249 32.278 24.9249 32.3946ZM23.9389 32.2777C23.9389 32.2193 23.8808 32.2193 23.8808 32.2777C23.8808 32.2777 23.8808 32.3946 23.9389 32.2777ZM24.751 32.5696C24.751 32.3946 24.6349 32.3946 24.519 32.3361C24.519 32.5696 24.6352 32.628 24.751 32.5696ZM23.8808 32.9779C23.8808 32.9195 23.997 32.5696 23.7647 32.6277C23.7066 32.7445 23.7066 32.8611 23.8808 32.9779ZM24.2867 32.6861C24.2286 32.6861 24.2867 32.7445 24.2867 32.6861V32.6861ZM24.5768 32.803C24.5187 32.7445 24.6349 32.803 24.5768 32.803V32.803ZM24.5187 33.3282V33.0364H24.2867C24.2867 33.2113 24.2867 33.3867 24.5187 33.3282ZM23.6485 33.5032C23.4165 33.5032 23.7066 33.7366 23.6485 33.5032C23.7647 33.4448 23.7647 33.3282 23.7647 33.1529C23.5327 33.0945 23.6485 33.3863 23.6485 33.5032ZM24.6926 33.4448H24.8088V33.2698H24.6926V33.4448ZM24.2286 33.6197C24.2867 33.9116 24.1706 34.0866 24.0547 34.2619C24.3448 34.2034 24.4029 33.9116 24.4606 33.5616C24.2867 33.5616 24.2867 33.6785 24.2286 33.6201V33.6197ZM24.7507 33.7947C24.9246 33.5029 24.9827 33.9697 24.7507 33.7947V33.7947ZM24.6345 34.0866C24.6345 34.0281 24.6345 33.9697 24.6926 34.0281C24.6926 33.9502 24.6539 33.9113 24.5764 33.9113C24.5764 33.9697 24.5764 34.0862 24.6345 34.0862V34.0866ZM23.4165 34.32C23.6485 34.32 23.5327 34.0281 23.6485 33.9116H23.4165V34.32ZM24.1706 34.4949C23.9386 34.6118 23.9386 34.7868 23.9386 35.0786C24.2286 35.1371 24.1706 34.6118 24.1706 34.4949C24.2867 34.4949 24.0544 34.2615 24.1706 34.4949ZM24.4606 35.1371C24.3445 34.8452 24.6926 34.6118 24.3445 34.4368C24.4025 34.6702 24.2283 35.0205 24.4606 35.1371ZM23.4165 34.5534C23.4165 34.6118 23.3585 34.6118 23.3585 34.6702C23.4165 34.6118 23.4165 34.6702 23.4165 34.5534ZM23.8805 34.7284C23.7066 34.9033 24.0544 34.5534 23.8805 34.7284V34.7284ZM23.9386 35.662C23.9967 35.5451 24.2867 35.1952 23.9386 35.1367C23.9967 35.3702 23.7647 35.6036 23.9386 35.662ZM24.2867 35.487C24.2867 35.4286 24.4029 35.3702 24.3448 35.2536C24.1709 35.1952 24.1709 35.487 24.2867 35.487ZM23.1265 35.3702V35.487C23.3004 35.6039 23.3585 35.2536 23.2426 35.312C23.2039 35.351 23.1652 35.3705 23.1265 35.3705V35.3702ZM10.4815 35.662C10.4234 35.662 10.4815 35.7204 10.4815 35.662V35.662ZM23.1265 35.662C23.0684 35.662 23.0103 35.662 23.0103 35.7204C23.0684 35.7204 23.1265 35.7204 23.1265 35.662ZM24.0544 35.8954H24.2283C24.2864 35.7785 24.2864 35.7204 24.1702 35.662C24.1702 35.7789 24.1122 35.837 24.0541 35.8954H24.0544ZM23.7063 36.829C23.8224 36.7122 23.9963 36.2454 23.8802 35.8954C23.8221 36.1873 23.4162 36.5956 23.7063 36.829ZM9.84293 36.0119H9.95909V35.9535H9.84293V36.0119ZM22.6041 37.8211C22.8942 37.6462 22.8942 37.179 22.8361 36.829H23.01C22.8939 36.5372 23.242 36.1869 23.01 35.9535C22.8361 36.5956 22.6041 37.2374 22.6041 37.8211ZM23.9963 36.2454C24.1702 36.3038 24.2864 36.0119 24.1702 36.0119C24.1122 36.0704 23.9383 36.0704 23.9963 36.2454ZM23.4162 36.5956C23.5324 36.6541 23.7063 36.2454 23.4162 36.3038C23.4743 36.4207 23.3581 36.4207 23.4162 36.5956ZM8.56688 36.4788C8.62496 36.2454 8.62496 36.7122 8.56688 36.4788V36.4788ZM8.39298 36.5956C8.21908 36.829 8.56688 36.4207 8.39298 36.5956V36.5956ZM7.46506 37.4712C7.75512 37.2378 8.161 36.9459 8.161 36.6541C7.9871 36.9459 7.63896 37.1209 7.46506 37.4712ZM23.2423 37.2378C23.4162 37.2962 23.4743 36.8294 23.3004 36.8294C23.3585 37.0628 23.1842 37.0628 23.2423 37.2378ZM23.6482 37.2378C23.7644 37.1793 23.7644 36.8875 23.5901 36.8875C23.474 37.0044 23.474 37.2378 23.6482 37.2378ZM23.1258 37.4127C23.0678 37.6462 23.4159 37.4712 23.4159 37.5877C23.4159 37.8796 23.01 38.4048 23.3578 38.5214C23.474 38.2295 23.4159 37.6458 23.6479 37.2959C23.4159 37.2959 23.2997 37.3543 23.1258 37.4127ZM8.39265 38.113C8.45073 37.9961 8.85661 37.8211 8.62463 37.6462C8.56655 37.8211 8.16067 37.8796 8.39265 38.113ZM7.05852 37.8211C6.88462 38.0545 7.23242 37.6462 7.05852 37.8211V37.8211ZM23.0678 37.8211C23.1258 37.5877 23.1258 38.113 23.0678 37.8211V37.8211ZM23.7059 37.8211C23.764 37.5877 23.764 38.113 23.7059 37.8211V37.8211ZM22.6038 38.2295C22.6038 38.1126 22.6619 38.1126 22.6619 37.9377C22.4299 37.8792 22.4299 38.2295 22.6038 38.2295ZM22.8358 38.1126C22.6619 38.346 23.0097 37.9958 22.8358 38.1126V38.1126ZM8.10259 38.1711C8.21875 37.9961 8.27649 38.4629 8.10259 38.1711V38.1711ZM6.65231 38.346H6.76846V38.1711H6.65231V38.346ZM22.4296 38.4629C22.6035 38.2295 22.6035 38.7548 22.4296 38.4629V38.4629ZM23.5898 38.5214C23.5898 38.5214 23.7059 38.4629 23.5898 38.4045C23.5898 38.4629 23.4736 38.5214 23.5898 38.5214ZM23.0097 38.9297C23.0097 38.6963 23.0097 38.5214 22.7196 38.5214C22.7777 38.7548 22.8358 38.9297 23.0097 38.9297ZM22.3715 38.9882C22.3134 38.8713 22.6035 38.7548 22.4296 38.6379C22.3715 38.6963 22.1976 38.9297 22.3715 38.9882ZM23.1255 38.6963C23.2417 38.5214 23.2994 38.9297 23.1255 38.6963V38.6963ZM6.30417 38.9297C6.36225 38.8713 6.36225 38.8129 6.42033 38.6963C6.24643 38.6379 6.13027 38.9297 6.30417 38.9297ZM7.6383 38.8713H7.81221C7.81221 38.8129 7.81221 38.6963 7.75413 38.6963C7.75413 38.8132 7.63797 38.8132 7.63797 38.8713H7.6383ZM7.23242 38.9297C7.23242 38.9297 7.11627 39.2216 7.23242 39.28C7.2905 39.1051 7.4644 39.105 7.52248 39.1632C7.58056 39.0463 7.69638 38.9297 7.52248 38.8713C7.4644 39.0463 7.40632 38.9297 7.23242 38.9297ZM5.89829 39.28C5.95637 39.3969 6.30417 39.0466 6.01445 38.9882C6.07252 39.2216 5.84054 39.1051 5.89829 39.28ZM6.76846 39.28H6.88462V39.105H6.76846V39.28ZM22.1979 39.6884C22.256 39.5715 22.3718 39.3381 22.4299 39.1632C22.3137 39.1632 22.3137 39.1047 22.1979 39.1047C22.256 39.3381 22.024 39.5715 22.1979 39.6884ZM22.8361 39.1632C22.8942 39.3381 23.01 39.3966 23.0681 39.5715C23.1262 39.3966 23.1262 39.3381 23.242 39.1047C23.01 39.0463 23.01 39.2216 22.8361 39.1632ZM5.72472 39.63C5.9567 39.7468 5.9567 39.3381 5.84087 39.3381C5.7828 39.455 5.72472 39.455 5.72472 39.63ZM6.76879 39.9218C6.76879 39.7468 7.00077 39.7468 6.94269 39.5715C6.76879 39.5131 6.71071 39.8634 6.76879 39.9218ZM6.47874 39.7468C6.53681 39.5134 6.53681 39.9803 6.47874 39.7468V39.7468ZM5.43466 39.8637C5.55082 39.8637 5.60856 40.0387 5.72472 39.9221C5.7828 39.7472 5.49274 39.6887 5.43466 39.8637ZM22.0821 40.0387C21.9082 40.0387 21.9659 40.2721 21.8501 40.3305C22.0821 40.389 22.0821 40.2137 22.0821 40.0387C22.1402 40.0971 22.1982 40.1556 22.1982 40.0971C22.1982 39.9803 22.1982 39.8053 22.0243 39.7468C21.9663 39.9218 22.0824 39.9218 22.0824 40.0387H22.0821ZM6.53681 40.2137C6.65297 40.2137 6.71071 40.2137 6.76879 40.2721V40.0387C6.65264 40.0387 6.59489 40.1556 6.53681 40.2137ZM22.7203 40.6805C22.6041 40.7389 22.4302 41.0308 22.6622 41.0308C22.7203 40.9723 22.7203 40.8558 22.7203 40.6805H22.7784C22.8364 40.6221 22.8364 40.5055 22.9523 40.3886C22.8361 40.3302 22.6041 40.3886 22.6041 40.2137C22.6622 40.1552 22.6041 40.1552 22.546 40.1552V40.6221C22.6041 40.6221 22.6622 40.6221 22.7199 40.6805H22.7203ZM5.9567 40.5055C6.1306 40.5055 6.24676 40.4471 6.24676 40.2721C6.1306 40.1552 5.9567 40.2721 5.9567 40.5055ZM5.14461 40.6224C5.26076 40.6224 5.43466 40.389 5.26076 40.3305C5.26076 40.5055 5.08686 40.4474 5.14461 40.6224ZM22.3141 40.5639C22.3721 40.7389 22.4302 40.2721 22.3141 40.5639V40.5639ZM5.84054 40.6224C5.89862 40.7974 5.9567 40.3305 5.84054 40.6224V40.6224ZM6.3045 40.6808C6.18835 40.7393 6.3045 40.7977 6.3045 40.6808C6.3045 40.6224 6.36258 40.6808 6.3045 40.6808ZM21.8498 40.8558C21.8498 40.7974 21.8498 40.7389 21.9079 40.7974C21.9079 40.6805 21.9079 40.6224 21.7917 40.6224C21.7917 40.7393 21.7917 40.8558 21.8498 40.8558ZM6.01445 41.0892C6.24643 41.1476 6.24643 40.7974 6.01445 40.9142V41.0892ZM21.6178 41.8479C21.734 41.556 21.7917 41.3226 21.8498 41.0308C21.6178 41.0308 21.4439 41.731 21.6178 41.8479ZM22.4299 41.2057C22.3718 41.2057 22.488 41.2642 22.4299 41.2057V41.2057ZM4.73839 41.4392C4.73839 41.3807 4.79647 41.3223 4.79647 41.2057C4.68032 41.1473 4.56449 41.4392 4.73839 41.4392ZM4.39026 41.556C4.62224 41.6145 4.50641 41.3811 4.62224 41.2642C4.39026 41.2642 4.39026 41.4392 4.39026 41.556ZM22.0237 41.556C22.1976 41.6145 22.0818 41.3226 22.1976 41.2642C21.9656 41.2642 21.9656 41.4392 22.0237 41.556ZM22.3718 41.556C22.2557 41.556 22.3137 41.4976 22.3718 41.556C22.3718 41.6145 22.4299 41.6729 22.488 41.731C22.546 41.6141 22.7199 41.3807 22.546 41.2642C22.546 41.4392 22.4299 41.4392 22.3721 41.556H22.3718ZM5.89829 41.4392C5.89829 41.3223 5.78214 41.3223 5.72439 41.4392H5.89829ZM4.33218 41.8475C4.33218 42.2559 4.50608 41.6141 4.33218 41.8475V41.8475ZM21.9079 42.0809C21.8498 41.9641 22.1398 41.8475 21.9079 41.8475C21.9079 41.8475 21.7917 42.0809 21.9079 42.0809ZM22.1979 42.2559C22.1979 42.3728 22.1979 42.4309 22.3141 42.4309C22.3141 42.314 22.1979 42.314 22.1979 42.2559C22.4299 42.2559 22.546 41.9056 22.488 41.8475C22.1979 41.8475 22.0821 42.0809 22.1979 42.2559ZM22.6038 41.8475V42.0225C22.7199 42.1394 22.7777 41.8475 22.6619 41.8475C22.6619 41.8475 22.6619 41.906 22.6038 41.8475ZM5.20235 42.6646C5.26043 42.3728 5.60823 42.1394 5.55049 41.8475C5.43433 42.1394 5.08653 42.3728 5.20235 42.6646ZM20.9219 43.5983C21.4439 43.248 21.3277 42.5478 21.6178 42.0225H21.4439C21.3277 42.6646 21.0958 42.9562 20.9219 43.5983ZM3.81047 43.0146C3.63657 43.0146 3.57849 43.1315 3.46234 43.1315C3.52042 43.1899 3.57849 43.2483 3.57849 43.3064C3.34651 43.5399 3.11454 43.7148 3.17261 44.0651C3.52075 43.8901 3.63657 43.423 3.8108 43.0146C4.04278 42.8396 4.10086 42.6062 4.15894 42.2559C3.98504 42.3728 3.86888 42.6062 3.8108 43.0146H3.81047ZM4.91262 42.3144C4.9707 42.0809 4.9707 42.5478 4.91262 42.3144V42.3144ZM21.8501 42.5478C21.792 42.5478 21.792 42.4893 21.734 42.4893C21.6178 42.6643 21.9079 42.7227 21.8501 42.5478ZM22.1402 42.7227C22.2563 42.8396 22.2563 42.4893 22.1402 42.5478V42.7227ZM22.3721 42.9562C22.6041 43.073 22.6041 42.6643 22.4883 42.6643C22.4883 42.7227 22.3721 42.7812 22.3721 42.9562ZM5.02878 42.7812C4.9707 42.7812 5.08686 42.8396 5.02878 42.7812V42.7812ZM21.7343 42.8396C21.7924 42.6646 21.7924 43.073 21.7343 42.8396V42.8396ZM22.1402 43.1315C22.1402 43.0146 22.2563 43.073 22.1982 42.8396C22.1982 42.8396 22.1982 42.7812 22.0821 42.7812C21.9659 42.8981 22.024 43.073 22.1402 43.1315ZM21.6181 43.1315C21.4442 43.3064 21.792 42.9565 21.6181 43.1315V43.1315ZM21.8501 43.4817C22.024 43.4817 22.1982 43.3649 22.0821 43.2483C21.9082 43.1899 21.8501 43.3068 21.8501 43.4817ZM4.33251 43.4817H4.44867V43.3649H4.33251V43.4817ZM21.6181 43.3649C21.5601 43.3649 21.502 43.3649 21.502 43.4233C21.5601 43.4233 21.6181 43.4233 21.6181 43.3649ZM21.3281 43.5983V43.7152C21.4442 43.832 21.502 43.5402 21.3862 43.5402C21.3281 43.5402 21.3281 43.5986 21.3281 43.5986V43.5983ZM20.8641 44.0651C20.9803 44.3569 21.2122 43.7148 20.9222 43.6567C20.9803 43.9486 20.8641 43.9486 20.8641 44.0651ZM21.6181 44.2985H21.8501C21.792 43.9482 21.9082 43.8901 22.024 43.6564C21.6181 43.598 21.792 44.1232 21.6181 44.2985ZM3.98471 44.8238C4.27476 44.7653 4.44867 44.2985 4.39059 44.0067C4.27443 44.2985 4.04245 44.4735 3.98471 44.8238ZM21.1542 44.2985C21.2703 44.3569 21.3281 44.2985 21.3862 44.0651C21.27 44.0651 21.2122 44.182 21.1542 44.2985ZM20.806 44.3569C20.9222 44.4738 20.9222 44.1235 20.806 44.2401V44.3569ZM21.502 44.7653H21.3858C21.3471 44.9209 21.3277 45.0766 21.3277 45.2322H21.5016C21.5597 45.1737 21.5597 44.8819 21.5016 44.7653C21.6178 44.7069 21.7917 44.5319 21.7336 44.3569C21.5016 44.3569 21.5016 44.5904 21.5016 44.7653H21.502ZM2.9403 44.5319C2.65025 44.7653 3.11421 44.8238 2.9403 44.5319V44.5319ZM20.6318 44.7653C20.8638 44.8238 20.9219 44.5319 20.6899 44.5319C20.748 44.6488 20.6318 44.7069 20.6318 44.7653ZM3.69432 44.8238H3.81047V44.7069H3.69432V44.8238ZM1.89623 47.3335C2.36019 46.6914 2.53442 45.6409 2.9403 44.8822C2.88223 44.8822 2.82415 44.8238 2.7664 44.8238C2.41827 45.6993 2.18629 46.458 1.89623 47.3335ZM3.57849 44.9991C3.52042 45.4075 3.63657 44.7657 3.57849 44.9991V44.9991ZM20.6899 45.1741C20.6899 45.0572 20.6318 44.9991 20.5737 44.9406C20.5737 45.0575 20.5737 45.1741 20.6899 45.1741ZM3.86855 45.2325C3.86855 45.2325 3.98471 45.1741 3.86855 45.1156C3.86855 45.1741 3.81047 45.2325 3.86855 45.2325ZM20.9219 45.2909H21.0958C21.0958 45.2325 21.0377 45.1741 20.9219 45.1741V45.2909ZM20.516 45.5828H20.5741V45.4078H20.4002C20.4002 45.4662 20.4582 45.5247 20.5163 45.5828H20.516ZM21.2119 45.6996C21.3281 45.6996 21.3858 45.6412 21.4439 45.5247C21.3277 45.5247 21.3277 45.3497 21.2119 45.4078V45.6996ZM3.57849 46.0499C3.63657 45.9915 3.86855 45.6415 3.57849 45.5831C3.69465 45.8749 3.34651 45.9915 3.57849 46.0499ZM20.3421 46.1084C20.4582 46.0499 20.5741 45.6415 20.284 45.6415C20.3421 45.7584 20.1678 46.0499 20.3421 46.1084ZM20.9222 45.7581C20.8641 45.7581 20.806 45.7581 20.806 45.8165C20.806 45.8165 20.9222 45.8165 20.9222 45.7581ZM21.4442 45.9331H21.5604V45.8162H21.4442V45.9331ZM21.0961 46.0499H21.2122C21.2122 45.9915 21.2122 45.8749 21.0961 45.8749V46.0499ZM3.46267 46.3418C3.17261 46.4002 3.46267 46.6336 3.46267 46.3418V46.3418ZM3.05679 46.4586C2.94063 46.6336 3.28877 46.2837 3.05679 46.4586V46.4586ZM20.9222 46.6336H21.1542C21.1542 46.5167 21.1542 46.4002 21.0961 46.4002C21.038 46.4586 20.9222 46.4586 20.9222 46.6336ZM20.052 46.6336C20.1101 46.6336 20.1101 46.6921 20.1682 46.6921C20.1101 46.5752 20.1682 46.4586 20.052 46.4586V46.6336ZM20.516 46.6336C20.3421 46.867 20.6899 46.4586 20.516 46.6336V46.6336ZM19.762 47.3338C20.052 47.2754 20.052 46.9255 20.1678 46.8086C20.1098 46.8086 20.1098 46.7502 19.9939 46.7502C19.8778 46.9251 19.8778 47.1585 19.762 47.3338ZM20.6899 47.4507C20.9219 47.3923 20.9219 46.867 20.9219 46.7505C20.748 46.8674 20.6899 47.3342 20.6899 47.4507ZM21.1538 46.8086V46.9255C21.3277 47.0423 21.3277 46.7505 21.2119 46.7505C21.2119 46.8089 21.2119 46.8674 21.1538 46.8089V46.8086ZM3.23036 46.9836C3.23036 46.9251 3.23036 46.8667 3.28844 46.9251C3.28844 46.8667 3.28844 46.8083 3.17228 46.8083C3.17228 46.8667 3.17228 46.9832 3.23036 46.9832V46.9836ZM2.88223 47.042H2.99838V46.9251H2.88223V47.042ZM21.2119 47.2754C21.2119 47.1004 21.2119 46.9836 21.0958 46.9836C21.0958 47.1004 20.9796 47.2754 21.2119 47.2754ZM20.284 47.1585C20.4002 46.9836 20.4579 47.392 20.284 47.1585V47.1585ZM20.1101 47.6838C20.1682 47.6838 20.1682 47.7422 20.2263 47.7422C20.2263 47.6254 20.2262 47.5088 20.1101 47.5673V47.6841V47.6838ZM1.37452 48.5593C1.54843 49.0262 0.968641 49.7848 1.14254 50.252C1.31645 49.4933 1.72266 48.4428 1.83848 47.6257C1.66458 47.8591 1.6065 48.2678 1.37452 48.5593ZM19.6461 48.0925C19.7623 48.1509 19.82 47.6841 19.7042 47.6257C19.7042 47.7426 19.5881 47.8591 19.6461 48.0925ZM20.9803 47.7422C20.9803 47.6838 20.9222 47.6838 20.9222 47.7422C20.9222 47.7422 20.9803 47.8007 20.9803 47.7422ZM20.5163 47.9756H20.6325V47.7422H20.5163V47.9756ZM19.4142 48.0341C19.298 48.2091 19.6461 47.8591 19.4142 48.0341V48.0341ZM20.3421 48.3259H20.516C20.516 48.2091 20.516 48.1509 20.3998 48.1509C20.3998 48.2094 20.3998 48.2678 20.3417 48.3259H20.3421ZM19.7039 48.2091C19.7039 48.2091 19.6458 48.2091 19.6458 48.2675C19.6845 48.2675 19.7039 48.248 19.7039 48.2091ZM20.3421 48.8512C20.4002 48.6762 20.516 48.5009 20.3421 48.5009C20.284 48.5593 20.1682 48.7927 20.3421 48.8512ZM19.9939 48.9096C19.9939 48.7927 20.1101 48.5593 19.9939 48.5593C19.9359 48.6178 19.7039 48.8512 19.9939 48.9096ZM19.7039 48.5593C19.7039 48.5593 19.6458 48.5593 19.6458 48.6178C19.6845 48.6178 19.7039 48.5983 19.7039 48.5593ZM20.8641 48.6178C20.6902 48.8512 21.038 48.5009 20.8641 48.6178V48.6178ZM19.1818 49.2015C19.53 49.2599 19.3558 48.7931 19.5877 48.6762C19.2977 48.6762 19.2977 49.0265 19.1818 49.2015ZM20.806 49.0846C20.8641 48.9677 20.8641 48.8512 20.6899 48.8512C20.6318 48.9096 20.6318 49.0262 20.806 49.0846ZM19.7039 48.9677H19.762V48.9093H19.7039V48.9677ZM19.762 49.9014C20.052 49.7845 20.1101 49.4345 20.2259 49.2011C19.82 49.2011 19.8778 49.6679 19.762 49.9014ZM20.3421 49.4345C20.516 49.493 20.516 49.3761 20.6321 49.3761C20.6902 49.0843 20.284 49.2592 20.3421 49.4345ZM18.776 50.3682C18.6598 50.4851 18.6021 50.66 18.544 50.835C18.834 50.8934 18.776 50.6016 18.776 50.3682C18.9499 50.0763 19.2399 49.6095 19.298 49.3177C18.9499 49.5511 18.834 49.9014 18.776 50.3682ZM19.6461 50.3682C19.82 50.4266 19.9943 50.0763 19.7042 50.0179C19.7042 50.1348 19.6461 50.2513 19.6461 50.3682ZM19.1241 50.4851C19.298 50.5435 19.4142 50.1932 19.298 50.1348C19.298 50.2516 19.1241 50.3097 19.1241 50.4851ZM0.968641 50.7185C1.02672 50.7185 1.02672 50.7769 1.0848 50.7769C1.0848 50.7185 1.14287 50.7185 1.14287 50.66H1.02672C1.02672 50.66 0.968641 50.66 0.968641 50.7185ZM19.1241 50.7185H19.298V50.66H19.1241V50.7185ZM19.298 51.1269C19.53 51.1269 19.53 50.835 19.6461 50.66C19.3561 50.66 19.4142 51.0684 19.298 51.1269ZM18.08 52.2358C18.2539 51.8855 18.7182 51.3022 18.4282 51.0103C18.4282 51.4771 17.848 51.8858 18.08 52.2358ZM19.9362 51.0684C19.7623 51.3018 20.1101 50.9515 19.9362 51.0684V51.0684ZM18.9502 52.0024C19.2983 51.944 19.4142 51.4187 19.2983 51.3022C19.1822 51.5356 18.9502 51.7105 18.9502 52.0024ZM19.5884 51.594C19.6465 51.419 19.7045 51.8858 19.5884 51.594V51.594ZM18.6605 52.7614C18.8344 52.703 18.9505 52.2946 18.8344 52.0612C18.7763 52.353 18.6605 52.4695 18.6605 52.7614ZM18.4285 52.5864C18.4285 52.4114 18.5446 52.353 18.4285 52.2946C18.3704 52.4114 18.2546 52.528 18.4285 52.5864ZM17.5583 53.2285H17.5002C17.2102 53.9872 16.8621 54.6878 16.5723 55.3296C16.8043 55.3296 16.7462 55.0962 16.9782 55.0962C16.9782 54.5709 17.3263 53.9872 17.6164 53.5788C17.5583 53.5788 17.6164 53.287 17.5583 53.2285H17.6164C17.7326 53.1701 18.0223 52.7617 17.8484 52.5283C17.8484 52.8202 17.4425 53.0536 17.5583 53.2285ZM18.0804 53.1117C18.3123 53.1117 18.1965 52.7614 18.3704 52.7033C18.1384 52.7617 18.0804 52.8783 18.0804 53.1117ZM0.620837 53.2866H0.736992V53.1698H0.620837V53.2866ZM18.2543 53.2866C18.3704 53.5201 18.3123 53.5785 18.1962 53.7535C18.4282 53.7535 18.6021 53.2282 18.4282 53.1698C18.4282 53.2866 18.3701 53.3447 18.2543 53.2866ZM18.0223 54.1622C18.1962 54.2206 18.1962 54.1037 18.1962 53.9288C18.0223 53.9288 18.0223 54.0456 18.0223 54.1622ZM17.4422 54.6874C17.2683 54.629 17.2102 54.8624 17.2683 54.9208C17.3263 54.8624 17.5002 54.8624 17.4422 54.6874C17.5583 54.629 17.6741 54.3956 17.5002 54.3956C17.5002 54.5125 17.3841 54.5125 17.4422 54.6874ZM17.6161 55.1543C17.4999 55.2711 17.3841 55.2711 17.4422 55.4461C17.6161 55.5045 17.5583 55.2711 17.6161 55.1543C17.848 54.9793 17.9061 54.6874 18.0219 54.3956C17.7319 54.5125 17.6738 54.8624 17.6161 55.1543ZM18.3701 54.5121C18.312 54.5121 18.3701 54.5706 18.3701 54.5121V54.5121ZM17.2099 55.3292C17.0937 55.3292 17.0937 55.2708 16.9779 55.2708C16.8617 55.4458 17.2099 55.4458 17.2099 55.3292ZM16.3397 55.6795C16.5136 55.6795 16.6297 55.6211 16.6297 55.3877C16.4558 55.4461 16.2816 55.6211 16.3397 55.6795ZM16.8036 55.9714C16.8036 55.7964 16.9775 55.7379 16.9775 55.6211C16.8036 55.6211 16.6875 55.9129 16.8036 55.9714ZM15.7015 56.9634C15.9335 56.8466 15.8754 56.4966 16.2235 56.4966C15.8754 56.3216 16.3397 56.1463 16.2816 55.9129C16.0496 56.1463 15.5276 56.73 15.7015 56.9634ZM15.5276 57.3718C15.5276 57.255 15.7015 57.3134 15.6437 57.08C15.4698 56.9631 15.4118 57.3718 15.5276 57.3718ZM16.0496 57.1384C16.1658 57.3718 16.2235 56.905 16.0496 57.1384V57.1384ZM15.0636 57.8971C15.2375 58.1889 15.5276 57.6052 15.1798 57.5468C15.1798 57.7802 15.0636 57.7802 15.0636 57.8971ZM15.6437 57.7802C15.8176 57.8971 15.8176 57.5468 15.6437 57.6052V57.7802ZM16.3978 57.7802H16.5717V57.6052H16.3978V57.7802ZM14.5416 58.0721C14.7155 58.1305 14.7736 57.7802 14.5997 57.7802C14.6577 57.8971 14.5416 57.9552 14.5416 58.0721ZM15.0056 58.3055H15.1217V58.0721H15.0056V58.3055ZM15.9915 58.4223C15.9335 58.2474 16.3397 58.0721 15.9915 58.0721C16.0496 58.247 15.7596 58.3055 15.9915 58.4223ZM14.4254 58.1889C14.3674 58.1889 14.4254 58.2474 14.4254 58.1889V58.1889ZM14.4835 58.8311C14.7155 58.8895 14.8317 58.4808 14.7155 58.3058C14.5993 58.4808 14.5993 58.6561 14.4835 58.8311ZM14.1354 58.7142C14.3093 58.8311 14.3093 58.4808 14.1354 58.5392V58.7142ZM13.2075 58.7142C13.0336 58.7726 12.9174 58.8892 12.9174 59.006C13.0336 59.006 13.1494 58.9476 13.2075 58.7142C13.4394 58.7142 13.1494 58.4808 13.2075 58.7142ZM14.3677 59.006C14.2515 59.2394 14.5997 58.8892 14.3677 59.006V59.006ZM13.8457 59.1229H13.9037V59.006H13.8457V59.1229ZM14.1357 59.4147C14.3096 59.4147 14.3096 59.1813 14.1938 59.1229C14.1938 59.2398 14.0776 59.2979 14.1357 59.4147ZM12.6277 59.2979C12.7438 59.4729 12.8016 59.006 12.6277 59.2979V59.2979ZM13.7879 59.2979C13.614 59.4729 13.9618 59.1229 13.7879 59.2979V59.2979ZM13.382 59.6482C13.4401 59.765 13.4982 59.7066 13.4982 59.6482H13.6143C13.6143 59.5313 13.7305 59.5313 13.6724 59.4147C13.3824 59.4732 13.0923 59.5897 13.0342 59.8816C13.2081 59.8816 13.2662 59.7066 13.3824 59.6482H13.382ZM13.2081 60.5818C13.2081 60.1734 13.9041 60.115 13.7882 59.7063C13.6721 60.0565 12.8603 60.1731 13.2081 60.5818ZM11.41 60.6402C11.7001 60.5234 11.9321 60.3484 12.0482 60.0565C11.8162 60.29 11.5262 60.29 11.41 60.6402ZM12.4541 60.3484V60.7568C12.628 60.6983 13.0923 60.29 12.86 60.2315C12.7438 60.4065 12.628 60.4649 12.4541 60.3484ZM14.2522 60.4653C14.2522 60.4068 14.3103 60.4653 14.2522 60.4653V60.4653ZM11.2358 60.8155C11.2358 60.7571 11.2939 60.874 11.2358 60.8155V60.8155ZM10.8877 61.1074C11.0038 61.049 11.1777 61.049 11.1777 60.8155C11.0038 60.8155 10.9457 60.9905 10.8877 61.1074ZM11.7578 61.4577C11.6998 61.2243 12.2218 61.2243 12.2218 60.9324C11.8737 60.9324 11.4097 61.5161 11.7578 61.4577ZM12.2218 61.3992C12.3957 61.3992 12.3957 61.2243 12.3957 61.1074C12.2218 61.1074 12.2218 61.2243 12.2218 61.3992ZM10.4237 61.5161C10.4237 61.4577 10.5399 61.3411 10.4237 61.2827C10.3656 61.3996 10.2498 61.4577 10.4237 61.5161ZM11.0038 61.9245C11.12 61.8661 11.352 61.8661 11.352 61.6911C11.1781 61.6911 10.9461 61.6911 11.0038 61.9245ZM13.0339 61.8076C13.0339 62.1579 13.382 61.8661 13.0339 61.8076V61.8076ZM10.5976 62.1579C10.8296 62.2163 10.9457 62.0995 10.9457 61.9245C10.7138 61.9245 10.6557 61.9829 10.5976 62.1579ZM10.3076 62.3913C10.4815 62.3913 10.5395 62.2744 10.5395 62.0995C10.4234 62.1579 10.3656 62.2163 10.3076 62.3913ZM11.1777 62.3913C11.1777 62.3329 11.1777 62.2744 11.2358 62.3329C11.2358 62.216 11.2358 62.1579 11.1196 62.1579C11.1196 62.2748 11.1196 62.3913 11.1777 62.3913ZM12.628 62.3329C12.628 62.0995 12.7442 62.5078 12.628 62.3329V62.3329ZM11.9321 62.5078H12.106C12.106 62.391 12.0479 62.391 11.9321 62.391V62.5078ZM10.7141 62.5078C10.656 62.5078 10.7141 62.5663 10.7141 62.5078V62.5078ZM11.5262 62.7413C11.3523 62.9162 11.7582 62.5663 11.5262 62.7413V62.7413ZM10.424 36.3028C10.5402 36.3612 10.366 36.5362 10.1921 36.5362C10.134 36.3612 10.366 36.4193 10.424 36.3028ZM20.9228 48.2672C20.9809 48.1503 21.1548 47.9753 21.271 48.0922C21.1548 48.1506 21.0971 48.3256 20.9228 48.2672ZM13.3824 59.6478C13.4211 59.6089 13.4598 59.5894 13.4985 59.5894V59.6478H13.3824ZM50.5634 40.213C50.5634 40.388 50.3895 40.388 50.3895 40.5048C50.4476 40.5048 50.5057 40.5633 50.5634 40.5633C50.8535 40.213 51.1436 40.0965 51.7814 39.9212C51.3755 41.0885 50.6212 42.1972 49.8672 42.9562C47.8949 44.357 45.8648 46.5745 43.1965 47.2751C40.4124 47.8003 39.1941 45.6993 38.6721 43.073C35.7138 45.1741 33.7995 48.209 30.0295 49.493C27.1873 49.6098 26.6653 45.9327 27.1873 43.4233C27.9413 41.2054 28.7534 38.5791 29.4493 36.4197C29.7394 36.2447 29.9133 35.9529 30.2034 35.7194C30.6673 36.0697 31.1313 36.3616 31.4213 36.7699C30.9574 40.972 28.9851 43.3649 28.5792 47.0417C28.5792 47.2166 28.8692 47.1001 28.9273 47.2166C32.6977 45.5824 35.656 42.1975 38.6721 39.8046C38.9041 39.7462 38.614 39.6296 38.6721 39.5128C39.4842 39.8631 39.8901 40.5633 40.7602 41.147C40.5283 42.1975 40.5283 43.3064 40.5863 44.7072C43.4285 45.6409 45.5747 42.6062 47.779 41.5557C48.1272 41.0889 48.7069 40.8555 48.997 40.2718C49.1709 40.2133 49.1709 40.3886 49.3451 40.3886C49.6933 39.63 50.7373 39.0463 51.4333 38.4042C51.0274 38.3457 51.0274 38.696 50.6793 38.696C50.9693 38.0539 51.5494 37.7624 51.9553 37.2952C52.1873 37.4702 51.8392 37.8205 51.7814 37.9954C51.8395 38.1704 51.9553 37.8786 52.1296 37.9954C51.9557 38.4623 52.0715 38.8125 51.6075 38.871C51.5494 39.1044 51.8395 38.9294 51.7814 39.1628C51.6075 39.2213 51.5494 39.2797 51.4914 39.4547C51.3175 39.4547 51.3175 39.2797 51.4333 39.1628C51.1432 39.2797 50.9112 39.4547 50.7951 39.7465C51.0271 39.9215 51.1432 39.5715 51.3752 39.5715C51.3752 39.9218 50.9693 39.8049 50.9112 40.0968C50.7373 40.1552 50.7951 39.9218 50.7373 39.8634C50.6212 39.9218 50.5054 40.0384 50.4473 40.1552C50.4473 40.2137 50.5054 40.2137 50.5634 40.2137V40.213ZM51.5494 38.3454H51.7233V38.1704H51.5494V38.3454ZM50.1572 40.4464C50.3311 40.5048 50.5054 40.2714 50.3311 40.213C50.2731 40.3299 50.0992 40.2714 50.1572 40.4464ZM49.8672 40.6214H50.0992V40.4464H49.8672V40.6214ZM50.3311 40.9132C50.3892 40.7964 50.3892 40.6214 50.1572 40.6214C50.1572 40.7964 50.1572 40.9132 50.3311 40.9132ZM49.4032 41.1466C49.7514 41.1466 49.5771 40.7964 49.4032 40.7964V41.1466ZM49.4613 41.3216C49.8094 41.3216 49.8094 40.9713 50.0995 41.2632C50.2156 41.1463 50.0995 40.8548 49.9833 40.7964C49.8094 41.0298 49.5774 41.0882 49.4613 41.3216ZM48.9973 41.7884C49.0554 41.555 49.3455 41.555 49.4032 41.3216C49.1712 41.3801 48.8231 41.6135 48.9973 41.7884ZM37.5122 41.9053C37.5122 41.7884 37.5703 41.7303 37.5703 41.6135C37.2802 41.6719 37.2221 41.9053 37.1063 42.1387C36.4681 42.0803 35.9461 42.7808 35.424 43.0143C35.4821 43.2477 35.4821 43.3645 35.366 43.5395C35.5399 43.7145 35.5399 43.3061 35.7719 43.3645C35.7719 43.5395 35.366 43.6564 35.5399 43.7729C35.7719 43.5979 36.0038 43.4226 36.2939 43.3061C36.12 42.8977 36.5259 42.6059 36.642 42.314C36.8159 42.489 36.9902 42.2556 37.106 42.139C37.338 42.139 37.2221 41.8472 37.5119 41.9056C37.5119 42.139 37.5119 42.3725 37.2799 42.314C37.2799 42.2556 37.338 42.2556 37.338 42.1972C37.0479 42.2556 37.0479 42.664 36.7579 42.7224C36.874 42.7808 36.9898 42.8393 37.1637 42.8974C37.2799 42.7224 37.0476 42.489 37.2799 42.3721C37.6858 42.6055 37.86 41.7884 38.2659 42.0218C38.2659 41.905 38.324 41.905 38.324 41.8469C38.0339 41.8469 38.4979 41.6135 38.2078 41.4966C38.1497 41.73 37.9758 41.8469 37.6858 41.6716C37.7438 41.8465 37.6277 41.905 37.5119 41.905L37.5122 41.9053ZM38.6143 41.7884C38.6143 41.6135 38.4982 41.555 38.3824 41.4966C38.3824 41.6716 38.4404 41.7884 38.6143 41.7884ZM48.7073 41.6716C48.6492 41.6716 48.7654 41.73 48.7073 41.6716V41.6716ZM36.9324 41.8465C36.9324 41.7881 36.9905 41.905 36.9324 41.8465V41.8465ZM48.7654 41.8465C48.8815 41.5547 48.8815 42.1384 48.7654 41.8465V41.8465ZM47.5474 42.3134C47.4893 42.4883 47.6635 42.4883 47.6635 42.6052C47.9536 42.4883 48.2436 42.4302 48.3017 42.0215C47.8378 41.9631 47.8378 42.4883 47.5477 42.3134H47.5474ZM47.6635 42.8386C47.7797 42.5468 47.8955 43.0136 47.6635 42.8386V42.8386ZM36.4685 42.8971C36.2946 43.1305 36.7004 42.7221 36.4685 42.8971V42.8971ZM36.4104 43.1889C36.5265 42.8971 36.5843 43.3639 36.4104 43.1889V43.1889ZM34.9023 44.3563C34.8443 44.006 35.1343 43.7142 35.2505 44.006C35.7144 43.3058 34.2064 44.0644 34.9023 44.3563ZM33.6263 45.1734C33.8002 44.9984 33.9163 44.765 34.3222 44.765C34.2061 44.4732 34.5542 44.5316 34.4961 44.2982C34.148 44.4732 33.5682 44.8234 33.626 45.1737L33.6263 45.1734ZM33.0462 45.4068V45.5237H33.1623C33.1623 45.5237 33.2204 45.4652 33.2785 45.4652V45.3484H33.1046C33.1046 45.3484 33.1046 45.4068 33.0465 45.4068H33.0462ZM49.1135 40.1542C49.1135 40.0958 49.1716 40.2127 49.1135 40.1542V40.1542ZM50.5638 40.2127C50.5638 40.1542 50.6799 40.1542 50.5638 40.2127V40.2127ZM36.0626 43.0724C35.8887 43.3058 36.2945 42.8974 36.0626 43.0724V43.0724ZM53.0001 48.7921C53.0001 48.909 53.0581 48.9671 53.0581 49.0839C53.1743 49.0839 53.1743 49.0255 53.232 48.9671C53.4059 49.0255 53.464 49.2589 53.6379 49.3754C56.5962 48.6752 58.3943 46.8076 60.4244 45.2318C63.3246 42.7221 66.1668 40.2127 68.9512 37.5864H69.2413C69.4152 37.6448 69.2413 37.2361 69.4733 37.2945C69.1251 38.1701 67.791 39.0453 67.559 39.9793C66.9208 39.9208 65.9929 41.0882 65.6448 41.6135C65.5867 41.7884 65.4709 41.4966 65.4128 41.4966V41.8469C65.1227 41.73 64.8907 41.8469 64.8327 42.1387C64.4845 42.2556 64.0787 42.6055 64.1367 42.839C63.9048 42.8974 63.4985 43.0724 63.3246 43.4226C63.4985 43.4811 63.6147 43.0143 63.6728 43.3642C63.5566 43.4811 63.4408 43.5392 63.2088 43.5392C63.1507 43.5392 63.2088 43.4223 63.2088 43.5392C63.2669 43.9476 62.8029 43.4807 62.9768 43.9476C62.8029 44.006 62.7449 43.9476 62.6868 43.8891C62.6287 44.2975 61.8166 44.6478 61.8166 45.1146C61.7585 45.0562 61.7004 45.1146 61.7004 44.9977C61.7585 45.0562 61.7585 44.9977 61.7585 44.9393C61.7004 44.9393 61.7004 44.9977 61.7004 44.9977C61.3523 45.348 61.0045 45.5814 60.7145 45.9314C60.8884 46.2817 61.0045 45.5811 61.3526 45.873C61.4107 45.4061 62.2228 44.7056 62.7449 44.8809C62.4548 45.3477 61.9328 45.523 61.6427 45.9898C62.3967 45.5814 62.9188 44.8809 63.6728 44.4725C62.6868 45.698 61.1784 46.457 60.1924 47.6825C60.3663 47.8574 60.7145 47.5656 60.7725 47.3906C60.9464 47.5075 60.7144 48.0327 60.5405 47.799C60.4825 47.974 60.4825 48.1493 60.6567 48.1493C59.2645 49.4916 57.4083 50.8924 55.2044 51.0674C52.0721 50.5422 50.0998 47.9159 49.984 44.2972C50.0421 44.1222 49.8678 44.1803 49.8101 44.0638C50.216 42.3711 50.506 40.8538 49.984 39.278C51.0861 38.2275 50.8542 36.243 51.3181 34.8426C51.492 34.9594 51.26 35.1929 51.3181 35.4263C51.5501 35.1929 51.6082 34.4926 51.3181 34.3758C52.9423 26.2051 55.3786 18.2678 58.2207 11.0307C60.367 7.23705 62.2812 2.68472 65.7612 0C69.6475 0.291846 69.0674 5.311 68.0814 7.99572C68.0814 9.68836 67.5013 11.3222 66.8053 12.6646C64.6591 19.318 62.107 24.454 59.3806 30.7571C59.2645 30.8739 59.1487 30.9905 58.9748 31.1073C58.9748 31.2823 59.0909 31.3407 59.0328 31.5742C57.1767 34.4339 56.0745 38.2859 53.1162 40.2701C52.5942 40.9122 52.7103 42.488 52.3041 43.0714C52.5361 44.7056 51.7821 47.1569 53.0001 48.7911V48.7921ZM65.1231 2.74382C65.0069 2.68538 65.065 2.45197 64.8911 2.51041C64.833 2.68538 65.065 2.62728 65.065 2.80225C64.6591 3.03566 64.601 3.61936 64.1371 3.79433C64.1951 3.67746 64.1951 3.61936 64.079 3.56092C63.847 3.79433 63.7308 4.02774 63.5569 4.31959C63.615 4.553 63.847 3.96931 63.9051 4.26115C63.4992 4.84484 62.9191 5.95379 62.397 6.0119C62.7452 6.65402 61.875 7.17928 61.7011 7.70454C61.643 7.93795 61.9912 7.82141 61.9331 8.11292C61.7592 8.11292 61.643 8.11292 61.5849 8.17136C61.5269 8.34633 61.643 8.34633 61.7011 8.40477C61.5849 8.40477 61.5849 8.52164 61.411 8.4632C61.7592 8.93003 60.657 9.68869 61.2371 10.1558C61.0632 10.2143 61.0052 10.4477 60.7151 10.4477C60.657 10.6227 60.889 10.5646 60.889 10.6811C60.135 12.4903 59.0909 14.1829 58.6847 16.1671C57.8726 17.451 57.9888 18.9683 56.8285 20.0192C56.7705 20.2526 57.1767 20.1361 57.1767 20.311C56.9447 20.8363 56.9447 21.7118 56.4807 22.1786C56.4807 23.1123 55.9006 24.1631 55.7848 25.1552C55.7267 25.2721 55.4367 25.1552 55.4367 25.2721C55.7848 25.3305 55.6106 26.1476 55.2047 26.0892C55.2628 27.0813 55.0308 28.657 54.3345 29.4741C54.6827 29.8244 54.3345 30.1744 54.5084 30.5831C54.1025 30.5246 54.2184 31.1668 54.0445 31.5167C54.2764 31.5752 54.1606 31.0499 54.3345 31.2833C54.0445 32.5088 53.4643 34.4348 53.4066 35.7188C57.5248 29.007 60.4831 21.3615 63.6734 14.4163C64.6594 10.9145 66.1097 7.76297 66.4575 4.26115C66.8634 3.61902 66.5737 2.56851 66.6895 1.6933C66.0513 1.34302 65.4134 2.39354 65.1234 2.74382H65.1231ZM64.7172 2.86069C64.6591 2.86069 64.7172 2.91912 64.7172 2.86069V2.86069ZM67.5593 3.56092H67.6755C67.6755 3.44405 67.7916 3.44405 67.7336 3.32751H67.5597V3.56092H67.5593ZM67.6174 3.85277C67.5013 4.20305 67.5013 4.49489 67.5593 4.84484C67.3854 4.96171 67.4432 4.84484 67.2693 4.84484C67.3854 5.07825 67.3274 5.48697 67.5593 5.60351C67.5013 4.78641 67.9075 4.37802 67.6174 3.85277C67.6174 3.56092 67.3274 3.79433 67.6174 3.85277ZM63.093 5.02015C63.325 4.96172 63.383 4.66987 63.4989 4.49489C63.2088 4.49489 63.1507 4.78674 63.093 5.02015ZM57.2344 14.7666C58.8005 11.3817 60.7729 7.588 62.2809 4.7283C60.2508 7.7633 58.6847 10.9733 57.2344 14.7666ZM67.3274 6.30407C67.2693 6.01223 67.4435 5.95379 67.5013 5.72038C67.3274 5.72038 67.2693 5.72038 67.2112 5.66195C67.095 5.83692 67.095 6.24564 67.3274 6.30407ZM66.6314 7.70487C66.7476 7.70487 66.8053 7.588 66.8634 7.70487C66.9215 7.93828 66.5733 7.82174 66.6314 8.05515C67.1535 8.17202 66.9796 7.47146 67.1535 7.12151C67.0373 7.06307 67.0373 6.82966 66.8634 6.82966C66.5153 7.12151 66.8634 7.35492 66.6314 7.7052V7.70487ZM67.2696 7.70487C67.2696 7.52989 67.6755 7.17961 67.3277 7.12118C67.3858 7.35459 67.0957 7.588 67.2696 7.70487ZM60.889 8.23013C60.8309 8.52197 61.411 8.4051 61.353 8.17169C61.0629 8.23013 61.121 8.23013 60.889 8.23013ZM66.6314 8.69695C66.6895 8.58008 66.6895 8.4051 66.8053 8.34666C66.6314 8.34666 66.6314 8.17169 66.4572 8.22979C66.3991 8.52164 66.5153 8.63818 66.6311 8.69661L66.6314 8.69695ZM66.9215 8.58007C66.9215 8.4051 67.2115 8.69695 66.9215 8.58007V8.58007ZM66.4575 9.2222C66.2255 9.16377 66.0516 9.45561 66.2255 9.51405C66.2836 9.28064 66.3417 9.57248 66.4575 9.57248C66.5737 9.39751 66.5737 9.04723 66.6314 8.81382C66.5153 8.81382 66.3994 8.81382 66.3414 8.75538C66.1674 8.93036 66.3994 9.10566 66.4575 9.2222ZM66.8056 9.45561H66.9218V9.28064H66.8056V9.45561ZM60.599 9.57248C60.5409 9.57248 60.3089 9.39751 60.3089 9.57248C60.4251 9.51405 60.5409 9.80589 60.599 9.57248ZM65.9935 9.86433C66.1674 9.86433 66.2836 9.86433 66.2836 9.74746C66.1674 9.63059 65.9935 9.63059 65.9935 9.86433ZM60.0769 10.3312C60.2508 10.448 60.4251 10.0977 60.2508 10.0977C60.2508 10.2146 60.0769 10.1562 60.0769 10.3312ZM66.2255 10.2727C66.2836 10.0393 66.1094 10.0393 65.9355 10.0977C65.9355 10.2727 66.1094 10.2727 66.2255 10.2727ZM66.2836 10.623C66.5156 10.5646 66.7476 10.3312 66.5737 10.0977C66.3417 10.0977 66.3417 10.3896 66.2836 10.623ZM65.4715 11.2651C65.6454 11.382 65.8197 11.6154 65.9355 11.2651C65.8774 11.2067 65.7035 11.2651 65.7616 11.0317C65.9936 10.9733 66.0516 10.7399 66.2255 10.5649C66.0516 10.5065 65.8774 10.448 65.7616 10.3315C65.7616 10.7983 65.5877 10.8567 65.4715 11.2651ZM60.3092 10.9733C60.3092 10.7983 60.5993 11.0317 60.3092 10.9733V10.9733ZM66.1097 11.3236H66.2259V11.2067H66.1097V11.3236ZM63.0356 17.6851H62.9775C62.9775 17.8601 62.8613 17.8601 62.7455 17.8601C62.9775 18.3853 62.4555 18.3853 62.6294 18.7356C62.3974 18.6772 62.3974 18.8525 62.2812 18.9106C62.2231 19.144 62.3393 19.144 62.3393 19.3189C62.2812 19.4358 62.0492 19.3189 62.0492 19.4358C62.2231 19.8442 61.9331 20.3695 61.6434 20.4863C61.5272 20.8947 61.7595 20.9532 61.8173 21.1285C61.2952 21.07 61.2371 21.5368 61.2952 21.8871C61.0632 21.8871 61.0052 22.004 60.9471 22.1205C61.0052 22.179 61.0632 22.2374 61.0632 22.3539C60.5993 23.2876 59.4391 24.2216 60.0192 25.3305C59.903 25.3305 59.903 25.4474 59.7291 25.3889V25.1555C58.627 26.4395 58.2788 28.5405 57.177 29.8244C57.2351 30.2328 56.8289 30.4665 57.2351 30.5831C57.409 30.4081 57.1189 30.4662 57.177 30.2328C57.3509 30.0578 57.5829 29.9994 57.7571 29.8244C57.7571 29.1242 58.3372 28.4236 58.6273 27.7234C58.8593 27.6649 58.6854 28.0737 58.9173 28.0152C58.9173 27.7818 59.0335 27.7234 59.1493 27.6068C59.0913 27.8403 59.3813 27.6653 59.3232 27.49C59.2071 27.49 59.2071 27.6068 59.1493 27.6068C59.1493 27.315 59.1493 27.0816 59.3813 27.0816C59.4975 26.9066 59.0913 26.8482 59.2652 26.7313C59.4971 26.7313 59.4391 26.9647 59.671 26.9063C59.903 26.6729 59.4971 26.7894 59.5549 26.556C59.7288 26.381 59.671 26.6144 59.903 26.6144C59.7291 26.2061 59.8449 25.9142 59.903 25.6808C59.9611 25.7392 60.0192 25.7392 60.0192 25.8558C60.0192 25.9723 59.903 26.0307 59.903 26.2061C60.889 24.8637 61.2952 22.7042 62.2812 21.5372C62.1073 21.3038 62.2231 21.1869 62.4551 21.1288C62.5132 20.9538 62.397 20.8954 62.397 20.7204C62.629 20.662 62.6871 20.4286 62.629 20.2536C62.8029 20.1952 62.8029 19.9617 63.0349 19.9617C63.0349 19.7283 62.861 19.7868 62.8029 19.6115C62.861 19.4946 63.093 19.6115 63.093 19.4365C63.0349 19.2615 62.861 19.4365 62.8029 19.3196C62.8029 19.0278 63.0349 19.2612 63.1511 19.2612C63.325 18.7359 63.383 18.3856 63.5569 17.9773C63.383 17.9188 63.4408 18.2107 63.2088 18.1522C63.2088 17.9773 63.4408 17.8604 63.2088 17.8019C63.2088 17.9769 62.9768 17.8019 63.0349 17.6851C63.2669 17.8019 63.0349 17.3932 63.325 17.5101C63.2669 17.627 63.325 17.7435 63.4411 17.6851C63.615 17.6851 63.383 17.2767 63.6731 17.2767C63.6731 17.4517 63.4411 17.7435 63.6731 17.8604C63.6731 17.5101 63.9632 17.452 63.9051 16.9848C63.7312 17.1017 63.6731 17.0433 63.5569 16.868C64.079 16.8095 63.4408 16.693 63.6731 16.5177C63.9051 16.5177 63.847 16.868 64.1371 16.868C64.079 16.2843 64.601 16.1677 64.5429 15.759C64.4849 15.6422 64.311 15.759 64.2529 15.584C64.311 15.4672 64.369 15.2922 64.4849 15.2338C64.5429 15.4672 64.3687 15.4672 64.4268 15.584C64.6588 15.6425 64.7749 15.584 64.8907 15.4672C64.8327 15.2922 64.8327 15.0588 64.7746 14.8251C64.9485 14.7082 65.1227 14.9419 65.1227 14.5332C64.8327 14.5332 64.6588 14.4163 64.5426 14.4163C64.5426 14.1245 65.0066 14.2414 65.1227 14.0661C65.0066 14.1829 65.0066 14.4744 65.1808 14.4744C65.2389 14.1826 65.2389 13.8323 65.297 13.5989C65.1808 13.5405 65.1808 13.6573 65.1231 13.6573C65.0069 13.3655 65.297 13.4824 65.297 13.3655C65.0069 13.3071 65.5289 12.6653 65.587 13.0152C65.5289 12.8402 65.9929 12.3731 65.6451 12.1981C65.5289 12.2565 65.7032 12.6649 65.4131 12.6065C65.6451 12.4315 65.2392 11.8478 65.7612 11.8478C65.7612 11.6144 65.4131 11.731 65.5293 11.381C65.2973 11.7313 64.7172 12.6649 65.2392 12.7818C65.1811 12.8987 65.1811 13.0736 65.0653 13.0736C65.0072 13.0736 64.9492 13.0152 64.8333 13.0152C64.7172 13.7154 64.3694 14.1826 64.2532 14.8828C64.1371 14.9997 63.9632 14.9997 63.8473 15.1162C63.7893 15.3496 63.9635 15.3496 63.9054 15.5246C63.7315 15.4662 63.7893 15.6996 63.6734 15.6996C63.8473 15.9914 63.4414 16.108 63.4995 16.5167H63.2095C63.2675 16.9251 62.9775 16.9251 62.9775 17.2169C63.0356 17.3338 63.0356 17.5088 63.0356 17.6837V17.6851ZM65.4138 13.3662H65.5299V13.2493H65.4138V13.3662ZM64.0216 14.0083C64.0796 13.7164 64.0796 14.3001 64.0216 14.0083V14.0083ZM63.8477 14.3001C63.8477 14.2417 63.9057 14.3001 63.8477 14.3001V14.3001ZM56.191 17.5685C56.655 16.8099 56.945 15.9343 57.2351 15.0588C57.2351 15.0004 57.177 14.9419 57.1189 15.0004C56.8289 15.8175 56.3649 16.8095 56.191 17.5682V17.5685ZM64.9498 15.1757C64.9498 15.1757 65.0079 15.1172 65.066 15.1172C65.0079 15.0588 65.0079 14.9423 64.8921 15.0004C64.8921 15.0588 64.8921 15.1753 64.9501 15.1753L64.9498 15.1757ZM57.4671 15.8178C57.5832 15.5844 57.641 16.1096 57.4671 15.8178V15.8178ZM57.0612 17.1602C57.0031 17.1017 57.0612 17.2186 57.0612 17.1602V17.1602ZM55.901 18.2691C56.191 18.2691 56.3068 17.8607 56.191 17.6854C55.959 17.7438 55.959 18.0357 55.901 18.2691ZM56.7711 17.9773C56.713 17.9773 56.8292 18.0357 56.7711 17.9773V17.9773ZM55.8432 18.5609H56.0171V18.386H55.8432V18.5609ZM55.4373 19.6699C55.6693 19.6115 55.9013 19.1446 55.7274 18.9112C55.6112 19.1446 55.4954 19.378 55.4373 19.6699ZM56.1333 19.6699C56.3072 19.7868 56.3072 19.378 56.1333 19.4365V19.6699ZM56.0171 20.1367H56.1333V19.9033H56.0171V20.1367ZM55.205 20.2536C55.3789 20.312 55.5531 20.0202 55.3789 19.9617C55.3789 20.0786 55.205 20.0202 55.205 20.2536ZM56.5391 20.2536C56.5391 20.1952 56.5972 20.2536 56.5391 20.2536V20.2536ZM55.3212 20.8373C55.2631 20.7204 55.3792 20.4289 55.1473 20.487C55.0311 20.6039 55.0892 20.8954 55.3212 20.8373ZM55.8432 20.8373C55.8432 20.8373 55.8432 20.7788 55.9013 20.7788C55.9013 20.7204 55.9013 20.6039 55.7851 20.662C55.7851 20.7204 55.7851 20.8369 55.8432 20.8369V20.8373ZM54.5091 22.4715C54.8572 22.1796 55.1473 21.1876 55.0311 20.9541C54.915 21.3625 54.683 21.8878 54.5091 22.4715ZM56.1913 22.3546H56.3652V22.1796H56.1913V22.3546ZM54.4513 22.7049C54.5094 22.7049 54.5675 22.7633 54.6252 22.7633C54.5672 22.6465 54.6252 22.5299 54.4513 22.5299V22.7049ZM54.1613 23.8138C54.2194 23.522 54.7414 23.0552 54.3932 22.8802C54.3932 23.172 54.0451 23.5223 54.1613 23.8138ZM53.9293 24.456C54.1032 24.456 54.1613 24.281 54.1613 24.1057C53.9293 24.0473 53.9874 24.3391 53.9293 24.456ZM53.6392 25.9152C53.6973 25.6234 53.8712 25.5068 53.9293 25.215C53.8131 25.215 53.8131 25.0981 53.6973 25.1565C53.7554 25.4484 53.3492 25.7987 53.6392 25.9152ZM54.5094 26.4405C54.7414 26.5573 54.7414 26.1486 54.5094 26.2655V26.4405ZM53.3492 26.7907H53.4653V26.5573H53.3492V26.7907ZM54.4513 26.9657H54.6252V26.7907H54.4513V26.9657ZM53.9874 26.9073C53.6392 27.1407 54.2193 27.1991 53.9874 26.9073V26.9073ZM55.0314 26.9657C55.0895 26.6739 55.0895 27.2576 55.0314 26.9657V26.9657ZM53.6973 28.1912C53.6392 28.1912 53.7554 28.2496 53.6973 28.1912V28.1912ZM58.5699 28.3081H58.686V28.1331H58.5699V28.3081ZM58.8599 28.4249C58.9761 28.4834 59.15 28.1915 58.9761 28.1331C58.9761 28.3081 58.8022 28.25 58.8599 28.4249ZM58.2798 29.1252C58.3379 28.8918 58.5118 28.7168 58.5699 28.4249C58.3379 28.4834 58.164 28.9502 58.2798 29.1252ZM58.5699 29.1252C58.8019 29.0667 58.7438 28.7749 58.8599 28.6584C58.5699 28.6584 58.5699 28.8333 58.5699 29.1252ZM53.1175 30.2341C53.2337 29.9423 53.2337 30.526 53.1175 30.2341V30.2341ZM52.1896 31.8683C52.2477 31.8099 52.3635 31.4015 52.0735 31.4599C52.1315 31.6934 51.8996 31.8102 52.1896 31.8683ZM54.0458 31.6934C53.9877 31.6934 54.1039 31.7518 54.0458 31.6934V31.6934ZM52.0157 32.0436H52.1896V31.9268H52.0157V32.0436ZM51.2617 35.7789C51.2036 35.7789 51.3198 35.8373 51.2617 35.7789V35.7789ZM68.0253 38.8139C68.1414 38.5805 68.1992 39.0473 68.0253 38.8139V38.8139ZM67.7352 38.9307C67.8514 39.1642 67.9091 38.6389 67.7352 38.9307V38.9307ZM67.9672 39.0476C67.9091 39.0476 68.0253 39.106 67.9672 39.0476V39.0476ZM67.3871 39.3395C67.6191 39.3395 67.793 39.106 67.561 39.0476C67.561 39.2226 67.3871 39.1645 67.3871 39.3395ZM67.1551 39.5729C67.2132 39.281 67.2132 39.8647 67.1551 39.5729V39.5729ZM50.5658 42.4326C50.5077 42.4326 50.6238 42.491 50.5658 42.4326V42.4326ZM50.5658 42.7244C50.6238 42.4326 50.6238 43.0163 50.5658 42.7244V42.7244ZM50.5658 43.0163C50.5658 43.1331 50.5077 43.1331 50.5077 43.1912C50.6816 43.3081 50.6816 42.9578 50.5658 43.0163C50.6238 42.7244 50.3338 42.9578 50.5658 43.0163ZM50.6238 43.4831C50.5658 43.4831 50.5658 43.3662 50.5077 43.3662C50.3915 43.4831 50.6238 43.658 50.6238 43.4831ZM50.4499 44.3002C50.4499 44.1252 50.74 44.417 50.4499 44.3002V44.3002ZM50.4499 44.4752C50.3918 44.4167 50.4499 44.5336 50.4499 44.4752V44.4752ZM50.8558 45.2338C50.7977 45.7006 50.8558 45.0004 50.8558 45.2338V45.2338ZM50.972 45.8759C50.972 45.7591 51.03 45.5841 50.9139 45.5841C50.7977 45.701 50.7977 45.8175 50.972 45.8759ZM50.9139 45.9344C50.74 46.2262 51.1459 46.2262 50.9139 45.9344V45.9344ZM60.0208 46.5181C60.369 46.5181 60.4848 46.2847 60.659 46.1678C60.5429 46.1678 60.6009 46.0509 60.5429 45.9928C60.369 46.1678 60.137 46.2847 60.0208 46.5181ZM51.3201 46.1678C51.3201 46.1094 51.3782 46.1678 51.3201 46.1678V46.1678ZM61.4711 46.1678C61.4711 46.1094 61.5292 46.1678 61.4711 46.1678V46.1678ZM61.123 46.4012C61.2969 46.4012 61.413 46.3428 61.413 46.1678C61.2969 46.1678 61.181 46.2847 61.123 46.4012ZM51.3782 46.4012C51.4943 46.1678 51.4943 46.6931 51.3782 46.4012V46.4012ZM59.8469 46.6931C59.905 46.9265 60.0208 46.4596 59.8469 46.6931V46.6931ZM59.3249 46.9849V47.1018H59.4988C59.5569 47.0433 59.5569 46.9849 59.3826 46.9268C59.3826 46.9658 59.3633 46.9852 59.3246 46.9852L59.3249 46.9849ZM59.9631 48.0938C59.9631 47.977 60.137 48.0354 60.0792 47.802C59.9053 47.7436 59.7892 48.0354 59.9631 48.0938ZM59.7311 48.5022C59.905 48.5607 60.137 48.3273 59.9631 48.2688C59.9631 48.4438 59.673 48.3273 59.7311 48.5022ZM60.0211 48.5022C60.1373 48.7356 60.1951 48.2688 60.0211 48.5022V48.5022ZM59.7311 48.7356C59.5572 48.9691 59.9631 48.5607 59.7311 48.7356V48.7356ZM57.0628 49.3778C57.2948 49.3193 58.0488 49.1444 57.7588 48.9694C57.6426 49.2028 57.1787 49.1444 57.0628 49.3778ZM58.6289 49.3193C58.8028 49.2609 58.919 49.2025 58.9771 49.0859C58.7451 49.0275 58.687 49.2028 58.6289 49.3193ZM56.2507 49.3778C56.3669 49.1444 56.6566 49.4362 56.2507 49.3778V49.3778ZM66.8657 7.12317C67.0396 7.1816 67.0396 7.29814 66.9238 7.41501C66.8076 7.41501 66.8657 7.24004 66.8657 7.12317ZM65.1257 13.6597L64.9518 13.8346C65.1257 13.8931 65.1257 13.7762 65.1257 13.6597ZM64.7198 14.0099C64.7198 13.7765 65.0099 14.0684 64.7198 14.0099V14.0099ZM64.4878 15.2354C64.4878 15.0605 64.4878 14.8851 64.7198 14.8851C64.6617 15.0601 64.6037 15.2354 64.4878 15.2354ZM64.1978 15.0605H64.3717V15.1773H64.1978V15.0605ZM64.0816 15.4107C64.1978 15.3523 64.1978 15.8191 64.0235 15.7026C64.0816 15.6441 64.0816 15.5276 64.0816 15.4107ZM64.1397 15.8191H64.2559V15.936H64.1397V15.8191ZM63.9077 16.5194C64.0239 16.7528 64.0816 16.2275 63.9077 16.5194V16.5194ZM63.1537 18.3285C62.9798 18.5619 63.3857 18.1536 63.1537 18.3285V18.3285ZM62.8636 18.387C62.9798 18.4454 63.0956 18.5038 63.0956 18.6788C62.9795 18.6204 62.8636 18.5619 62.8636 18.387ZM63.0956 18.7372V18.9707C62.9795 19.0875 62.7475 18.9122 62.7475 18.7372C62.8636 18.6204 62.8636 18.7957 63.0956 18.7372ZM62.6317 19.3209C62.5155 19.3794 62.5736 19.5544 62.3997 19.5544C62.4578 19.4959 62.3997 19.2625 62.6317 19.3209ZM62.2835 19.7293C62.4574 19.7293 62.4574 19.8462 62.6317 19.9043C62.5736 20.1377 62.1677 20.0212 62.2835 19.7293ZM62.0516 20.313C62.1677 20.313 62.3416 20.313 62.3416 20.488C62.1677 20.488 62.0516 20.488 62.0516 20.313ZM62.1096 20.8383C62.2258 20.8967 62.1096 21.0133 62.1096 21.0717C61.9935 21.0133 62.1096 20.9548 62.1096 20.8383ZM61.7615 21.6554C61.5876 21.8888 61.9935 21.4804 61.7615 21.6554V21.6554ZM61.4134 21.7138C61.5873 21.7138 61.5873 21.8888 61.5873 22.0641C61.2972 22.1225 61.2972 21.8307 61.4134 21.7138ZM61.4134 22.1806C61.5873 22.1806 61.6453 22.1806 61.6453 22.3556H61.4134V22.1806ZM61.1233 22.4725C61.1814 22.414 61.3553 22.414 61.3553 22.4725C61.4134 22.6475 61.1233 22.6475 61.1233 22.4725ZM61.1233 22.8809H61.2972V23.0558H61.1233V22.8809ZM60.8913 23.1143C60.9494 22.8809 61.0652 23.4061 60.8913 23.1143V23.1143ZM60.6593 23.4646C60.7755 23.4061 60.7755 23.523 60.8913 23.523C60.8913 23.6399 60.5432 23.6399 60.6593 23.4646ZM60.7174 23.9314C60.8336 24.1648 60.8913 23.698 60.7174 23.9314V23.9314ZM60.4274 23.9898C60.4854 23.8148 60.7174 24.1067 60.4274 23.9898V23.9898ZM60.6013 24.2817C60.4274 24.5151 60.8332 24.1067 60.6013 24.2817V24.2817ZM60.1954 25.0403C59.8472 25.0988 60.1373 24.8069 60.1954 25.0403V25.0403ZM60.1954 25.0403C60.2535 25.0403 60.2535 24.9819 60.3115 24.9235C60.4854 24.9819 60.2535 25.1569 60.2535 25.2737C60.1373 25.2737 60.1373 25.1569 60.1954 25.0403ZM60.0215 25.5071C60.0215 25.4487 60.0796 25.5071 60.0215 25.5071V25.5071ZM59.0355 27.0829C59.1516 26.7911 59.1516 27.3748 59.0355 27.0829V27.0829ZM59.0355 27.3163C59.0355 27.4332 59.0355 27.6082 58.8616 27.6082C58.7454 27.4913 58.8616 27.3163 59.0355 27.3163ZM69.3023 38.1133C69.3604 37.8215 69.3604 38.3467 69.3023 38.1133V38.1133ZM69.1284 38.2302C69.4765 38.4636 68.7225 38.697 68.6645 38.9888C68.4906 38.697 68.9545 38.4051 69.1284 38.2302ZM55.0331 38.697C55.0331 38.522 55.3232 38.8139 55.0331 38.697V38.697ZM68.2582 39.2807C68.1421 39.5725 67.9682 39.8059 67.6781 39.9228C67.7362 39.5725 68.0263 39.456 68.2582 39.2807ZM67.1561 40.2143C67.2142 40.2143 67.2722 40.2728 67.2722 40.3893C67.1561 40.4477 67.1561 40.3309 67.0403 40.3309C67.0983 40.2724 67.1564 40.2724 67.1564 40.214L67.1561 40.2143ZM66.9822 40.4477H67.1561V40.6227H66.9822V40.4477ZM66.8083 40.6227C66.8664 40.3309 66.8664 40.9146 66.8083 40.6227V40.6227ZM66.6344 40.9146C66.6344 40.6812 66.9244 40.973 66.6344 40.9146V40.9146ZM66.1124 41.4398C65.9962 41.2648 66.4024 41.2648 66.2862 41.4398H66.1124ZM66.1124 41.4398C66.1124 41.5567 66.0543 41.6148 65.9962 41.6732C65.88 41.6732 65.9381 41.3229 66.1124 41.4398ZM66.9825 41.4983C67.1564 41.5567 66.9825 41.7901 66.8664 41.7317C66.8664 41.6148 66.9825 41.6148 66.9825 41.4983ZM66.5186 41.6732C66.5186 41.4398 66.8086 41.7317 66.5186 41.6732V41.6732ZM66.2285 41.7317C66.1704 41.7317 66.2866 41.7901 66.2285 41.7317V41.7317ZM65.9384 41.7901H66.1704C66.0543 41.8485 66.1123 42.0819 65.9384 42.0235V41.7901ZM66.6925 41.7901H66.8664V41.9651C66.8083 41.9066 66.8083 41.9651 66.8083 42.0235H66.6344V41.8485C66.6925 41.907 66.6925 41.8485 66.6925 41.7901ZM64.8944 42.1404C64.8944 42.0819 65.0105 42.0819 64.8944 42.1404V42.1404ZM65.2425 42.3154C65.2425 42.1404 65.3006 42.0819 65.4745 42.0819C65.4745 42.2569 65.4164 42.3154 65.2425 42.3154ZM65.9384 42.0819H66.2866C65.9965 42.3738 65.7065 42.6656 65.4164 42.8991C65.1844 42.9575 65.2425 42.7822 65.1264 42.7822C65.4164 42.6072 65.4164 42.7237 65.5322 42.3154C65.6484 42.3154 65.6484 42.4322 65.7642 42.4322C65.9381 42.3738 65.5903 42.3154 65.6481 42.1404C65.822 42.1404 65.9962 42.3738 65.9381 42.0819H65.9384ZM64.8363 42.1404H64.8944C64.8944 42.1988 64.8363 42.2573 64.8363 42.1404ZM65.2422 42.3154C65.3003 42.4903 65.1841 42.5488 64.9521 42.4903C65.0102 42.3735 65.0683 42.2569 65.2422 42.3154ZM64.5462 42.4903C64.5462 42.3154 64.8363 42.5488 64.5462 42.4903V42.4903ZM66.1704 42.6653C65.1844 44.0661 63.3863 45.2916 62.0522 46.6339C62.0522 46.7508 62.2261 46.6339 62.2842 46.5755C62.2261 47.0423 61.2401 47.451 61.124 47.9179C61.0078 47.9179 61.0659 47.6845 60.892 47.7429C61.0659 47.451 61.0659 47.2761 61.0081 46.9842C61.2401 47.1011 61.182 47.0427 61.414 47.1011C61.646 47.0427 61.2401 47.0427 61.3559 46.8677C62.9801 45.4669 64.6043 44.0664 66.1704 42.6656V42.6653ZM61.646 46.9842C61.7622 47.0427 61.9361 46.8093 61.7622 46.7508C61.7622 46.8677 61.646 46.8677 61.646 46.9842ZM61.2979 47.451C61.2398 47.451 61.3559 47.5095 61.2979 47.451V47.451ZM64.894 42.8403C65.126 42.7818 65.0102 43.0737 65.2422 43.0153C65.126 43.1902 64.9521 43.3071 64.8363 43.4821C64.7201 43.4236 64.6043 43.3652 64.6043 43.1902C64.7782 43.0734 64.7782 43.2487 64.9525 43.1902C65.0105 43.0153 64.8363 43.0734 64.8944 42.84L64.894 42.8403ZM64.4301 43.1906C64.4882 42.8987 64.4882 43.4824 64.4301 43.1906V43.1906ZM64.7201 43.5989C64.4882 43.5405 64.4301 43.5405 64.1981 43.5989C64.14 43.3071 64.7201 43.424 64.7201 43.5989ZM63.85 43.4821H64.0239V43.5989H63.85V43.4821ZM63.7338 43.8905C63.6177 43.8905 63.5599 43.832 63.5599 43.7155C63.6761 43.7155 63.7338 43.7155 63.7919 43.7739C63.7919 43.8324 63.7338 43.8324 63.7338 43.8908V43.8905ZM64.0819 43.832C64.372 43.8905 64.3139 43.7152 64.5459 43.7152C64.5459 43.832 64.372 43.7736 64.4297 43.9486C64.3136 43.9486 64.0239 44.0654 64.0816 43.8317L64.0819 43.832ZM64.0819 43.832C63.9658 43.832 64.0239 43.7152 64.0819 43.832V43.832ZM63.386 43.8905C63.5022 44.0073 63.618 44.0654 63.6761 44.2407C63.386 44.2992 63.4441 44.0658 63.386 43.8905ZM63.7341 43.8905C63.7922 43.8905 63.908 43.9489 63.8503 44.0654H63.7341V43.8905ZM63.908 44.1823C64.0242 43.9489 64.14 44.4157 63.908 44.1823V44.1823ZM63.154 44.2992H63.3279V44.5326H63.096V44.4157C63.154 44.4157 63.154 44.3573 63.154 44.2988V44.2992ZM49.8127 44.416H49.9289V44.5329H49.8127V44.416ZM62.5158 44.591H62.6897V44.766H62.5158V44.591ZM62.7478 44.591H63.0379C62.9798 44.7079 62.9217 44.8244 62.7478 44.8244V44.591ZM63.0956 45.8749C63.2695 45.9334 63.0375 46.1668 62.8636 46.0499C62.8636 45.9331 63.0956 45.9915 63.0956 45.8749ZM62.5155 46.2833C62.8056 46.3418 62.5736 46.5752 62.3994 46.5752C62.3413 46.4002 62.5155 46.4002 62.5155 46.2833ZM52.6546 47.7426C52.8865 47.7426 52.8865 48.0344 52.9446 48.1509C52.7126 48.1509 52.6546 47.976 52.6546 47.7426ZM60.7752 47.9175C60.9491 47.8591 60.9491 47.976 60.9491 48.0925H60.7171C60.7752 48.0341 60.7752 47.9756 60.7752 47.9175ZM53.2347 48.9681C53.1185 48.9096 53.1185 48.8512 53.0027 48.7931C53.0027 48.6181 52.9446 48.5012 52.8865 48.3847C53.0604 48.2097 53.1766 48.735 53.2347 48.9684V48.9681ZM76.6686 35.8363C76.4947 36.8284 76.6686 37.4705 75.7407 37.9958C75.0447 39.7465 73.3625 40.5636 72.0864 41.731C70.9843 41.9644 69.6501 42.7231 68.606 41.9644C67.9679 42.8399 67.9101 43.8905 67.62 45.1744C69.9983 46.867 73.4786 44.6491 75.9149 43.8905C77.249 43.1318 78.699 42.3731 80.2073 41.731C80.3812 41.4976 80.7294 41.4392 80.9033 41.2642C81.0772 41.7894 79.8592 42.0813 79.453 42.4897C79.453 42.6065 79.5692 42.5481 79.685 42.5481C78.0608 44.0073 76.2627 44.8825 74.1165 45.6412C74.5224 45.6412 75.3925 45.6412 75.9146 45.3494C75.8565 45.6412 75.6245 45.6996 75.3925 45.8162C75.3925 45.933 75.7407 45.7577 75.6245 45.9912C74.9286 46.2246 74.2904 46.9248 73.9422 46.6914C73.6522 46.8083 73.8842 46.9248 73.7683 47.0998C72.2022 47.8 71.1582 48.2672 69.1281 48.2672C66.344 47.6835 65.9959 44.9406 66.344 42.4309C67.3881 39.2209 69.6501 35.6607 72.8404 34.0849C73.4205 33.7931 74.1165 33.9099 74.6966 33.9099C75.1606 33.9684 75.2767 34.3183 75.6826 34.3767C75.7987 35.077 76.2627 35.4273 76.6686 35.836V35.8363ZM72.1441 36.8868C72.3761 36.9453 72.55 36.4784 72.7243 36.7118C71.7383 37.4705 70.8681 38.2876 70.1141 39.2797C72.0283 38.2876 73.7683 37.1202 74.8705 35.3695C73.8845 35.7779 72.7243 36.0697 72.1441 36.8868ZM71.796 37.1202C71.796 37.0618 71.8541 37.1787 71.796 37.1202V37.1202ZM71.3321 46.1665C71.506 46.2249 71.7379 46.0496 71.6802 46.5167C71.9702 46.3418 72.1441 46.2249 72.4342 46.5167C72.5504 46.3999 72.3181 46.1665 72.5504 46.1665C72.9562 46.1665 73.6525 45.8746 74.0006 45.6412C73.1305 46.108 72.0283 45.8162 71.3324 46.1665H71.3321ZM81.1349 41.1473C81.1349 41.0889 81.2511 41.1473 81.1349 41.1473V41.1473ZM81.1349 41.1473C81.0188 41.2057 81.1349 41.2642 81.1349 41.1473V41.1473ZM75.7403 45.6996C75.8565 45.4662 75.8565 45.9915 75.7403 45.6996V45.6996ZM89.4875 41.0308C92.5039 40.4471 95.5781 39.3381 98.1302 38.1126C98.3621 38.1711 98.6522 38.0542 98.8261 38.2295C98.7099 38.6379 98.8842 38.8132 99 39.0466C98.1879 39.5134 97.4339 40.0387 96.5637 40.4474C96.5056 40.2724 96.5637 40.2724 96.5056 40.039C96.3895 40.214 96.2156 40.3309 96.0998 40.039C95.9259 40.0975 95.9259 40.3309 95.8097 40.4474C95.8097 40.5058 95.9259 40.5058 95.9259 40.5643C96.1578 40.6812 96.0998 40.4474 96.0998 40.3309C96.6799 40.6227 95.8097 40.6812 95.7516 41.0311C95.5196 41.0311 95.6355 40.7977 95.4035 40.8561C95.0554 40.9146 95.4035 41.3814 95.2296 41.4398C94.9976 41.4983 95.1134 41.0314 95.1715 41.0314C94.8234 41.1483 94.7076 41.4398 94.4175 41.6151C94.1855 41.6736 94.3013 41.4402 94.1274 41.4402C94.0113 41.4402 94.0113 41.6151 94.0113 41.7904C93.7793 41.8489 93.8951 41.557 93.7793 41.4986C93.6054 41.4986 93.4893 41.7904 93.3153 41.557C93.0834 41.6739 93.4893 41.732 93.4315 41.9073C93.1414 41.7323 93.0256 42.0242 92.6775 41.7904C92.6194 42.0823 93.0834 41.8489 93.0256 42.1407C92.7936 42.1407 92.7356 42.1991 92.5617 42.1407V41.8489C92.3296 41.8878 92.1168 41.9073 91.9235 41.9073C91.8654 42.1407 91.8654 42.1991 91.6334 41.9657C91.4595 42.1407 91.8073 42.1407 91.6915 42.4326C90.7055 42.7244 88.2111 42.6075 88.1531 44.0083C86.8189 45.8175 86.0068 48.3857 83.2227 48.4438C79.3365 47.6267 79.9166 41.4986 82.2948 39.5144C82.2948 39.2226 82.3529 38.9892 82.2368 38.7558C82.6426 34.5537 87.8053 35.079 89.6033 37.6468C90.1254 38.7558 90.0673 39.9813 89.4872 41.0318L89.4875 41.0308ZM87.1093 36.9453C86.0652 37.7039 84.2672 38.1126 84.7311 39.8634C84.383 40.1552 83.9771 40.5636 83.9771 41.0308C84.7311 41.4392 86.0652 41.556 86.9935 41.4392C87.5155 40.0384 88.5015 38.0542 87.1096 36.9453H87.1093ZM88.7335 38.7544C88.6754 38.7544 88.7335 38.8129 88.7335 38.7544V38.7544ZM97.4342 39.63C97.4923 39.3381 97.4923 39.8634 97.4342 39.63V39.63ZM96.6221 40.0384C96.6802 39.8049 96.9122 40.0968 96.6221 40.0384V40.0384ZM95.578 40.5052C95.52 40.3302 95.6942 40.3302 95.6942 40.1549C95.2883 40.0965 95.3461 40.5052 95.578 40.5052ZM95.1722 40.7386C95.3461 40.7386 95.4622 40.7386 95.4622 40.5636C95.3461 40.5636 95.3461 40.4467 95.2302 40.4467C95.2302 40.5636 95.1722 40.5636 95.1722 40.7386ZM94.7663 40.6802H94.9983C94.9983 40.5052 94.8821 40.5052 94.7663 40.5052V40.6802ZM93.084 41.0885C93.6641 40.9717 94.2443 41.147 94.824 40.8551C94.4182 40.7967 94.0119 40.8551 93.6638 40.6802C93.7219 41.0304 93.1418 40.797 93.0837 41.0885H93.084ZM88.4438 41.2054C88.3857 41.2054 88.5018 41.2638 88.4438 41.2054V41.2054ZM91.6341 41.2638C91.6341 41.7891 92.5042 41.5557 92.6781 41.3807C92.2723 41.0889 92.0399 41.3807 91.6341 41.2638ZM91.2859 41.5557C90.9378 41.4973 91.344 41.906 91.344 41.6141H91.576C91.576 41.4392 91.4598 41.3807 91.2859 41.4392V41.556V41.5557ZM90.6477 41.7307C90.5316 41.6722 90.5316 41.4973 90.2996 41.5557C90.1835 41.8475 90.6477 41.9641 90.6477 41.7307ZM83.0492 41.7891C82.5271 43.073 81.4831 44.8241 82.2371 46.6917C84.3252 46.3414 85.0792 44.7072 86.0075 43.1899C84.7314 43.0149 83.9193 42.3728 83.0492 41.7891ZM90.1257 41.8475C90.0676 41.7891 90.1257 41.906 90.1257 41.8475V41.8475ZM91.2279 42.1978C91.344 41.9644 91.4598 42.4312 91.2279 42.1978V42.1978ZM90.5897 42.3147C90.5316 42.3147 90.2415 42.1978 90.2415 42.3147C90.3577 42.4316 90.5316 42.6065 90.5897 42.3147ZM90.6477 42.3147C90.7058 42.1397 90.9378 42.4316 90.6477 42.3147V42.3147ZM90.9959 42.3147C91.054 42.4316 91.112 42.3147 90.9959 42.3147C90.9378 42.3731 90.9959 42.2563 90.9959 42.3147ZM90.1257 42.4316C90.1838 42.1982 90.2996 42.665 90.1257 42.4316V42.4316ZM89.6617 42.5484C89.6037 42.5484 89.6037 42.4316 89.4878 42.49C89.3717 42.665 89.7198 42.665 89.6617 42.5484ZM91.2859 41.5564C91.3247 41.5564 91.344 41.5758 91.344 41.6148C91.344 41.6148 91.2859 41.6148 91.2859 41.5564Z" fill="#7C144C"/>
</g>
</g>
</g>
</svg>
