<svg width="28" height="28" viewBox="0 0 28 28" fill="none" xmlns="http://www.w3.org/2000/svg">
<path d="M21.875 24.5H16.4653C17.3741 23.6886 18.2311 22.821 19.0312 21.9023C22.0336 18.4494 23.625 14.8094 23.625 11.375C23.625 8.82229 22.6109 6.37414 20.8059 4.5691C19.0009 2.76406 16.5527 1.75 14 1.75C11.4473 1.75 8.99914 2.76406 7.1941 4.5691C5.38906 6.37414 4.375 8.82229 4.375 11.375C4.375 14.8094 5.96203 18.4494 8.96875 21.9023C9.76895 22.821 10.6259 23.6886 11.5347 24.5H6.125C5.89294 24.5 5.67038 24.5922 5.50628 24.7563C5.34219 24.9204 5.25 25.1429 5.25 25.375C5.25 25.6071 5.34219 25.8296 5.50628 25.9937C5.67038 26.1578 5.89294 26.25 6.125 26.25H21.875C22.1071 26.25 22.3296 26.1578 22.4937 25.9937C22.6578 25.8296 22.75 25.6071 22.75 25.375C22.75 25.1429 22.6578 24.9204 22.4937 24.7563C22.3296 24.5922 22.1071 24.5 21.875 24.5ZM6.125 11.375C6.125 9.28642 6.95468 7.28338 8.43153 5.80653C9.90838 4.32968 11.9114 3.5 14 3.5C16.0886 3.5 18.0916 4.32968 19.5685 5.80653C21.0453 7.28338 21.875 9.28642 21.875 11.375C21.875 17.6345 15.808 22.8594 14 24.2812C12.192 22.8594 6.125 17.6345 6.125 11.375ZM18.375 11.375C18.375 10.5097 18.1184 9.66385 17.6377 8.94438C17.1569 8.22492 16.4737 7.66416 15.6742 7.33303C14.8748 7.00189 13.9951 6.91525 13.1465 7.08406C12.2978 7.25287 11.5183 7.66955 10.9064 8.28141C10.2946 8.89326 9.87787 9.67281 9.70906 10.5215C9.54025 11.3701 9.62689 12.2498 9.95803 13.0492C10.2892 13.8487 10.8499 14.5319 11.5694 15.0127C12.2888 15.4934 13.1347 15.75 14 15.75C15.1603 15.75 16.2731 15.2891 17.0936 14.4686C17.9141 13.6481 18.375 12.5353 18.375 11.375ZM11.375 11.375C11.375 10.8558 11.529 10.3483 11.8174 9.91663C12.1058 9.48495 12.5158 9.1485 12.9955 8.94982C13.4751 8.75114 14.0029 8.69915 14.5121 8.80044C15.0213 8.90172 15.489 9.15173 15.8562 9.51884C16.2233 9.88596 16.4733 10.3537 16.5746 10.8629C16.6758 11.3721 16.6239 11.8999 16.4252 12.3795C16.2265 12.8592 15.89 13.2692 15.4584 13.5576C15.0267 13.846 14.5192 14 14 14C13.3038 14 12.6361 13.7234 12.1438 13.2312C11.6516 12.7389 11.375 12.0712 11.375 11.375Z" fill="white"/>
</svg>
