<svg width="145" height="45" viewBox="0 0 145 45" fill="none" xmlns="http://www.w3.org/2000/svg">
<g clip-path="url(#clip0_2481_53173)">
<path d="M16.2219 0.662109H20.6068V1.47978H19.7809C19.6365 1.47978 19.3846 1.64478 19.0217 1.97111C18.6588 2.29744 18.4773 2.55411 18.4773 2.72278V15.1894C18.4773 15.3618 18.6588 15.6111 19.0217 15.9411C19.3846 16.2711 19.6365 16.4361 19.7809 16.4361H20.6068V17.2501H14.1369V16.4288H14.9628C15.1072 16.4288 15.3553 16.2638 15.7034 15.9338C16.0516 15.6038 16.2256 15.3544 16.2256 15.1821V3.11144L10.1446 17.5471L4.071 2.86211V15.1858C4.071 15.3581 4.24506 15.6074 4.58948 15.9374C4.93389 16.2674 5.18573 16.4324 5.33016 16.4324H6.15232V17.2464H0.945312V16.4288H1.77117C1.94524 16.4288 2.20447 16.2638 2.5526 15.9338C2.90072 15.6038 3.07107 15.3544 3.07107 15.1821V2.72278C3.07107 2.55411 2.89701 2.30111 2.5526 1.97111C2.20818 1.64111 1.94524 1.47978 1.77117 1.47978H0.945312V0.662109H5.8042L10.8408 13.0811H10.9705L16.2219 0.662109ZM26.6396 15.5708C27.3786 15.6144 28.1151 15.4518 28.7654 15.1014C29.3049 14.7357 29.7501 14.2496 30.0653 13.6824H30.7615C30.4521 14.7476 29.86 15.7111 29.0468 16.4728C28.1548 17.2053 27.0151 17.5749 25.8582 17.5068C25.1703 17.5315 24.4862 17.3964 23.8605 17.1125C23.2348 16.8285 22.6849 16.4035 22.2548 15.8714C21.3525 14.7677 20.876 13.3823 20.9104 11.9628C20.8702 11.2031 20.9835 10.443 21.2435 9.72718C21.5036 9.01133 21.9053 8.35404 22.4251 7.79378C22.8901 7.29868 23.4545 6.90529 24.0821 6.63882C24.7096 6.37236 25.3865 6.2387 26.0693 6.24644C26.8118 6.22959 27.55 6.3618 28.2395 6.63511C28.8653 6.89912 29.4384 7.27163 29.932 7.73511L28.3506 10.1954L27.6988 10.2358C27.8468 9.50356 27.8021 8.74599 27.5692 8.03578C27.4308 7.70527 27.1845 7.43027 26.8696 7.25477C26.5547 7.07928 26.1894 7.01343 25.8323 7.06778C25.3667 7.03848 24.9015 7.12996 24.4826 7.33316C24.0637 7.53636 23.7055 7.84426 23.4436 8.22644C22.8846 9.14598 22.6127 10.2086 22.6622 11.2808C22.6309 12.3917 23.0086 13.4759 23.725 14.3314C24.0851 14.7421 24.5343 15.0669 25.039 15.2816C25.5437 15.4962 26.0909 15.595 26.6396 15.5708ZM37.4018 17.2464H30.8467V16.4288H31.6837C31.8577 16.4288 32.117 16.2638 32.4651 15.9338C32.8132 15.6038 32.9836 15.3544 32.9836 15.1821V2.72278C32.9836 2.55411 32.8132 2.30111 32.4651 1.97111C32.117 1.64111 31.8466 1.47978 31.6837 1.47978H30.8467V0.662109H37.4018V1.47978H36.5759C36.4018 1.47978 36.1426 1.64478 35.7945 1.97111C35.4464 2.29744 35.276 2.55411 35.276 2.72278V9.51344L41.2644 2.89511C41.3792 2.75211 41.2644 2.48078 40.9607 2.08111C40.6571 1.68144 40.4089 1.47978 40.2645 1.47978H39.4609V0.662109H45.5345V1.47978H44.7086C44.3007 1.61864 43.9262 1.83961 43.6087 2.12878C43.0273 2.57244 42.6828 2.86211 42.5643 2.96844L38.4906 7.30611L44.3494 15.0061C44.6336 15.3341 44.9612 15.6227 45.3234 15.8641C45.6142 16.1289 45.9646 16.3212 46.3455 16.4251H47.5602C47.8478 16.3661 48.108 16.2154 48.3009 15.9961C48.6194 15.7064 48.7787 15.4644 48.7787 15.2628V8.48311C48.7787 8.31078 48.6194 8.07978 48.3009 7.79378C48.108 7.5745 47.8478 7.42382 47.5602 7.36478H46.9047V6.54711H50.7674V15.2701C50.7674 15.4718 50.9341 15.7138 51.2674 16.0034C51.4591 16.2114 51.7072 16.3603 51.9821 16.4324H53.3302C53.4746 16.4324 53.7005 16.2894 54.0227 16.0034C54.3449 15.7174 54.5004 15.4718 54.5004 15.2701V8.48311C54.5004 8.31078 54.3412 8.07978 54.0227 7.79378C53.7042 7.50778 53.4746 7.36478 53.3302 7.36478H52.6339V6.54711H56.0633L56.4966 8.72878C57.0854 8.11315 57.7165 7.53855 58.3853 7.00911C59.0646 6.5035 59.8989 6.24457 60.7481 6.27578C61.1469 6.26862 61.543 6.34125 61.9127 6.48931C62.2825 6.63738 62.6182 6.85782 62.8998 7.13744C63.1962 7.42834 63.4282 7.77706 63.5812 8.16146C63.7342 8.54587 63.8049 8.95757 63.7886 9.37044V15.2701C63.7886 15.4718 63.9479 15.7138 64.2664 16.0034C64.5848 16.2931 64.8145 16.4324 64.9589 16.4324H65.6551V17.2464H59.9704V16.4288H60.5703C60.8577 16.369 61.1176 16.2184 61.311 15.9998C61.6295 15.7101 61.7888 15.4681 61.7888 15.2664V9.51344C61.8099 9.03213 61.6547 8.55945 61.3518 8.18244C61.1892 8.00386 60.9876 7.86443 60.7623 7.77483C60.537 7.68522 60.294 7.6478 60.0519 7.66544C59.1934 7.69134 58.3651 7.98522 57.6854 8.50511C56.8928 9.06244 56.4966 9.52811 56.4966 9.90211V15.2701C56.4966 15.4718 56.6558 15.7138 56.9743 16.0034C57.1673 16.2227 57.4274 16.3734 57.715 16.4324H58.3224V17.2464H42.7939L36.9685 8.95611L35.276 10.7601V15.1858C35.276 15.3581 35.4464 15.6074 35.7945 15.9374C36.1426 16.2674 36.4018 16.4324 36.5759 16.4324H37.4018V17.2464ZM43.2161 35.9464L43.1643 35.8951C43.7161 36.3534 44.2753 36.8118 44.8382 37.2701C45.4011 37.7284 46.0011 38.1721 46.6381 38.6048H47.6343V39.4628H45.8122C45.0704 39.4752 44.3333 39.3445 43.642 39.0778C42.9037 38.7506 42.2283 38.299 41.6459 37.7431C40.989 38.398 40.1969 38.9046 39.3238 39.2281C38.3137 39.5759 37.2489 39.7423 36.1796 39.7194C34.8206 39.7265 33.5049 39.2458 32.4762 38.3664C31.9439 37.9412 31.5178 37.3999 31.2313 36.7849C30.9449 36.17 30.8056 35.4978 30.8245 34.8208C30.8135 33.8138 31.0689 32.8215 31.5652 31.9424C32.0466 31.098 32.7215 30.3771 33.5354 29.8378C33.146 29.3482 32.8177 28.8139 32.5577 28.2464C32.3013 27.6499 32.1751 27.0064 32.1873 26.3581C32.1564 25.8529 32.2371 25.3471 32.4238 24.8759C32.6106 24.4047 32.8989 23.9796 33.2687 23.6301C34.0958 22.9483 35.1532 22.6023 36.2278 22.6621C36.8468 22.6414 37.4648 22.7283 38.0536 22.9188C38.4397 23.076 38.851 23.1642 39.2683 23.1791C39.4287 23.183 39.5891 23.1683 39.746 23.1351C39.8774 23.0924 39.9865 23.0002 40.0497 22.8784H40.7904V26.7871H40.0497C39.9347 25.98 39.5424 25.2367 38.9387 24.6824C38.6022 24.2846 38.1802 23.9661 37.7035 23.7505C37.2268 23.5348 36.7074 23.4273 36.1833 23.4358C35.4222 23.3944 34.6699 23.6146 34.0539 24.0591C33.7954 24.2681 33.59 24.5342 33.4543 24.8361C33.3186 25.1379 33.2563 25.4671 33.2724 25.7971C33.2681 26.4435 33.4996 27.0698 33.9242 27.5608C34.3916 28.1002 34.9891 28.5139 35.6612 28.7634C36.7302 29.9123 37.8869 31.0649 39.1313 32.2211C40.3756 33.3773 41.5619 34.459 42.6902 35.4661C42.9991 34.9759 43.2266 34.4399 43.3643 33.8784C43.5 33.2767 43.5658 32.6616 43.5605 32.0451C43.5756 31.714 43.5193 31.3836 43.3954 31.0757C43.2716 30.7678 43.0829 30.4896 42.8421 30.2594C42.3117 29.7962 41.6188 29.5579 40.9126 29.5958V28.7634H46.8677V29.5371H46.2196C46.0752 29.5371 45.79 29.7791 45.3715 30.2704C45.0596 30.5595 44.8406 30.9332 44.7419 31.3448V31.3888C44.7132 32.214 44.5674 33.0311 44.3086 33.8161C44.0597 34.5764 43.691 35.2929 43.2161 35.9391V35.9464ZM37.5314 38.4398C38.2162 38.4489 38.8979 38.3474 39.5497 38.1391C40.1279 37.9471 40.6754 37.6742 41.1755 37.3288L41.0459 37.2444C39.8115 36.1542 38.5967 35.0371 37.4018 33.8931C36.2068 32.7491 35.0489 31.5452 33.928 30.2814C33.5141 30.7107 33.1772 31.2067 32.9317 31.7481C32.6734 32.4039 32.5549 33.1055 32.5836 33.8088C32.6004 34.4237 32.7506 35.0278 33.0241 35.5802C33.2976 36.1325 33.688 36.6201 34.1687 37.0098C35.0636 37.8933 36.2679 38.4015 37.5314 38.4288V38.4398ZM49.5527 3.92911H49.5082C49.1444 3.93235 48.7941 3.79257 48.5342 3.54044C48.4007 3.42134 48.2946 3.27524 48.2231 3.11204C48.1515 2.94884 48.1162 2.77233 48.1194 2.59444V2.55411C48.1089 2.36558 48.1406 2.17706 48.2123 2.0021C48.284 1.82713 48.394 1.67005 48.5342 1.54211C48.8206 1.30718 49.1808 1.17862 49.5527 1.17862C49.9246 1.17862 50.2848 1.30718 50.5711 1.54211C50.7114 1.67005 50.8213 1.82713 50.893 2.0021C50.9647 2.17706 50.9965 2.36558 50.9859 2.55411H50.9415C50.9711 2.55411 50.9859 2.55411 50.9859 2.59444C50.9892 2.77233 50.9538 2.94884 50.8823 3.11204C50.8107 3.27524 50.7046 3.42134 50.5711 3.54044C50.3242 3.78713 49.9886 3.92689 49.6379 3.92911H49.5527ZM60.5703 38.3444C61.7612 38.4124 62.9439 38.1126 63.9553 37.4864C64.8309 36.8338 65.5305 35.9774 65.9921 34.9931H66.8661C66.3868 36.3888 65.4937 37.6091 64.3034 38.4948C63.0792 39.3624 61.6012 39.8081 60.0963 39.7634C58.9996 39.8024 57.9086 39.5912 56.9074 39.1461C55.9063 38.7011 55.022 38.0341 54.3227 37.1968C52.8726 35.4841 52.1013 33.3077 52.1525 31.0734C52.094 28.8994 52.7996 26.7727 54.1486 25.0564C54.8033 24.2401 55.644 23.5889 56.6018 23.1561C57.5597 22.7234 58.6074 22.5214 59.6593 22.5668C60.4433 22.549 61.224 22.6733 61.9628 22.9334C62.5843 23.1762 63.2465 23.3006 63.9145 23.3001C64.1228 23.3102 64.3307 23.2726 64.5219 23.1901C64.6831 23.1082 64.8295 23.0004 64.9552 22.8711H65.5626V28.7194H64.8219C64.6966 27.5393 64.2298 26.4202 63.4775 25.4964C63.0758 24.8836 62.5211 24.3837 61.8671 24.0452C61.2132 23.7067 60.4821 23.541 59.7445 23.5641C59.1155 23.531 58.4864 23.6266 57.8964 23.8448C57.3063 24.0631 56.7681 24.3994 56.3151 24.8328C55.3582 25.9732 54.8341 27.4091 54.8337 28.8918V28.8074C54.8041 29.1228 54.7819 29.4381 54.7671 29.7534C54.7671 30.0688 54.7449 30.3951 54.7449 30.7398C54.7449 31.1394 54.7449 31.5501 54.7893 31.9644C54.8337 32.3788 54.8486 32.7601 54.8745 33.1048C54.99 34.4989 55.5878 35.8108 56.5669 36.8191C57.0886 37.3374 57.7148 37.7411 58.4045 38.004C59.0943 38.2668 59.8323 38.3828 60.5703 38.3444ZM74.273 14.2398C74.2987 14.6872 74.2244 15.1348 74.0554 15.5505C73.8864 15.9663 73.6269 16.34 73.2953 16.6451C72.6035 17.235 71.7114 17.543 70.7992 17.5068C70.2035 17.5246 69.6109 17.4145 69.0623 17.1841C68.6295 16.9753 68.1549 16.865 67.6735 16.8614C67.508 16.8456 67.3418 16.8829 67.1995 16.9678L66.8513 17.2464H66.3477V13.4661H66.9995C67.1204 14.2029 67.4775 14.8816 68.0179 15.4021C68.3613 15.8004 68.7921 16.1157 69.2773 16.3242C69.7625 16.5326 70.2893 16.6286 70.8177 16.6048C71.3606 16.6328 71.901 16.5136 72.3805 16.2601C72.5654 16.1436 72.7151 15.98 72.8142 15.7864C72.9132 15.5929 72.9578 15.3766 72.9435 15.1601C72.9633 14.9021 72.9112 14.6437 72.7931 14.4129C72.6749 14.1821 72.4951 13.9878 72.2731 13.8511C71.8343 13.5839 71.3777 13.3463 70.9066 13.1398C70.4992 12.9711 70.1326 12.8134 69.7956 12.6704C69.4585 12.5274 69.0771 12.3698 68.6438 12.1974C68.0306 11.917 67.4726 11.5308 66.9958 11.0571C66.7734 10.8176 66.6012 10.5368 66.4893 10.2308C66.3774 9.92494 66.328 9.60007 66.344 9.27511C66.3169 8.86762 66.3808 8.45923 66.5312 8.07899C66.6817 7.69875 66.9149 7.35599 67.2143 7.07511C67.7711 6.68428 68.4172 6.43647 69.0946 6.35391C69.772 6.27136 70.4595 6.35664 71.0955 6.60211C71.4673 6.78521 71.8764 6.88178 72.2917 6.88444C72.4184 6.88853 72.5446 6.86604 72.662 6.81844C72.7693 6.77125 72.8551 6.68632 72.9027 6.58011H73.4656V9.88011H72.8138C72.7085 9.22831 72.3974 8.6263 71.925 8.16044C71.635 7.80928 71.2667 7.5295 70.849 7.34308C70.4313 7.15667 69.9756 7.06871 69.5178 7.08611C69.0158 7.04545 68.5155 7.18324 68.1068 7.47478C67.9603 7.59424 67.8432 7.74511 67.7643 7.91599C67.6854 8.08687 67.6467 8.27327 67.6513 8.46111C67.6379 8.65866 67.6746 8.8564 67.758 9.03634C67.8414 9.21628 67.969 9.37272 68.129 9.49144C68.5394 9.77367 68.9745 10.0191 69.4289 10.2248C69.8363 10.3934 70.2177 10.5511 70.5807 10.6941L71.7732 11.1671C72.3956 11.4261 72.9682 11.7895 73.4656 12.2414C73.7402 12.4939 73.9562 12.8023 74.0988 13.1454C74.2413 13.4885 74.3071 13.8581 74.2915 14.2288L74.273 14.2398ZM77.1135 29.9661C77.6655 30.4996 78.0964 31.1434 78.3773 31.8547C78.6583 32.566 78.783 33.3284 78.743 34.0911C78.7824 34.8571 78.6575 35.6226 78.3767 36.3373C78.0958 37.0521 77.6653 37.6999 77.1135 38.2381C76.1165 39.2186 74.7672 39.7672 73.362 39.7634C71.9412 39.7738 70.5745 39.2252 69.5622 38.2381C69.0111 37.6995 68.5813 37.0516 68.3011 36.3369C68.0209 35.6221 67.8966 34.8568 67.9364 34.0911C67.8948 33.3629 68.0047 32.6339 68.2592 31.9494C68.5138 31.265 68.9076 30.6395 69.4162 30.1119C69.9249 29.5842 70.5375 29.1656 71.2162 28.8819C71.895 28.5982 72.6253 28.4556 73.362 28.4628C74.7696 28.4527 76.1244 28.9929 77.132 29.9661H77.1135ZM76.5913 35.8621V35.9464C76.621 35.6311 76.6395 35.3158 76.6543 35.0004C76.6691 34.6851 76.6765 34.3698 76.6765 34.0544C76.6765 33.7391 76.6765 33.4348 76.6543 33.1341C76.6321 32.8334 76.621 32.5511 76.5913 32.2944C76.5238 31.51 76.1956 30.7699 75.6581 30.1898C75.3518 29.9139 74.9917 29.7029 74.6 29.5699C74.2083 29.4368 73.7933 29.3845 73.3805 29.4161C72.9763 29.3878 72.5706 29.4418 72.1884 29.5749C71.8063 29.708 71.4557 29.9173 71.1584 30.1898C70.6267 30.7562 70.2987 31.4806 70.2252 32.2504V32.1954C70.1676 32.4932 70.1317 32.7946 70.1178 33.0974C70.1178 33.4128 70.0955 33.7281 70.0955 34.0398C70.0955 34.3514 70.0955 34.6631 70.1178 34.9638C70.1307 35.2461 70.1666 35.5269 70.2252 35.8034C70.311 36.57 70.6374 37.2907 71.1584 37.8641C71.4492 38.1484 71.7976 38.3684 72.1807 38.5093C72.5638 38.6503 72.9727 38.7091 73.3805 38.6818C73.7989 38.7181 74.2203 38.666 74.6168 38.5288C75.0133 38.3916 75.3758 38.1726 75.6803 37.8861C76.1875 37.3206 76.5058 36.6137 76.5913 35.8621ZM80.1503 17.5288C79.4656 17.5417 78.7869 17.3994 78.1662 17.1127C77.5455 16.8261 76.9992 16.4028 76.5691 15.8751C75.6307 14.7774 75.1291 13.3785 75.1581 11.9408C75.1133 10.4667 75.6242 9.02896 76.5913 7.90744C77.0206 7.38863 77.5652 6.97507 78.1825 6.69903C78.7999 6.42298 79.4734 6.29194 80.1503 6.31611C80.6758 6.28711 81.2014 6.37033 81.6915 6.56012C82.1816 6.74992 82.6247 7.04185 82.9908 7.41611C83.6707 8.1361 84.0652 9.07484 84.1019 10.0598L84.1463 10.8334L76.9395 11.4054C76.954 12.4353 77.3194 13.4302 77.9764 14.2288C78.3065 14.6677 78.7398 15.0204 79.2386 15.2561C79.7375 15.4919 80.2868 15.6037 80.8391 15.5818C81.5851 15.6233 82.3281 15.4609 82.9871 15.1124C83.5238 14.766 83.9643 14.292 84.2685 13.7338H84.9203C84.6445 14.7934 84.0719 15.7543 83.2686 16.5058C82.3943 17.2177 81.2802 17.5754 80.1503 17.5068V17.5288ZM80.1059 7.13011C79.6325 7.09099 79.1571 7.17535 78.727 7.37478C78.2968 7.57421 77.9269 7.88176 77.6542 8.26678C77.1654 8.97202 76.8869 9.79921 76.8506 10.6538L82.2761 10.1954C82.3689 9.47649 82.2864 8.74598 82.0354 8.06511C81.7983 7.42955 81.1552 7.11055 80.1059 7.10811V7.13011ZM93.2123 38.6634C93.3863 38.6634 93.6234 38.5131 93.927 38.2124C94.2307 37.9118 94.3825 37.6771 94.3825 37.5048V31.6381C94.4021 31.1803 94.2564 30.7306 93.9715 30.3694C93.8034 30.1931 93.5971 30.0569 93.368 29.9711C93.139 29.8853 92.8932 29.8523 92.6493 29.8744C91.8809 29.8997 91.1414 30.1712 90.5421 30.6481C89.8335 31.1663 89.4792 31.5966 89.4792 31.9388V37.5231C89.4792 37.6954 89.6311 37.9301 89.9347 38.2308C90.2384 38.5314 90.4643 38.6818 90.6088 38.6818H91.2606V39.4994H85.7054V38.6818H86.3128C86.4869 38.6818 86.7239 38.5314 87.0276 38.2308C87.3312 37.9301 87.4831 37.6954 87.4831 37.5231V31.6564C87.5069 31.181 87.3526 30.7136 87.0498 30.3438C86.8831 30.1708 86.6797 30.0366 86.4542 29.951C86.2288 29.8654 85.9869 29.8305 85.7462 29.8488C84.9577 29.8744 84.2009 30.1624 83.5982 30.6664C82.8896 31.2091 82.5353 31.6674 82.5353 32.0414V37.5414C82.5353 37.7138 82.6871 37.9484 82.9908 38.2491C83.2945 38.5498 83.5352 38.7001 83.7093 38.7001H84.3167V39.5178H78.7615V38.7001H79.4133C79.5578 38.7001 79.7837 38.5498 80.0836 38.2491C80.3836 37.9484 80.5392 37.7138 80.5392 37.5414V30.6958C80.5392 30.5271 80.3873 30.2961 80.0836 30.0101C79.78 29.7241 79.5578 29.5811 79.4133 29.5811H78.7615V28.7634H82.0946L82.5279 30.8278C83.1649 30.1678 83.7439 29.6153 84.2648 29.1704C84.8997 28.6898 85.6894 28.4539 86.4869 28.5068C87.1688 28.4932 87.8372 28.6962 88.3941 29.0861C88.6713 29.2843 88.9035 29.5377 89.0757 29.8301C89.2479 30.1225 89.3563 30.4474 89.394 30.7838C90.057 30.1531 90.668 29.6214 91.2161 29.1924C91.8438 28.7382 92.6097 28.5105 93.3863 28.5471C94.1726 28.528 94.9353 28.8135 95.5121 29.3428C95.8109 29.6364 96.0431 29.9897 96.1932 30.3792C96.3432 30.7687 96.4078 31.1854 96.3824 31.6014V37.4681C96.3824 37.6404 96.5342 37.8751 96.8379 38.1758C97.1416 38.4764 97.3638 38.6268 97.5082 38.6268H98.16V39.4444H92.6049V38.6268L93.2123 38.6634ZM85.9647 8.59678C85.7837 8.31624 85.5557 8.06825 85.2907 7.86344C84.9203 7.54811 84.6759 7.39044 84.55 7.39044H84.0722V6.54711H89.931V7.36478H89.2385C89.0941 7.36478 88.9052 7.50778 88.6756 7.79378C88.4815 7.99382 88.3591 8.25149 88.3275 8.52711L90.9199 13.8108L93.3086 8.56744C93.3098 8.42338 93.2816 8.28056 93.2256 8.1476C93.1695 8.01463 93.0869 7.89427 92.9827 7.79378C92.7358 7.50778 92.5395 7.36478 92.3938 7.36478H91.6791V6.54711H96.0639V7.36478H95.5862C95.4417 7.36478 95.2158 7.51511 94.9121 7.81578C94.6739 8.03025 94.4758 8.28472 94.327 8.56744L90.6236 16.3444L87.4386 22.4054L86.4943 21.9288L89.7903 16.0401L85.9647 8.59678ZM105.626 28.4921C106.231 28.4685 106.833 28.5933 107.378 28.8556C107.922 29.1179 108.393 29.5095 108.748 29.9954C109.541 31.1589 109.931 32.5462 109.859 33.9481C109.917 35.4239 109.474 36.8763 108.6 38.0731C108.239 38.5836 107.758 38.9993 107.199 39.2842C106.639 39.5692 106.018 39.7148 105.389 39.7084C104.593 39.7483 103.803 39.5612 103.112 39.1694C102.5 38.7597 102 38.2068 101.656 37.5598V42.7151C101.656 42.9168 101.815 43.1588 102.134 43.4484C102.452 43.7381 102.686 43.8774 102.83 43.8774H103.53V44.6621H97.8119V43.8444H98.5082C98.7887 43.7859 99.0408 43.6346 99.2229 43.4154C99.4645 43.2383 99.6277 42.9755 99.6784 42.6821V30.6958C99.6784 30.5271 99.5266 30.2961 99.2229 30.0101C99.0408 29.7909 98.7887 29.6396 98.5082 29.5811H97.8119V28.7194H101.326L101.675 30.9561C102.07 30.202 102.643 29.553 103.345 29.0641C104.029 28.6465 104.823 28.4374 105.626 28.4628V28.4921ZM107.796 35.7118V35.7521L107.882 34.8941C107.911 34.6091 107.926 34.3227 107.926 34.0361C107.926 33.7849 107.912 33.5339 107.882 33.2844C107.852 33.0388 107.822 32.8041 107.796 32.5731C107.725 31.821 107.421 31.109 106.926 30.5344C106.689 30.2879 106.4 30.0948 106.081 29.9683C105.761 29.8418 105.418 29.7848 105.074 29.8011C104.674 29.7844 104.274 29.8501 103.901 29.9939C103.527 30.1378 103.188 30.3568 102.904 30.6371C102.338 31.2263 101.922 31.9401 101.689 32.7198V35.5138C101.685 35.9145 101.763 36.312 101.92 36.6815C102.077 37.0511 102.308 37.3849 102.6 37.6624C102.889 37.9553 103.235 38.1865 103.617 38.3417C103.999 38.4968 104.409 38.5726 104.822 38.5644H104.867C105.252 38.5936 105.638 38.5373 105.998 38.3996C106.359 38.262 106.683 38.0464 106.948 37.7688C107.434 37.1721 107.729 36.4458 107.796 35.6824V35.7118ZM132.317 37.5158C132.317 37.6881 132.476 37.9228 132.794 38.2234C133.113 38.5241 133.343 38.6744 133.487 38.6744H134.139V39.4921H128.454V38.6744H129.084C129.232 38.6744 129.454 38.5241 129.78 38.2234C130.106 37.9228 130.258 37.6881 130.258 37.5158V31.6858C130.273 31.2161 130.128 30.7551 129.846 30.3768C129.692 30.1918 129.495 30.0463 129.272 29.9525C129.049 29.8586 128.807 29.8193 128.565 29.8378C127.704 29.8656 126.874 30.1664 126.199 30.6958C125.401 31.2727 125.004 31.731 125.006 32.0708V37.4864C125.006 37.6881 125.165 37.9301 125.484 38.2198C125.677 38.439 125.937 38.5897 126.225 38.6488H126.862V39.4664H117.647L117.344 37.2334C116.887 37.8274 116.379 38.3808 115.825 38.8871C115.262 39.4116 114.514 39.6972 113.74 39.6828C113.376 39.6854 113.015 39.6142 112.679 39.4736C112.344 39.3329 112.04 39.1259 111.789 38.8651C111.513 38.5888 111.298 38.2595 111.155 37.8975C111.013 37.5355 110.948 37.1485 110.963 36.7604C110.921 36.3048 111.011 35.8468 111.222 35.4398C111.434 35.0328 111.757 34.6936 112.155 34.4614C112.881 34.0456 113.663 33.7345 114.477 33.5374L117.299 32.9764L117.344 31.6894C117.376 31.0408 117.159 30.404 116.736 29.9074C116.455 29.6589 116.124 29.4711 115.765 29.3562C115.406 29.2413 115.027 29.2018 114.651 29.2401C114.287 29.1968 113.918 29.254 113.585 29.4054C113.251 29.5569 112.967 29.7966 112.763 30.0981C112.6 30.4528 112.526 30.8408 112.545 31.2297C112.564 31.6187 112.677 31.9976 112.874 32.3348H112.092L110.611 30.1861C111.204 29.6084 111.911 29.1576 112.688 28.8618C113.464 28.566 114.294 28.4314 115.125 28.4664C116.188 28.4305 117.236 28.724 118.121 29.3061C118.516 29.5745 118.835 29.9385 119.048 30.3633C119.26 30.7882 119.36 31.2599 119.336 31.7334V37.4901C119.336 37.6624 119.495 37.8898 119.814 38.1758C120.132 38.4618 120.362 38.6084 120.506 38.6084H121.81C122.098 38.5492 122.359 38.397 122.551 38.1758C122.869 37.8898 123.028 37.6624 123.028 37.4901V30.6958C123.028 30.5271 122.869 30.2961 122.551 30.0101C122.358 29.7908 122.098 29.6402 121.81 29.5811H121.158V28.7194H124.588L125.021 30.9561C125.601 30.345 126.22 29.7706 126.873 29.2364C127.557 28.7235 128.4 28.464 129.258 28.5031C129.656 28.496 130.051 28.5683 130.42 28.7157C130.789 28.8631 131.124 29.0826 131.406 29.3611C131.703 29.652 131.936 30.0011 132.09 30.3863C132.244 30.7714 132.315 31.184 132.298 31.5978L132.317 37.5158ZM117.344 33.7061L114.751 34.3514C114.195 34.4411 113.687 34.7214 113.318 35.1434C113.05 35.5285 112.912 35.9884 112.926 36.4561V36.4964C112.922 36.7153 112.963 36.9327 113.045 37.1359C113.127 37.3392 113.249 37.5244 113.403 37.6808C113.553 37.8399 113.735 37.966 113.937 38.0506C114.14 38.1353 114.358 38.1767 114.577 38.1721H114.64C115.222 38.1489 115.776 37.9214 116.203 37.5304C116.643 37.1816 117.019 36.7598 117.314 36.2838L117.344 33.7061ZM144.945 28.7634V29.5811H144.423C144.308 29.5811 144.097 29.7314 143.794 30.0321C143.563 30.2496 143.353 30.4864 143.164 30.7398L139.52 38.5608L136.265 44.5778L135.353 44.1048L138.609 38.2161L134.791 30.7838C134.608 30.5042 134.381 30.2564 134.117 30.0504C133.746 29.7351 133.517 29.5774 133.402 29.5774H132.88V28.7634H138.738V29.5811H138.087C137.942 29.5811 137.746 29.7241 137.501 30.0101C137.298 30.2062 137.168 30.4647 137.131 30.7434L139.723 36.0308L142.123 30.7288C142.124 30.5908 142.095 30.4543 142.039 30.328C141.983 30.2017 141.9 30.0884 141.797 29.9954C141.553 29.7094 141.357 29.5664 141.212 29.5664H140.52V28.7634H144.945Z" fill="#051C2C"/>
</g>
<defs>
<clipPath id="clip0_2481_53173">
<rect width="144" height="44" fill="white" transform="translate(0.945312 0.662109)"/>
</clipPath>
</defs>
</svg>
