<svg width="79" height="80" viewBox="0 0 79 80" fill="none" xmlns="http://www.w3.org/2000/svg">
<g clip-path="url(#clip0_2481_53193)">
<path d="M39.5 79.1621C61.3152 79.1621 79 61.4774 79 39.6621C79 17.8469 61.3152 0.162109 39.5 0.162109C17.6848 0.162109 0 17.8469 0 39.6621C0 61.4774 17.6848 79.1621 39.5 79.1621Z" fill="url(#paint0_radial_2481_53193)"/>
<path d="M10.4894 39.6511C10.4894 21.5579 21.9115 6.13098 37.9419 0.195007C16.8533 1.01792 0 18.365 0 39.6621C0 60.9811 16.8862 78.3502 38.0078 79.1292C21.9554 73.2042 10.4894 57.7663 10.4894 39.6511Z" fill="url(#paint1_radial_2481_53193)"/>
<mask id="mask0_2481_53193" style="mask-type:luminance" maskUnits="userSpaceOnUse" x="0" y="0" width="39" height="80">
<path d="M10.4894 39.6511C10.4894 21.5579 21.9115 6.13098 37.9419 0.195007C16.8533 1.01792 0 18.365 0 39.6621C0 60.9811 16.8862 78.3502 38.0078 79.1292C21.9554 73.2042 10.4894 57.7663 10.4894 39.6511Z" fill="url(#paint2_radial_2481_53193)"/>
</mask>
<g mask="url(#mask0_2481_53193)">
<path d="M10.4894 39.6511C10.4894 21.5579 21.9115 6.13098 37.9419 0.195007C16.8533 1.01792 0 18.365 0 39.6621C0 60.9811 16.8862 78.3502 38.0078 79.1292C21.9554 73.2042 10.4894 57.7663 10.4894 39.6511Z" fill="url(#paint3_radial_2481_53193)"/>
</g>
<path d="M38.8306 35.8986C41.453 29.436 36.5484 27.6804 33.3555 27.6804H22.7783C23.656 28.2839 23.5134 29.0849 23.3378 29.5786L17.1715 49.2738C16.9301 50.0528 16.0084 50.8757 15.5146 50.9964H24.073C23.6012 50.9086 22.9319 50.2393 23.1733 49.3286L25.4116 42.2076C25.4226 42.2076 35.7145 43.6011 38.8306 35.8986ZM30.5137 29.4908C31.6328 29.4908 34.738 29.6444 32.7301 35.5146C30.6344 41.681 25.9822 40.4082 25.9822 40.4082L29.4055 29.4908H30.5137Z" fill="white"/>
<path d="M45.6775 51.0074H51.4379C49.5946 50.4149 46.8735 48.6703 45.7872 47.4304C46.665 46.4758 47.7513 45.2689 47.9488 42.8221H44.9643C44.9643 42.8221 45.5349 43.1513 45.5349 43.8535C45.5349 44.5008 45.2715 45.4006 44.7668 46.026C43.889 44.7313 42.9564 43.25 42.6272 41.0775C43.8013 40.496 45.4471 39.8596 46.7528 38.7185C47.9927 37.6322 48.2779 36.6008 48.2999 35.9315V35.8438C48.2999 35.1415 48.0256 34.4832 47.5209 33.9894C46.654 33.1336 45.2935 32.7825 43.8561 33.0458C42.704 33.2653 41.7275 33.8797 41.2338 34.3296C39.5002 35.9644 39.2807 38.6526 39.2807 39.8706C39.2807 40.1668 39.2917 40.3863 39.3027 40.5179C39.2039 40.5618 39.0284 40.6276 39.0284 40.6276C37.7556 41.0994 34.3652 41.9992 33.1582 44.7861C33.0046 45.1372 32.7852 45.9053 32.7852 46.794C32.7852 47.5621 32.9497 48.4179 33.4435 49.1969C34.2993 50.5356 35.7477 51.3804 38.0738 51.3365C40.5974 51.2926 43.0881 49.57 43.527 49.2518C43.9549 49.6578 45.085 50.7221 45.6775 51.0074ZM45.6775 35.4268C45.3813 37.3031 42.9454 39.2013 42.3529 39.4536C42.2432 38.4003 42.2981 36.7325 43.1759 35.3719C43.7574 34.4722 44.5364 34.0772 45.1618 34.2967C45.6665 34.4722 45.7214 34.9331 45.6775 35.4268ZM42.2981 47.979C41.9579 48.1875 40.6193 48.8678 39.3685 48.9885C38.2054 49.0982 36.2743 48.6483 36.2853 46.3222C36.2853 44.3363 38.4468 42.8769 39.6209 42.3722C40.0927 44.2924 41.157 46.4649 42.2981 47.979Z" fill="white"/>
<path d="M63.1776 29.5128C66.6009 28.6899 69.4208 31.3671 69.6732 31.5536L70.6497 28.4485C69.3001 28.0425 59.48 24.7179 52.5346 32.6399C48.2664 37.5115 47.224 47.4963 52.6333 50.1735C58.4266 53.0372 64.8234 49.7346 65.2952 49.5042L67.9396 41.0775C68.2248 40.0571 68.8722 39.3988 70.0133 38.9708H60.8186C62.1572 39.5304 62.0584 40.5399 61.9597 40.9568L59.3154 49.3835C58.9643 49.4493 51.569 51.2926 55.7055 38.3564C56.6162 35.5804 59.1069 30.4893 63.1776 29.5128Z" fill="white"/>
</g>
<defs>
<radialGradient id="paint0_radial_2481_53193" cx="0" cy="0" r="1" gradientUnits="userSpaceOnUse" gradientTransform="translate(16.7542 15.5353) scale(73.7677)">
<stop stop-color="#00A1DF"/>
<stop offset="0.13" stop-color="#0092D7"/>
<stop offset="0.37" stop-color="#006CC1"/>
<stop offset="0.62" stop-color="#003DA6"/>
<stop offset="0.73" stop-color="#043799"/>
<stop offset="0.93" stop-color="#102777"/>
<stop offset="1" stop-color="#152169"/>
</radialGradient>
<radialGradient id="paint1_radial_2481_53193" cx="0" cy="0" r="1" gradientUnits="userSpaceOnUse" gradientTransform="translate(11.384 6.25281) scale(122.312 122.312)">
<stop offset="0.02" stop-color="white"/>
<stop offset="0.03" stop-color="#FBFEFF"/>
<stop offset="0.09" stop-color="#BAE7F9"/>
<stop offset="0.14" stop-color="#87D5F4"/>
<stop offset="0.19" stop-color="#63C9F1"/>
<stop offset="0.23" stop-color="#4CC1EF"/>
<stop offset="0.26" stop-color="#44BEEE"/>
<stop offset="0.28" stop-color="#37B8EB"/>
<stop offset="0.35" stop-color="#19ACE5"/>
<stop offset="0.41" stop-color="#07A4E0"/>
<stop offset="0.45" stop-color="#00A1DF"/>
<stop offset="0.79" stop-color="#0045AB"/>
<stop offset="0.82" stop-color="#003DA6"/>
<stop offset="0.96" stop-color="#0059B6"/>
</radialGradient>
<radialGradient id="paint2_radial_2481_53193" cx="0" cy="0" r="1" gradientUnits="userSpaceOnUse" gradientTransform="translate(33.1349 38.4583) rotate(-88.2324) scale(42.5429 43.2923)">
<stop offset="0.1" stop-color="white"/>
<stop offset="0.35" stop-color="#FDFDFD"/>
<stop offset="0.45" stop-color="#F6F6F6"/>
<stop offset="0.51" stop-color="#EAEAEA"/>
<stop offset="0.57" stop-color="#D9D9D9"/>
<stop offset="0.62" stop-color="#C3C3C3"/>
<stop offset="0.66" stop-color="#A7A7A7"/>
<stop offset="0.7" stop-color="#868686"/>
<stop offset="0.73" stop-color="#606060"/>
<stop offset="0.77" stop-color="#353535"/>
<stop offset="0.8"/>
</radialGradient>
<radialGradient id="paint3_radial_2481_53193" cx="0" cy="0" r="1" gradientUnits="userSpaceOnUse" gradientTransform="translate(30.7287 31.955) scale(49.6964 49.6965)">
<stop offset="0.32" stop-color="#44BEEE" stop-opacity="0"/>
<stop offset="0.48" stop-color="#2B99D9" stop-opacity="0.27"/>
<stop offset="0.67" stop-color="#1476C6" stop-opacity="0.58"/>
<stop offset="0.82" stop-color="#0561BA" stop-opacity="0.84"/>
<stop offset="0.92" stop-color="#0059B6"/>
</radialGradient>
<clipPath id="clip0_2481_53193">
<rect width="79" height="79" fill="white" transform="translate(0 0.162109)"/>
</clipPath>
</defs>
</svg>
