<svg width="402" height="205" viewBox="0 0 402 205" fill="none" xmlns="http://www.w3.org/2000/svg">
<path fill-rule="evenodd" clip-rule="evenodd" d="M13 1C6.37258 1 1 6.37259 1 13V162C1 168.627 6.37258 174 13 174H26.1601L34.3137 185.467C37.1716 189.423 43.4607 197.794 57.7929 204.287C58.304 204.519 58.8474 203.716 58.5084 203.26C55.3449 199.007 52.2677 191.459 53.3628 185.28C54.244 180.307 55.3069 176.599 56.1716 174H388.972C395.599 174 400.972 168.627 400.972 162V13C400.972 6.37258 395.599 1 388.972 1H13Z" fill="url(#paint0_linear_2007_14558)"/>
<path d="M26.1601 174L26.6491 173.652L26.4697 173.4H26.1601V174ZM34.3137 185.467L33.8247 185.815L33.8273 185.819L34.3137 185.467ZM57.7929 204.287L58.0405 203.741H58.0405L57.7929 204.287ZM58.5084 203.26L58.9899 202.902L58.5084 203.26ZM53.3628 185.28L52.772 185.175L53.3628 185.28ZM56.1716 174V173.4H55.7389L55.6023 173.811L56.1716 174ZM1.6 13C1.6 6.70396 6.70395 1.6 13 1.6V0.4C6.04121 0.4 0.4 6.04122 0.4 13H1.6ZM1.6 162V13H0.4V162H1.6ZM13 173.4C6.70395 173.4 1.6 168.296 1.6 162H0.4C0.4 168.959 6.04121 174.6 13 174.6V173.4ZM26.1601 173.4H13V174.6H26.1601V173.4ZM34.8027 185.12L26.6491 173.652L25.6711 174.348L33.8247 185.815L34.8027 185.12ZM58.0405 203.741C43.8407 197.308 37.6261 189.028 34.8 185.116L33.8273 185.819C36.7171 189.819 43.0808 198.281 57.5453 204.834L58.0405 203.741ZM58.027 203.618C58.0203 203.609 58.0163 203.599 58.0145 203.593C58.013 203.587 58.0143 203.587 58.0136 203.596C58.0118 203.617 58.001 203.654 57.975 203.692C57.9631 203.709 57.9512 203.722 57.9418 203.73C57.9323 203.738 57.9288 203.738 57.9336 203.736C57.9391 203.734 57.9544 203.729 57.9777 203.729C58.0023 203.728 58.0247 203.734 58.0405 203.741L57.5453 204.834C58.179 205.121 58.7242 204.72 58.9638 204.371C59.2063 204.019 59.3677 203.41 58.9899 202.902L58.027 203.618ZM52.772 185.175C52.2017 188.393 52.7216 191.929 53.7675 195.176C54.8147 198.427 56.4044 201.437 58.027 203.618L58.9899 202.902C57.4489 200.83 55.9183 197.939 54.9097 194.808C53.9 191.673 53.4288 188.346 53.9536 185.384L52.772 185.175ZM55.6023 173.811C54.7295 176.434 53.6589 180.171 52.772 185.175L53.9536 185.384C54.829 180.444 55.8842 176.765 56.7409 174.189L55.6023 173.811ZM388.972 173.4H56.1716V174.6H388.972V173.4ZM400.372 162C400.372 168.296 395.268 173.4 388.972 173.4V174.6C395.93 174.6 401.572 168.959 401.572 162H400.372ZM400.372 13V162H401.572V13H400.372ZM388.972 1.6C395.268 1.6 400.372 6.70395 400.372 13H401.572C401.572 6.04121 395.93 0.4 388.972 0.4V1.6ZM13 1.6H388.972V0.4H13V1.6Z" fill="white"/>
<defs>
<linearGradient id="paint0_linear_2007_14558" x1="200.986" y1="1" x2="200.986" y2="204.329" gradientUnits="userSpaceOnUse">
<stop stop-color="#67185C" stop-opacity="0.87"/>
<stop offset="1" stop-color="#671851" stop-opacity="0"/>
</linearGradient>
</defs>
</svg>
