<svg width="104" height="38" viewBox="0 0 104 38" fill="none" xmlns="http://www.w3.org/2000/svg">
<g clip-path="url(#clip0_2481_53185)">
<path d="M5.98347 27.087C6.42296 28.2823 7.03143 29.3043 7.80898 30.153C8.58654 31.0019 9.50771 31.6514 10.5725 32.1018C11.6374 32.5522 12.7952 32.7774 14.046 32.7774C15.2631 32.7774 16.4039 32.5435 17.4688 32.0757C18.5337 31.608 19.4633 30.9498 20.2577 30.1011C21.0521 29.2522 21.6691 28.239 22.1086 27.061C22.5481 25.8831 22.7678 24.5668 22.7678 23.1116V0.662109H28.092V37.0385H22.8185V33.6607C21.6353 34.9424 20.2408 35.9298 18.6351 36.6229C17.0292 37.3157 15.2968 37.6621 13.4376 37.6621C11.5444 37.6621 9.77811 37.3243 8.13852 36.6487C6.49903 35.9732 5.07913 35.0119 3.87913 33.7646C2.67914 32.5174 1.7325 31.0192 1.03954 29.2696C0.346477 27.5201 0 25.5714 0 23.4233V0.662109H5.32429V23.1116C5.32429 24.5668 5.54398 25.8918 5.98347 27.087Z" fill="#010202"/>
<path d="M37.2699 0.662109V13.9135C38.453 12.701 39.8222 11.7397 41.3772 11.0294C42.9322 10.3191 44.6225 9.96406 46.4479 9.96406C48.3411 9.96406 50.1157 10.3278 51.7722 11.0553C53.4286 11.7828 54.8653 12.7702 56.0823 14.0174C57.2994 15.2647 58.2628 16.737 58.9727 18.4345C59.6826 20.1322 60.0375 21.9337 60.0375 23.8391C60.0375 25.7445 59.6826 27.5373 58.9727 29.2175C58.2628 30.8978 57.2994 32.3616 56.0823 33.6086C54.8653 34.8559 53.4286 35.8433 51.7722 36.5708C50.1157 37.2983 48.341 37.662 46.4479 37.662C44.6224 37.662 42.9238 37.3069 41.3519 36.5966C39.7799 35.8865 38.4023 34.9251 37.2191 33.7126V37.0384H32.1484V0.662109H37.2699ZM37.853 27.4247C38.3093 28.5334 38.9432 29.5035 39.7546 30.3349C40.5659 31.1664 41.5124 31.8247 42.5941 32.3097C43.676 32.7947 44.8422 33.0372 46.093 33.0372C47.3101 33.0372 48.4594 32.7947 49.5411 32.3097C50.6228 31.8247 51.5608 31.1665 52.3554 30.3349C53.1498 29.5036 53.7836 28.5334 54.2569 27.4247C54.7302 26.3162 54.9668 25.121 54.9668 23.8391C54.9668 22.5573 54.7302 21.3533 54.2569 20.2274C53.7836 19.1015 53.1498 18.1228 52.3554 17.2913C51.5609 16.46 50.6229 15.8103 49.5411 15.3427C48.4592 14.875 47.31 14.641 46.093 14.641C44.8761 14.641 43.7267 14.8749 42.645 15.3427C41.5632 15.8104 40.6167 16.46 39.8053 17.2913C38.9941 18.1228 38.3517 19.1015 37.8784 20.2274C37.4052 21.3533 37.1685 22.5573 37.1685 23.8391C37.1684 25.121 37.3966 26.3162 37.853 27.4247Z" fill="#010202"/>
<path d="M62.927 18.4866C63.6031 16.8237 64.5329 15.36 65.7159 14.0955C66.899 12.831 68.302 11.835 69.9247 11.1075C71.5474 10.38 73.3052 10.0163 75.1983 10.0163C77.0576 10.0163 78.7816 10.3627 80.3705 11.0555C81.9593 11.7484 83.3284 12.7098 84.4778 13.9397C85.6272 15.1695 86.5231 16.6247 87.1652 18.3048C87.8076 19.9851 88.1287 21.8126 88.1287 23.7874V25.5023H67.0851C67.2542 26.5763 67.5923 27.5723 68.0993 28.4902C68.6065 29.4083 69.2402 30.2051 70.0008 30.8807C70.7614 31.5563 71.6234 32.0847 72.5869 32.4656C73.5504 32.8467 74.5729 33.0374 75.6547 33.0374C78.731 33.0374 81.2157 31.7381 83.1088 29.1398L86.8104 31.9459C85.5258 33.7128 83.9371 35.0986 82.044 36.1032C80.1508 37.1079 78.0211 37.6103 75.6548 37.6103C73.7279 37.6103 71.9278 37.2637 70.2545 36.5709C68.5811 35.8781 67.1275 34.908 65.8936 33.6607C64.6598 32.4134 63.6879 30.9498 62.978 29.2696C62.2681 27.5894 61.9131 25.7618 61.9131 23.7872C61.9129 21.9164 62.251 20.1496 62.927 18.4866ZM70.0515 16.4339C68.6148 17.6638 67.6598 19.3007 67.1865 21.3447H82.9567C82.5172 19.3007 81.579 17.6638 80.1423 16.4339C78.7056 15.2041 77.0238 14.5892 75.097 14.5892C73.17 14.5892 71.4882 15.2041 70.0515 16.4339Z" fill="#010202"/>
<path d="M97.712 17.0315C96.6302 18.244 96.0893 19.8896 96.0893 21.9683V37.0387H90.9678V10.5358H96.0385V13.8097C96.6808 12.7357 97.5175 11.8869 98.5485 11.2633C99.5796 10.6396 100.805 10.3278 102.225 10.3278H104V15.2126H101.87C100.18 15.2127 98.7937 15.8189 97.712 17.0315Z" fill="#010202"/>
</g>
<defs>
<clipPath id="clip0_2481_53185">
<rect width="104" height="37" fill="white" transform="translate(0 0.662109)"/>
</clipPath>
</defs>
</svg>
