<svg width="128" height="47" viewBox="0 0 128 47" fill="none" xmlns="http://www.w3.org/2000/svg">
<g clip-path="url(#clip0_2481_53245)">
<path d="M74.7998 28.3621C74.7998 37.8621 69.5998 39.0621 64.3998 39.0621C55.4998 39.0621 53.5998 34.4621 53.5998 27.9621V9.46212H50.2998V7.66212H62.7998V9.46212H59.2998V27.3621C59.2998 33.6621 60.8998 36.8621 65.4998 36.8621C70.0998 36.8621 72.3998 34.5621 72.3998 27.9621V9.46212H69.0998V7.66212H77.9998V9.46212H74.9998L74.7998 28.3621ZM83.4998 36.8621V9.46212H79.9998V7.66212H93.7998C99.6998 7.66212 102.6 10.9621 102.6 14.8621C102.6 19.0621 98.7998 21.3621 95.4998 22.0621C102 22.6621 103.8 26.8621 103.8 29.9621C103.8 36.2621 98.3998 38.6621 93.1998 38.6621H79.7998V36.8621H83.4998ZM96.9998 15.2621C96.9998 12.3621 95.4998 9.46212 92.1998 9.46212H88.5998V21.3621H91.7998C95.3998 21.3621 96.9998 18.4621 96.9998 15.2621ZM98.1998 30.0621C98.1998 25.9621 96.3998 23.1621 92.2998 23.1621H88.7998V36.9621H91.6998C95.9998 36.8621 98.1998 34.2621 98.1998 30.0621ZM117.7 9.06212C114.4 9.06212 112.3 10.9621 112.3 14.3621C112.3 17.3621 115.6 18.8621 118.8 19.9621C120.7 20.6621 123.1 21.5621 124.8 23.0621C126.6 24.7621 127.6 27.0621 127.5 29.9621C127.4 35.3621 123.6 39.0621 116.9 39.0621C114.4 39.0621 110.5 38.4621 108.2 37.1621L107.9 29.0621H109.9C110.1 34.5621 112.6 37.3621 117.1 37.3621C120.7 37.3621 122.7 34.9621 122.7 31.2621C122.7 28.0621 120.1 26.7621 116.1 25.3621C114.8 24.9621 112.2 23.9621 110.4 22.1621C108.8 20.5621 108 18.4621 108 16.3621C108 10.0621 112.5 7.26212 118.1 7.26212C120.3 7.26212 123.6 8.06212 125.6 9.16212L125.8 16.2621H123.8C123.5 11.2621 121.3 9.06212 117.7 9.06212Z" fill="#E60000"/>
<path d="M34.6 13.9621L33.8 14.6621L34.7 17.5621L32.1 16.1621L31.2 16.8621L34.1 18.4621L31 20.9621L30.2 19.8621L31.3 18.9621L30.5 17.9621L29.4 18.8621L28.5 17.6621L29.6 16.7621L28.8 15.6621L23.2 20.3621L28.6 24.6621L29.6 23.4621C30.3 23.4621 30.8 24.0621 31.1 24.6621L30.1 25.8621L30.7 26.3621C32 25.1621 33.8 24.3621 35.6 24.3621C39.4 24.3621 42.3 27.4621 42.3 31.2621C42.3 32.4621 42 33.8621 41.3 34.9621L42.3 35.7621C42.3 36.4621 41.6 37.2621 40.9 37.4621L39.9 36.6621C38.6 37.9621 36.8 38.6621 35 38.6621C31.2 38.6621 28.3 35.6621 28.3 31.8621C28.3 30.6621 28.7 29.3621 29.2 28.2621L28.5 27.7621L27.5 29.0621C26.8 28.9621 26.2 28.4621 26 27.7621L27 26.6621L22.5 22.8621V28.8621H24C24.2 29.1621 24.3 29.4621 24.3 29.7621C24.3 30.0621 24.2 30.4621 24 30.7621H22.5V31.4621C25.8 32.0621 28.6 34.8621 28.6 38.2621C28.6 41.7621 25.9 44.5621 22.5 45.1621V46.3621C22.2 46.5621 21.8 46.6621 21.4 46.6621C21 46.6621 20.5 46.5621 20.2 46.3621V45.1621C16.8 44.6621 14.2 41.7621 14.2 38.2621C14.2 34.8621 16.8 32.0621 20.2 31.5621V30.7621H18.6C18.4 30.4621 18.3 30.1621 18.3 29.7621C18.3 29.3621 18.4 29.0621 18.6 28.7621H20.2V22.7621L15.6 26.5621L16.6 27.6621C16.4 28.3621 15.8 28.8621 15.1 28.9621L14.1 27.6621L13.5 28.2621C14.1 29.3621 14.5 30.5621 14.5 31.8621C14.5 35.6621 11.5 38.6621 7.8 38.6621C6 38.6621 4.2 37.9621 2.9 36.6621L1.9 37.4621C1.3 37.2621 0.6 36.4621 0.5 35.7621L1.5 34.9621C0.9 33.8621 0.5 32.5621 0.5 31.2621C0.5 27.4621 3.4 24.3621 7.2 24.3621C9 24.3621 10.8 25.1621 12.1 26.3621L12.7 25.9621L11.7 24.7621C11.9 24.1621 12.5 23.6621 13.2 23.5621L14.2 24.7621L19.6 20.4621L14 15.7621L13.2 16.8621L14.3 17.7621L13.5 18.8621L12.4 17.9621L11.6 18.9621L12.5 19.6621L11.7 20.7621L8.7 18.2621L11.5 16.6621L10.7 15.9621L8.1 17.3621L8.9 14.6621L8.1 13.9621L7.1 17.0621L4 14.5621L4.8 13.5621L5.9 14.4621L6.8 13.4621L5.7 12.4621L6.5 11.4621L7.6 12.2621L8.4 11.2621L6 9.46211C6.2 8.66211 6.7 8.06211 7.5 7.56211L20.2 17.9621V11.0621H18.9V12.3621H17.6V11.0621H16.3V12.3621H15V8.46211L18 9.76211V8.66211L15.2 7.46211L18 6.36211V5.36211L15 6.56211V2.56211H16.3V3.96211H17.6V2.56211H18.9V3.96211H20.2V0.862109C20.6 0.762109 21 0.662109 21.4 0.662109C21.8 0.662109 22.2 0.762109 22.5 0.862109V17.9621L35.2 7.56211C35.9 8.06211 36.4 8.66211 36.7 9.46211L34.3 11.3621L35.1 12.3621L36.2 11.5621L37 12.5621L35.9 13.5621L36.7 14.5621L37.8 13.6621L38.6 14.6621L35.5 17.1621L34.6 13.9621ZM8.7 32.7621C8.7 33.8621 9.5 34.5621 10.5 34.6621L8.9 35.8621C7.8 35.4621 6.8 34.1621 6.8 32.9621C6.8 32.5621 6.9 32.3621 7 32.0621H6.7C5.2 32.0621 4 30.6621 3.7 29.2621L5.4 27.9621V28.4621C5.4 29.3621 6.3 30.1621 7.2 30.1621C8.2 30.1621 9.1 29.3621 9.1 28.3621C9.1 27.1621 8.2 26.3621 7 26.3621C4.8 26.3621 2.6 28.5621 2.6 31.3621C2.6 32.1621 2.8 32.9621 3.1 33.6621L4.1 32.8621C4.8 33.1621 5.3 33.8621 5.5 34.6621L4.5 35.4621C5.5 36.2621 6.7 36.6621 7.9 36.6621C10.5 36.6621 12.5 34.5621 12.5 32.7621C12.5 31.6621 11.8 30.7621 10.7 30.7621C9.5 30.9621 8.7 31.7621 8.7 32.7621ZM22.3 36.7621C22.3 37.7621 23.1 38.5621 24.1 38.5621C24.8 38.5621 25.1 38.2621 25.6 37.8621V39.9621C25.1 40.2621 24.6 40.3621 24 40.3621C22.9 40.3621 22 40.0621 21.4 39.0621C20.8 40.0621 19.8 40.3621 18.7 40.3621C18.2 40.3621 17.6 40.2621 17.1 39.9621V37.8621C17.6 38.3621 17.9 38.5621 18.6 38.5621C19.6 38.5621 20.4 37.7621 20.4 36.7621C20.4 35.7621 19.8 34.9621 18.7 34.9621C16.8 34.9621 16 36.7621 16 38.4621C16 40.8621 17.8 42.9621 20.1 43.3621V42.1621C20.5 41.9621 20.9 41.9621 21.2 41.9621C21.6 41.9621 22 41.9621 22.4 42.1621V43.3621C24.6 43.0621 26.5 40.7621 26.5 38.4621C26.5 36.7621 25.8 34.9621 23.8 34.9621C23 34.8621 22.3 35.7621 22.3 36.7621ZM33.7 28.4621C33.7 29.3621 34.7 30.2621 35.6 30.2621C36.5 30.2621 37.4 29.4621 37.4 28.5621V28.0621L39 29.3621C38.7 30.9621 37.3 32.2621 35.7 32.1621C35.8 32.4621 35.8 32.7621 35.8 33.0621C35.8 34.2621 34.8 35.5621 33.7 35.9621L32.2 34.6621C33.2 34.5621 34 33.8621 34 32.7621C34 31.6621 33.1 30.9621 32.1 30.9621C31 30.9621 30.3 31.8621 30.3 32.9621C30.3 34.2621 31.9 36.8621 35 36.8621C36.2 36.8621 37.4 36.4621 38.3 35.6621L37.3 34.8621C37.5 34.0621 38 33.3621 38.7 33.0621L39.7 33.8621C40.1 33.1621 40.3 32.3621 40.3 31.5621C40.3 29.3621 38.6 26.5621 35.9 26.5621C34.7 26.5621 33.7 27.2621 33.7 28.4621Z" fill="black"/>
</g>
<defs>
<clipPath id="clip0_2481_53245">
<rect width="127" height="46" fill="white" transform="translate(0.5 0.662109)"/>
</clipPath>
</defs>
</svg>
