<svg width="74" height="74" viewBox="0 0 74 74" fill="none" xmlns="http://www.w3.org/2000/svg">
<path d="M0.0292969 37C0.0292969 16.571 16.5705 0.0297852 36.9995 0.0297852C57.4286 0.0297852 73.9697 16.571 73.9697 37C73.9697 57.429 57.4286 73.9702 36.9995 73.9702C16.5705 73.9702 0.0292969 57.429 0.0292969 37Z" fill="#BC2026"/>
<path d="M27.104 27.2449H41.8073C42.0193 27.2449 42.2314 27.1035 42.2314 26.8915C42.2314 25.6191 42.2314 24.4174 42.09 23.145C42.09 22.9329 41.878 22.7915 41.6659 22.7915L24.3471 22.7208C23.9937 22.7208 23.7109 23.0036 23.7109 23.357C23.7109 23.4984 23.7816 23.6398 23.923 23.7812L26.6799 27.0328C26.7506 27.1742 26.8919 27.2449 27.104 27.2449Z" fill="white"/>
<path d="M57.9955 22.7917H50.2197C50.3611 24.2762 50.3611 25.7606 50.2904 27.2451H57.9955C58.3489 27.2451 58.6317 26.9623 58.6317 26.6089V23.3572C58.561 23.0744 58.2782 22.7917 57.9955 22.7917Z" fill="white"/>
<path d="M57.9939 15.5815H18.4082C18.1962 15.5815 17.9841 15.7229 17.9134 15.9349C17.8427 16.147 17.8427 16.4297 18.0548 16.6418L20.6703 19.8935C20.8116 19.9642 20.953 20.0349 21.0944 20.0349H42.301C42.9372 20.0349 43.432 20.459 43.5734 21.0245C44.351 23.4986 44.4924 27.5986 43.5734 29.5072C43.22 30.3554 42.3717 30.9209 41.3821 30.8503H30.9908C30.7788 30.8503 30.5667 30.9916 30.4253 31.2037C30.3546 31.4158 30.3546 31.6985 30.5667 31.8399L33.1115 34.8795C33.2529 35.0209 33.3942 35.0209 33.5356 35.0209H38.7666C39.1907 35.1623 39.6149 35.3743 39.8976 35.6571C44.351 39.1915 48.3096 42.726 48.3096 47.5328C48.3096 50.9965 46.3303 53.612 43.6441 55.1672C43.2907 55.3792 42.8665 55.5913 42.4424 55.8034C42.1596 55.9448 41.9476 56.0154 41.6648 56.0861H41.5941C41.17 56.2275 40.7459 56.3689 40.3217 56.5103H40.2511C39.9683 56.581 39.6855 56.6516 39.4028 56.7223C39.3321 56.7223 39.3321 56.7223 39.2614 56.7223C38.9786 56.793 38.7666 56.793 38.4838 56.8637C37.7063 56.9344 36.9994 57.0051 36.2925 57.0051C29.7891 57.0051 24.9823 53.7534 20.1754 46.1897C20.1047 46.0483 19.9634 45.9776 19.822 45.907L15.7927 44.988C15.722 44.988 15.5807 44.988 15.51 44.988C15.3686 44.988 15.2272 45.1294 15.1565 45.2001C15.0152 45.4121 14.9445 45.6949 15.0859 45.907C21.3065 56.6516 27.5978 61.1757 36.2925 61.1757C37.2114 61.1757 38.0597 61.105 38.9787 61.0344C39.4735 60.9637 39.9683 60.893 40.4631 60.8223H40.6045L40.8872 60.7516L41.3821 60.6102C41.4528 60.6102 41.4528 60.6102 41.5234 60.6102C42.9372 60.2568 44.2803 59.762 45.482 59.0551L45.7648 58.9137C45.8355 58.843 45.9768 58.7723 46.1182 58.7016L46.401 58.5602L46.6837 58.3482C46.8251 58.2775 46.8958 58.2068 46.9665 58.1361L47.1785 57.9947C50.5009 55.5206 52.4802 51.7034 52.6216 47.5328C52.6216 41.9484 49.6527 38.3433 45.6941 34.9502L45.3406 34.6674L44.8458 34.2433C45.9768 33.6071 46.8958 32.6175 47.4613 31.4158C48.9458 28.5882 48.8044 23.64 47.7441 20.1056H58.0646C58.4181 20.1056 58.7008 19.8228 58.7008 19.4694V16.2884C58.6301 15.8642 58.3474 15.5815 57.9939 15.5815Z" fill="white"/>
</svg>
