<svg width="184" height="28" viewBox="0 0 184 28" fill="none" xmlns="http://www.w3.org/2000/svg">
<g clip-path="url(#clip0_2472_7725)">
<path d="M39.5303 14.2192C39.5303 17.6462 40.8476 20.071 44.7662 20.071C47.5701 20.071 49.1578 18.3575 49.1578 18.3575L49.3943 19.1981C49.4956 19.5214 49.6307 19.7477 50.0023 19.7477H50.6442C50.982 19.7477 51.286 19.4568 51.286 19.1334V7.42971C51.286 7.10641 50.982 6.81543 50.6442 6.81543H49.597C49.2592 6.81543 48.9551 7.10641 48.9551 7.42971V16.062C48.9551 16.062 47.5026 17.9048 44.9351 17.9048C43.0434 17.9048 41.895 16.7086 41.895 14.2515V7.42971C41.895 7.10641 41.5909 6.81543 41.2531 6.81543H40.172C39.8342 6.81543 39.5303 7.10641 39.5303 7.42971V14.2192Z" fill="#08BD80"/>
<path fill-rule="evenodd" clip-rule="evenodd" d="M75.0739 11.536C71.5944 11.536 69.6689 13.3788 69.6689 15.8361C69.6689 18.4224 71.4593 20.0714 73.824 20.0714C75.9185 20.0714 77.3035 19.0691 78.0128 18.3902L78.2831 19.263C78.3844 19.5541 78.4858 19.748 78.8574 19.748H79.4992C79.837 19.748 80.141 19.4571 80.141 19.1338V11.9563C80.141 8.17363 79.2966 6.49243 75.8508 6.49243C73.3172 6.49243 71.358 7.23605 71.1553 7.33303C70.8513 7.46236 70.6486 7.65635 70.7837 8.04431L71.0539 8.85258C71.1553 9.14355 71.358 9.3052 71.6958 9.17588C72.3038 8.94957 73.8916 8.46461 75.7495 8.46461C77.675 8.46461 77.9791 9.56385 77.9453 11.9563C77.9453 11.9563 76.5264 11.536 75.0739 11.536ZM74.1951 18.1315C72.7426 18.1315 71.8304 17.1292 71.8304 15.8359C71.8304 14.1547 73.1816 13.2496 75.0734 13.2496C76.5597 13.2496 77.5057 13.5405 77.911 13.7668V16.3209C77.3368 17.1293 75.8841 18.1315 74.1951 18.1315Z" fill="#2D81F7"/>
<path d="M83.2861 13.3143C83.2861 17.1939 86.4615 20.0714 90.2111 20.0714C92.5083 20.0714 94.3663 18.9074 95.3797 17.3556C95.5824 17.0323 95.481 16.6767 95.1432 16.4503L94.7716 16.1917C94.4 15.933 94.1636 15.8684 93.7582 16.2564C92.9813 16.9676 92.2043 17.9374 90.1774 17.9374C87.6438 17.9374 85.7183 15.8684 85.7183 13.2819C85.7183 10.6954 87.6776 8.69092 90.2111 8.69092C91.5286 8.69092 92.6435 9.3052 93.3191 10.0488C93.623 10.3075 93.7919 10.6308 94.2986 10.1781L94.9405 9.66085C95.2446 9.43453 95.3121 9.04656 95.0757 8.75558C93.8596 7.26837 92.2718 6.49243 90.245 6.49243C86.5629 6.49243 83.2861 9.49919 83.2861 13.3143Z" fill="#2D81F7"/>
<path fill-rule="evenodd" clip-rule="evenodd" d="M104.034 11.536C100.554 11.536 98.6289 13.3788 98.6289 15.8361C98.6289 18.4224 100.419 20.0714 102.784 20.0714C104.878 20.0714 106.263 19.0691 106.973 18.3902L107.243 19.263C107.344 19.5541 107.446 19.748 107.817 19.748H108.459C108.797 19.748 109.101 19.4571 109.101 19.1338V11.9563C109.101 8.17363 108.256 6.49243 104.811 6.49243C102.277 6.49243 100.318 7.23605 100.115 7.33303C99.8112 7.46236 99.6086 7.65635 99.7437 8.04431L100.014 8.85258C100.115 9.14355 100.318 9.3052 100.656 9.17588C101.264 8.94957 102.852 8.46461 104.71 8.46461C106.635 8.46461 106.939 9.56385 106.905 11.9563C106.905 11.9563 105.486 11.536 104.034 11.536ZM103.154 18.1315C101.702 18.1315 100.79 17.1292 100.79 15.8359C100.79 14.1547 102.141 13.2496 104.033 13.2496C105.519 13.2496 106.465 13.5405 106.87 13.7668V16.3209C106.296 17.1293 104.843 18.1315 103.154 18.1315Z" fill="#2D81F7"/>
<path fill-rule="evenodd" clip-rule="evenodd" d="M118.732 6.49188C114.678 6.49188 112.246 9.4663 112.246 13.249C112.246 16.967 114.949 20.0708 118.394 20.0708C120.928 20.0708 122.55 18.3573 122.55 18.3573L122.752 19.2302C122.819 19.5211 123.023 19.7475 123.326 19.7475H124.035C124.374 19.7475 124.677 19.4565 124.677 19.1332V0.776393C124.677 0.453086 124.374 0.162109 124.035 0.162109H122.988C122.651 0.162109 122.346 0.453086 122.346 0.776393V7.33248C122.346 7.33248 120.962 6.49188 118.732 6.49188ZM118.629 18.0337C116.164 18.0337 114.61 15.803 114.61 13.2812C114.61 10.6947 116.096 8.65785 119.035 8.65785C120.894 8.65785 122.312 9.43379 122.312 9.43379V15.9C122.312 15.9 121.062 18.0337 118.629 18.0337Z" fill="#2D81F7"/>
<path fill-rule="evenodd" clip-rule="evenodd" d="M134.443 6.49243C130.356 6.49243 127.822 9.62852 127.822 13.2819C127.822 16.9999 130.356 20.0714 134.443 20.0714C136.774 20.0714 138.599 19.1983 139.409 18.5841C139.916 18.2285 139.781 18.0345 139.545 17.7435C139.443 17.6142 139.35 17.493 139.257 17.3717C139.165 17.2505 139.072 17.1293 138.97 16.9999C138.724 16.6755 138.533 16.7815 138.143 16.9989C138.106 17.0198 138.066 17.0418 138.025 17.0646C137.247 17.5171 136.099 18.0345 134.68 18.0345C132.281 18.0345 130.289 15.9976 130.154 13.8315H139.882C140.187 13.8315 140.456 13.6052 140.49 13.2819C140.524 13.0555 140.558 12.6352 140.558 12.409C140.558 9.01423 137.991 6.49243 134.443 6.49243ZM138.225 12.021H130.185C130.422 10.0165 132.179 8.46462 134.442 8.46462C136.503 8.46462 138.124 10.1458 138.225 12.021Z" fill="#2D81F7"/>
<path d="M143.704 19.1338C143.704 19.4571 144.008 19.748 144.346 19.748H145.393C145.731 19.748 146.035 19.4571 146.035 19.1338V10.5014C146.035 10.5014 147.487 8.6586 149.886 8.6586C151.946 8.6586 153.095 9.85483 153.095 12.312V19.1338C153.095 19.4571 153.399 19.748 153.737 19.748H154.818C155.156 19.748 155.459 19.4571 155.459 19.1338V12.312C155.459 11.6331 155.392 11.0187 155.291 10.4691C155.764 10.0488 157.217 8.6586 159.413 8.6586C161.371 8.6586 162.452 9.88716 162.452 12.312V19.1338C162.452 19.4571 162.757 19.748 163.094 19.748H164.175C164.513 19.748 164.817 19.4571 164.817 19.1338V12.312C164.817 8.94957 163.5 6.49243 159.581 6.49243C156.879 6.49243 154.717 8.46461 154.548 8.59393C153.669 7.23605 152.216 6.49243 150.224 6.49243C147.42 6.49243 145.832 8.20596 145.832 8.20596L145.528 7.20371C145.46 6.94506 145.292 6.81575 144.987 6.81575H144.346C144.008 6.81575 143.704 7.10672 143.704 7.43003V19.1338Z" fill="#2D81F7"/>
<path d="M174.323 19.7154L171.587 26.354C171.35 26.8067 171.621 27.1623 172.127 27.1623H173.377C173.614 27.1623 173.85 26.9684 173.951 26.7743L182.734 7.55904C182.97 7.13874 182.734 6.81543 182.227 6.81543H180.944C180.707 6.81543 180.471 6.97708 180.37 7.17108L175.64 17.0642L170.607 7.17108C170.506 6.97708 170.302 6.81543 170.032 6.81543H168.546C168.039 6.81543 167.837 7.10641 168.039 7.52671L174.323 19.7154Z" fill="#2D81F7"/>
<path d="M54.4287 19.1338C54.4287 19.4571 54.7328 19.748 55.0706 19.748H56.1178C56.4556 19.748 56.7596 19.4571 56.7596 19.1338V10.5014C56.7596 10.5014 58.5837 8.6586 61.1173 8.6586C63.009 8.6586 64.1576 9.85483 64.1576 12.312V19.1338C64.1576 19.4571 64.4617 19.748 64.7995 19.748H65.8804C66.2182 19.748 66.5223 19.4571 66.5223 19.1338V12.312C66.5223 8.94957 65.2048 6.49243 61.2862 6.49243C58.4824 6.49243 56.5569 8.20596 56.5569 8.20596L56.2529 7.20371C56.1853 6.94506 56.0164 6.81575 55.7123 6.81575H55.0706C54.7328 6.81575 54.4287 7.10672 54.4287 7.43003V19.1338Z" fill="#08BD80"/>
<path d="M0.226608 2.67214C1.48186 10.2942 8.38192 16.1234 16.7058 16.1234C24.9455 16.1234 31.7899 10.4116 33.1451 2.90297C33.3187 2.19801 33.3904 1.63497 33.3685 1.15259C33.3685 0.599936 32.9544 0.170898 32.3804 0.170898H31.449H2.1191H1.0457C0.47204 0.170898 0.0581708 0.599291 0.0575488 1.15134L0.0537109 1.1512C0.0544938 1.16355 0.0552913 1.17589 0.0561035 1.18823C0.0411313 1.60839 0.0962454 2.08986 0.226608 2.67214Z" fill="#2D81F7"/>
<path d="M24.8961 25.8873C24.2685 22.0763 20.8184 19.1617 16.6566 19.1617C12.5367 19.1617 9.11445 22.0176 8.43685 25.772C8.35009 26.1244 8.31419 26.4059 8.32516 26.6471C8.32516 26.9234 8.53219 27.1379 8.81924 27.1379H9.28488H23.9499H24.4866C24.7734 27.1379 24.9803 26.9237 24.9807 26.6478H24.9825C24.9822 26.6416 24.9817 26.6355 24.9814 26.6293C24.9889 26.4192 24.9612 26.1784 24.8961 25.8873Z" fill="#08BD80"/>
</g>
<defs>
<clipPath id="clip0_2472_7725">
<rect width="183" height="27" fill="white" transform="translate(0.0537109 0.162109)"/>
</clipPath>
</defs>
</svg>
