<svg width="140" height="30" viewBox="0 0 140 30" fill="none" xmlns="http://www.w3.org/2000/svg">
<g clip-path="url(#clip0_2481_53191)">
<path d="M21.7113 7.48132L21.5863 11.3993L11.1047 22.5071C15.483 22.5071 18.2593 22.4654 19.8603 22.3787C19.3963 24.4867 19.019 26.21 18.6389 28.7937C16.5333 28.6203 13.2508 28.577 9.96663 28.577C6.30568 28.577 3.10597 28.6198 0.538086 28.7937L0.623664 24.8313L11.1047 13.7679C6.51629 13.7679 4.83197 13.8102 2.9387 13.8535C3.35826 11.8728 3.65333 9.67817 3.94785 7.48132C7.27315 7.61026 8.57794 7.65252 12.9141 7.65252C16.9134 7.65306 19.1851 7.61026 21.7113 7.48132ZM33.6249 6.31761C26.8037 6.31761 21.5863 12.2591 21.5863 19.3654C21.5863 24.7034 24.7427 28.7937 30.8881 28.7937C37.7499 28.7937 42.9273 22.8511 42.9273 15.7031C42.9279 10.4101 39.8538 6.31761 33.6249 6.31761ZM31.5616 23.083C30.0457 23.083 29.1627 21.7465 29.1627 19.1205C29.1627 15.2025 30.8042 12.0603 32.8259 12.0603C34.2979 12.0603 35.182 13.3529 35.182 16.0206C35.1815 19.8953 33.5833 23.083 31.5616 23.083ZM130.037 6.0229C123.129 6.0229 117.841 12.043 117.841 19.2386C117.841 24.6492 121.039 28.7937 127.265 28.7937C134.216 28.7937 139.462 22.7731 139.462 15.5325C139.463 10.1679 136.351 6.0229 130.037 6.0229ZM127.817 23.0602C126.3 23.0602 125.418 21.7237 125.418 19.0978C125.418 15.1798 127.06 12.0381 129.081 12.0381C130.553 12.0381 131.438 13.3296 131.438 15.9978C131.437 19.8741 129.838 23.0602 127.817 23.0602ZM78.3276 14.0686C78.8755 10.4101 78.581 7.09396 74.4144 7.09396C71.383 7.09396 68.0999 9.59148 65.7849 13.7679C66.2906 10.3223 65.9949 7.09396 61.87 7.09396C58.7553 7.09396 55.3878 9.71988 53.0716 14.0686C53.6612 11.2271 53.5356 7.99708 53.3667 7.3085C50.9677 7.6964 48.8639 7.91094 45.9164 7.99708C46.0009 9.9783 45.8742 12.5598 45.4952 15.0162L44.5272 21.4734C44.1482 24.0148 43.727 26.9425 43.3058 28.7943H51.1356C51.1784 27.6733 51.4734 25.9088 51.6835 24.3588L52.357 19.9251C52.9038 17.0386 55.2605 13.639 57.0704 13.639C58.1229 13.639 58.0818 14.6288 57.7867 16.48L57.0288 21.4729C56.6487 24.0143 56.2291 26.942 55.8073 28.7937H63.721C63.7638 27.6728 64.0161 25.9083 64.2262 24.3583L64.8991 19.9245C65.447 17.038 67.8054 13.6384 69.6142 13.6384C70.6678 13.6384 70.6261 14.5844 70.4561 15.877L68.5656 28.7932H75.788L78.3276 14.0686ZM116.143 22.0341L115.302 27.1153C113.996 27.8039 111.554 28.7948 108.734 28.7948C103.935 28.7948 102.968 26.2973 103.725 21.0015L104.946 12.4764H102.584L103.251 6.95798L105.83 6.83662L106.798 2.83246L114.08 0.162109L113.154 6.83608H118.164C117.996 7.52466 117.405 11.3148 117.239 12.4758H112.354L111.259 20.3552C110.964 22.3787 111.134 23.1112 112.563 23.1112C113.618 23.1101 115.174 22.5071 116.143 22.0341ZM88.523 24.7787C91.1731 24.4585 92.9969 21.968 93.4354 19.483L93.5093 18.8172C92.3706 18.569 90.7247 18.38 89.1287 18.5701C87.6089 18.7505 86.3441 19.3665 85.6639 20.2582C85.151 20.8986 84.8932 21.6647 85.0076 22.5781C85.1805 23.946 86.7325 24.9916 88.523 24.7787ZM86.2674 28.7141C82.527 29.1621 80.0636 27.7145 79.3239 24.4222C78.8599 22.3505 79.504 19.9906 80.6304 18.5826C82.1391 16.7411 84.5975 15.559 87.5977 15.202C90.0123 14.91 92.0467 15.0541 93.9494 15.4051L94.0283 15.0871C94.0827 14.5784 94.1378 14.0708 94.0616 13.4629C93.8644 11.9021 92.6018 10.9724 89.4843 11.3463C87.381 11.5982 85.38 12.3388 83.8262 13.1817L82.3147 8.729C84.4208 7.55012 87.0754 6.65296 90.1134 6.28944C95.9165 5.59544 99.9943 7.39951 100.517 11.5472C100.655 12.6503 100.672 13.8194 100.529 14.8802C99.7837 20.0085 99.3063 23.8675 99.0968 26.4538C99.0629 26.8542 99.0657 27.5422 99.1024 28.5174L91.9011 28.5109C92.0544 28.1068 92.1917 27.5585 92.314 26.871C92.3951 26.4186 92.4529 25.8481 92.489 25.1569C90.9669 27.1928 88.8747 28.402 86.2674 28.7141Z" fill="#E23744"/>
</g>
<defs>
<clipPath id="clip0_2481_53191">
<rect width="139" height="29" fill="white" transform="translate(0.5 0.162109)"/>
</clipPath>
</defs>
</svg>
